{"glyphs":{"0":{"ha":864,"x_min":0,"x_max":0,"o":"m 210 367 b 224 375 214 368 222 372 b 226 385 226 378 226 382 b 221 390 225 386 221 389 l 222 392 l 224 392 b 483 456 256 400 442 435 b 496 461 489 457 493 460 l 501 467 b 499 467 503 468 501 468 b 233 403 451 447 265 414 b 224 397 228 401 226 399 l 215 390 b 217 381 213 386 213 383 b 215 372 219 376 218 374 b 210 368 214 372 211 369 b 210 367 210 368 208 367 z m 15 0 l 17 0 l 83 86 l 15 86 z m 78 0 l 158 0 l 224 86 l 144 86 z m 44 142 l 58 142 l 58 190 l 75 142 l 90 142 l 90 210 l 79 210 l 78 164 l 63 210 l 46 210 z m 101 142 l 117 142 l 118 157 l 136 157 l 140 142 l 154 142 l 138 210 l 121 210 z m 218 0 l 299 0 l 364 86 l 286 86 z m 121 168 l 128 199 l 135 168 z m 167 142 l 178 142 l 179 197 l 192 142 l 201 142 l 214 197 l 213 142 l 226 142 l 226 210 l 207 210 l 196 161 l 188 210 l 167 210 z m 243 142 l 282 142 l 281 153 l 256 153 l 256 172 l 279 172 l 281 183 l 257 183 l 256 199 l 279 199 l 281 210 l 243 210 z m 360 0 l 439 0 l 506 86 l 425 86 z m 294 142 l 333 142 l 333 153 l 308 153 l 308 210 l 296 210 z m 342 142 l 354 142 l 358 157 l 376 157 l 379 142 l 393 142 l 376 210 l 358 210 z m 361 168 l 365 199 l 368 199 l 374 168 z m 199 335 l 199 269 b 211 272 199 269 208 269 b 215 281 215 275 215 281 l 215 335 b 222 343 217 339 219 342 b 235 347 226 344 231 347 b 249 340 242 347 244 344 b 253 322 251 336 253 331 l 253 281 b 254 272 253 281 254 275 b 269 269 258 268 269 269 l 268 325 b 240 360 268 349 258 360 b 215 347 229 360 219 356 b 201 340 211 343 208 344 b 199 335 199 339 199 335 z m 500 0 l 581 0 l 646 86 l 565 86 z m 411 142 l 425 142 l 424 199 l 439 199 l 440 210 l 397 210 l 396 199 l 411 199 z m 308 281 b 292 294 299 281 292 285 b 300 308 292 300 294 306 b 321 315 306 314 313 315 b 331 314 322 315 325 315 l 329 292 b 308 281 322 285 317 281 z m 301 268 b 329 278 314 268 322 272 b 338 283 332 281 335 281 b 344 292 342 285 346 289 l 344 324 b 336 351 346 335 342 344 b 314 360 331 357 324 358 b 286 342 308 360 292 347 b 288 339 283 336 288 339 b 310 344 293 343 300 344 b 329 325 324 344 329 339 b 318 326 325 325 322 326 b 288 317 307 326 296 324 b 276 294 279 311 276 303 b 285 275 276 286 281 281 b 301 268 290 269 296 268 z m 465 142 l 478 142 l 478 168 l 497 210 l 482 210 l 472 183 l 464 210 l 449 210 l 465 168 z m 279 356 b 292 378 281 356 293 376 b 279 393 285 381 279 386 b 276 393 278 394 276 393 b 274 386 275 392 274 390 l 267 374 b 279 356 265 365 274 358 z m 508 142 l 521 142 l 522 169 l 531 169 b 551 190 542 169 551 176 b 532 210 551 200 547 210 l 508 210 z m 51 540 l 58 540 l 58 560 l 74 560 l 72 565 l 58 565 l 58 576 l 75 576 l 74 583 l 51 583 z m 528 181 l 521 181 l 521 200 l 528 200 b 538 190 535 200 538 197 b 528 181 538 183 533 181 z m 640 0 l 719 0 l 786 86 l 707 86 z m 93 540 b 107 561 103 540 107 547 b 93 583 107 576 103 583 b 78 561 82 583 79 576 b 93 540 78 547 83 540 z m 93 544 b 86 561 88 544 86 547 b 93 578 88 576 88 578 b 100 561 96 578 100 576 b 93 544 100 547 96 544 z m 356 269 b 367 272 356 269 364 269 b 369 281 371 275 369 281 l 371 335 b 378 343 371 339 374 340 b 389 347 382 344 385 347 b 400 343 393 347 396 344 b 404 332 403 340 404 336 l 406 269 b 417 272 406 269 414 269 b 422 281 421 276 422 281 l 422 335 b 428 343 421 339 425 340 b 439 347 432 344 435 347 b 457 325 450 347 457 340 l 457 281 b 458 274 457 281 457 275 b 472 269 463 269 472 269 l 472 328 b 465 351 471 339 471 347 b 443 360 460 357 451 360 b 428 357 439 360 433 358 b 418 349 424 353 419 351 b 392 360 413 356 406 360 b 369 349 383 360 374 356 b 357 339 367 343 360 342 l 356 333 z m 565 142 l 603 142 l 603 153 l 578 153 l 578 172 l 599 172 l 600 183 l 579 183 l 578 199 l 601 199 l 601 210 l 565 210 z m 617 142 l 629 142 l 631 157 l 617 157 z m 113 540 l 121 540 l 121 558 l 126 558 b 132 551 131 558 133 557 b 133 543 133 549 133 547 l 133 540 l 142 540 b 140 543 142 542 140 542 l 140 553 b 133 561 139 558 136 561 b 139 572 139 561 140 567 b 128 583 140 581 135 583 l 113 583 z m 125 564 l 121 564 l 121 578 l 126 578 b 133 572 131 578 133 575 b 125 564 133 567 129 564 z m 175 540 b 189 556 185 540 188 547 l 182 556 b 174 544 181 551 179 544 b 168 561 169 544 168 549 b 175 578 168 575 169 578 b 182 569 179 578 182 575 l 189 569 b 174 583 189 575 186 583 b 160 561 163 583 161 576 b 175 540 160 547 163 540 z m 42 625 l 54 625 l 60 649 l 67 649 b 89 667 76 649 86 653 b 76 683 89 675 88 683 l 54 683 z m 782 0 l 850 0 l 850 86 l 847 86 z m 67 657 l 61 657 l 64 675 l 69 675 b 76 667 76 675 78 672 b 67 657 75 660 71 657 z m 668 142 b 690 168 685 142 689 153 l 675 168 b 667 151 675 153 672 151 b 658 175 663 151 658 156 b 667 201 658 194 660 201 b 675 186 674 201 675 197 l 688 186 b 668 211 689 197 686 211 b 644 176 646 211 646 197 b 668 142 644 156 646 142 z m 206 540 b 222 561 217 540 221 547 b 206 583 222 576 215 583 b 193 561 196 583 194 576 b 206 540 193 547 196 540 z m 206 544 b 200 561 203 544 200 547 b 206 578 200 576 203 578 b 214 561 210 578 214 576 b 206 544 213 547 210 544 z m 513 269 b 542 282 518 268 532 276 b 542 285 544 283 547 289 b 524 282 535 283 531 282 b 506 289 517 282 510 283 b 496 311 499 293 497 301 l 560 311 b 561 322 560 315 561 318 b 549 349 561 333 557 342 b 522 360 543 357 533 360 b 493 349 510 360 501 356 b 481 314 485 339 481 326 b 493 281 479 299 483 289 b 513 269 499 275 504 269 z m 90 625 l 124 625 l 126 635 l 104 635 l 106 650 l 126 650 l 131 660 l 110 660 l 113 674 l 133 674 l 135 683 l 101 683 z m 544 324 l 496 324 b 506 340 496 331 500 335 b 522 347 508 344 515 347 b 540 340 531 347 535 343 b 544 324 544 335 544 331 z m 228 540 l 233 540 l 233 576 l 243 540 l 247 540 l 257 576 l 256 540 l 263 540 l 263 583 l 253 583 l 246 551 l 244 551 l 238 583 l 228 583 z m 725 142 b 749 176 746 142 749 156 b 724 211 749 197 746 211 b 701 176 704 211 701 197 b 725 142 701 156 704 142 z m 725 151 b 717 176 717 151 717 158 b 725 201 717 194 717 201 b 735 176 733 201 735 194 b 725 151 735 158 733 151 z m 133 625 l 146 625 l 151 650 l 158 650 b 164 642 163 650 164 647 l 161 631 b 161 625 160 628 160 626 l 175 625 b 174 635 172 626 172 631 b 168 653 176 649 176 653 b 182 668 174 656 181 660 b 168 683 183 678 178 683 l 146 683 z m 158 658 l 153 658 l 156 675 l 161 675 b 168 667 168 675 169 672 b 158 658 168 660 163 658 z m 271 540 l 278 540 l 279 576 l 286 540 l 292 540 l 303 576 l 301 540 l 308 540 l 307 583 l 296 583 l 289 551 l 281 583 l 271 583 z m 626 281 b 610 294 615 281 610 285 b 618 308 610 300 613 306 b 638 315 624 314 629 315 b 647 314 639 315 643 315 l 646 292 b 626 281 642 285 635 281 z m 201 624 b 225 642 213 624 224 628 b 217 657 226 649 225 653 l 208 661 b 204 669 204 664 203 665 b 213 676 206 674 206 676 b 218 667 217 676 218 674 l 228 667 l 231 668 b 215 685 232 681 225 685 b 192 668 203 685 196 681 b 203 650 190 658 193 653 b 211 640 211 647 213 644 b 203 632 213 635 207 632 b 199 642 196 632 197 635 l 197 643 l 186 643 l 185 640 b 201 624 182 631 186 624 z m 763 142 l 776 142 l 776 197 l 788 142 l 799 142 l 813 197 l 811 142 l 824 142 l 824 210 l 804 210 l 793 161 l 783 210 l 764 210 z m 14 747 l 15 747 l 83 833 l 14 833 z m 314 540 l 338 540 l 338 547 l 321 547 l 321 560 l 338 560 l 338 565 l 321 565 l 322 576 l 339 576 l 338 583 l 314 583 z m 621 268 b 646 278 632 268 642 272 b 656 283 650 281 653 281 b 663 292 660 285 664 289 l 663 324 b 654 351 664 335 660 344 b 632 360 650 357 642 358 b 604 342 626 360 608 347 b 604 339 601 336 604 339 b 628 344 611 343 618 344 b 646 325 642 344 646 339 b 636 326 643 325 640 326 b 606 317 624 326 613 324 b 596 294 599 311 594 303 b 601 275 594 286 597 281 b 621 268 607 269 614 268 z m 600 268 b 597 272 600 268 603 272 b 585 297 590 274 585 285 l 585 482 b 572 478 585 482 575 481 b 569 468 569 475 569 468 l 571 294 b 600 268 569 276 581 268 z m 344 540 l 351 540 l 351 558 l 356 558 b 363 551 361 558 364 557 b 364 543 364 549 363 547 b 364 540 364 542 365 542 l 372 540 b 371 543 372 542 369 542 b 369 553 369 547 371 550 b 364 561 369 558 368 561 b 369 572 368 561 369 567 b 360 583 369 581 365 583 l 344 583 z m 356 564 l 350 564 l 351 578 l 356 578 b 363 572 361 578 364 575 b 356 564 363 567 361 564 z m 249 624 b 278 656 268 624 272 636 b 263 685 282 672 282 685 b 236 656 246 685 242 672 b 249 624 232 636 232 624 z m 253 632 b 247 656 244 632 244 639 b 261 676 251 669 254 676 b 264 656 268 676 268 669 b 253 632 261 639 260 632 z m 389 540 b 403 556 401 540 403 547 l 397 556 b 389 544 396 551 396 544 b 383 561 385 544 383 549 b 389 578 383 575 385 578 b 397 569 394 578 397 575 l 404 569 b 390 583 403 575 403 583 b 376 561 379 583 378 576 b 389 540 376 547 379 540 z m 408 540 l 417 540 l 415 583 l 407 583 z m 282 625 l 293 625 l 301 667 l 308 625 l 321 625 l 335 683 l 322 683 l 314 643 l 308 683 l 294 683 z m 78 747 l 157 747 l 222 833 l 143 833 z m 419 540 l 426 540 l 429 550 l 442 550 l 444 540 l 451 540 l 439 583 l 431 583 z m 431 557 l 436 576 l 440 557 z m 597 406 l 594 403 b 649 425 615 411 628 415 b 657 433 651 425 654 431 b 664 439 660 433 665 439 l 611 418 b 601 410 608 417 604 414 b 597 406 600 410 594 406 z m 483 535 l 482 532 b 489 540 488 532 490 535 l 490 549 l 483 549 l 483 540 l 485 540 b 483 535 485 536 485 535 z m 454 540 l 478 540 l 478 547 l 461 547 l 461 583 l 454 583 z m 329 625 l 343 625 l 347 636 l 363 636 l 363 625 l 376 625 l 372 683 l 358 683 z m 351 647 l 364 674 l 364 647 z m 385 625 l 418 625 l 421 635 l 399 635 l 410 683 l 397 683 z m 510 540 l 517 540 l 517 558 l 522 558 b 535 569 531 558 533 564 b 522 583 535 578 531 583 l 510 583 z m 521 564 l 515 564 l 517 578 l 521 578 b 529 569 526 578 528 575 b 521 564 528 565 524 564 z m 539 540 l 563 540 l 563 547 l 546 547 l 546 583 l 539 583 z m 218 747 l 297 747 l 363 833 l 285 833 z m 568 540 l 592 540 l 592 547 l 575 547 l 575 560 l 590 560 l 589 565 l 575 565 l 575 576 l 592 576 l 590 583 l 568 583 z m 469 624 b 493 642 479 624 490 626 l 501 683 l 489 683 l 482 642 b 471 632 479 636 476 632 b 467 642 467 632 464 636 l 475 683 l 463 683 l 456 642 b 469 624 451 626 460 624 z m 593 540 l 600 540 l 604 550 l 615 550 l 618 540 l 625 540 l 614 583 l 604 583 z m 606 557 l 611 576 l 615 557 z m 515 624 b 542 642 529 624 539 628 b 533 657 543 649 542 653 l 525 661 b 521 669 519 664 519 665 b 529 676 522 674 522 676 b 533 667 533 676 535 674 l 544 667 l 546 668 b 529 685 549 681 542 685 b 508 668 519 685 513 681 b 519 650 507 658 510 653 b 528 640 528 647 529 644 b 519 632 529 635 524 632 b 514 642 513 632 514 635 l 514 643 l 501 643 l 501 640 b 515 624 499 631 503 624 z m 639 540 b 654 551 650 540 656 543 b 646 564 654 558 651 561 l 642 565 b 635 574 636 567 635 568 b 639 578 636 576 638 578 b 646 574 644 578 647 576 l 646 572 l 653 572 l 653 574 b 640 583 654 576 651 583 b 628 572 632 583 628 581 b 636 560 628 565 632 561 l 642 558 b 649 550 646 557 649 556 b 640 544 649 549 644 544 b 635 551 636 544 635 547 l 635 553 l 628 553 b 639 540 628 547 629 540 z m 661 540 l 685 540 l 685 547 l 668 547 l 668 560 l 683 560 l 683 565 l 668 565 l 669 576 l 683 576 l 682 583 l 661 583 z m 549 625 l 582 625 l 585 635 l 563 635 l 564 650 l 585 650 l 589 660 l 568 660 l 572 674 l 592 674 l 594 683 l 561 683 z m 360 747 l 438 747 l 504 833 l 425 833 z m 710 540 l 718 540 l 728 583 l 721 583 l 714 549 l 706 583 l 699 583 z m 731 540 l 738 540 l 738 583 l 731 583 z m 635 624 b 661 656 653 624 657 636 b 649 685 667 672 667 685 b 621 656 629 685 625 672 b 635 624 618 636 615 624 z m 636 632 b 632 656 629 632 629 639 b 646 676 636 669 639 676 b 649 656 653 676 653 669 b 636 632 646 639 644 632 z m 758 540 b 771 551 767 540 772 543 b 763 564 771 558 769 561 l 758 565 b 751 574 754 567 751 568 b 758 578 753 576 754 578 b 763 574 761 578 764 576 l 763 572 l 771 572 l 771 574 b 757 583 772 576 769 583 b 744 572 749 583 744 581 b 754 560 744 565 749 561 l 758 558 b 765 550 764 557 765 556 b 757 544 765 549 763 544 b 751 551 753 544 751 547 l 751 553 l 744 553 b 758 540 744 547 746 540 z m 778 540 l 785 540 l 785 583 l 778 583 z m 797 540 l 806 540 l 807 576 l 817 576 l 815 583 l 788 583 l 789 576 l 799 576 z m 667 625 l 678 625 l 686 667 l 693 625 l 707 625 l 719 683 l 708 683 l 700 643 l 693 683 l 679 683 z m 719 625 l 751 625 l 756 635 l 733 635 l 743 683 l 731 683 z m 499 747 l 579 747 l 644 833 l 564 833 z m 804 625 l 815 625 l 818 635 l 807 635 z m 765 625 l 778 625 l 783 649 l 806 683 l 793 683 l 781 661 l 776 683 l 763 683 l 771 649 z m 810 642 l 818 642 l 825 665 l 828 683 l 817 683 l 813 665 z m 639 747 l 719 747 l 785 833 l 706 833 z m 781 747 l 849 747 l 850 833 l 846 833 z "},"1":{"ha":864,"x_min":0,"x_max":0,"o":"m 210 367 b 224 375 214 368 222 372 b 226 385 226 378 226 382 b 221 390 225 386 221 389 l 222 392 l 224 392 b 483 456 256 400 442 435 b 496 461 489 457 493 460 l 501 467 b 499 467 503 468 501 468 b 233 403 451 447 265 414 b 224 397 228 401 226 399 l 215 390 b 217 381 213 386 213 383 b 215 372 219 376 218 374 b 210 368 214 372 211 369 b 210 367 210 368 208 367 z m 15 0 l 17 0 l 83 86 l 15 86 z m 78 0 l 158 0 l 224 86 l 144 86 z m 44 142 l 58 142 l 58 190 l 75 142 l 90 142 l 90 210 l 79 210 l 78 164 l 63 210 l 46 210 z m 101 142 l 117 142 l 118 157 l 136 157 l 140 142 l 154 142 l 138 210 l 121 210 z m 218 0 l 299 0 l 364 86 l 286 86 z m 121 168 l 128 199 l 135 168 z m 167 142 l 178 142 l 179 197 l 192 142 l 201 142 l 214 197 l 213 142 l 226 142 l 226 210 l 207 210 l 196 161 l 188 210 l 167 210 z m 243 142 l 282 142 l 281 153 l 256 153 l 256 172 l 279 172 l 281 183 l 257 183 l 256 199 l 279 199 l 281 210 l 243 210 z m 360 0 l 439 0 l 506 86 l 425 86 z m 294 142 l 333 142 l 333 153 l 308 153 l 308 210 l 296 210 z m 342 142 l 354 142 l 358 157 l 376 157 l 379 142 l 393 142 l 376 210 l 358 210 z m 361 168 l 365 199 l 368 199 l 374 168 z m 199 335 l 199 269 b 211 272 199 269 208 269 b 215 281 215 275 215 281 l 215 335 b 222 343 217 339 219 342 b 235 347 226 344 231 347 b 249 340 242 347 244 344 b 253 322 251 336 253 331 l 253 281 b 254 272 253 281 254 275 b 269 269 258 268 269 269 l 268 325 b 240 360 268 349 258 360 b 215 347 229 360 219 356 b 201 340 211 343 208 344 b 199 335 199 339 199 335 z m 500 0 l 581 0 l 646 86 l 565 86 z m 411 142 l 425 142 l 424 199 l 439 199 l 440 210 l 397 210 l 396 199 l 411 199 z m 308 281 b 292 294 299 281 292 285 b 300 308 292 300 294 306 b 321 315 306 314 313 315 b 331 314 322 315 325 315 l 329 292 b 308 281 322 285 317 281 z m 301 268 b 329 278 314 268 322 272 b 338 283 332 281 335 281 b 344 292 342 285 346 289 l 344 324 b 336 351 346 335 342 344 b 314 360 331 357 324 358 b 286 342 308 360 292 347 b 288 339 283 336 288 339 b 310 344 293 343 300 344 b 329 325 324 344 329 339 b 318 326 325 325 322 326 b 288 317 307 326 296 324 b 276 294 279 311 276 303 b 285 275 276 286 281 281 b 301 268 290 269 296 268 z m 465 142 l 478 142 l 478 168 l 497 210 l 482 210 l 472 183 l 464 210 l 449 210 l 465 168 z m 279 356 b 292 378 281 356 293 376 b 279 393 285 381 279 386 b 276 393 278 394 276 393 b 274 386 275 392 274 390 l 267 374 b 279 356 265 365 274 358 z m 508 142 l 521 142 l 522 169 l 531 169 b 551 190 542 169 551 176 b 532 210 551 200 547 210 l 508 210 z m 51 540 l 58 540 l 58 560 l 74 560 l 72 565 l 58 565 l 58 576 l 75 576 l 74 583 l 51 583 z m 528 181 l 521 181 l 521 200 l 528 200 b 538 190 535 200 538 197 b 528 181 538 183 533 181 z m 640 0 l 719 0 l 786 86 l 707 86 z m 93 540 b 107 561 103 540 107 547 b 93 583 107 576 103 583 b 78 561 82 583 79 576 b 93 540 78 547 83 540 z m 93 544 b 86 561 88 544 86 547 b 93 578 88 576 88 578 b 100 561 96 578 100 576 b 93 544 100 547 96 544 z m 356 269 b 367 272 356 269 364 269 b 369 281 371 275 369 281 l 371 335 b 378 343 371 339 374 340 b 389 347 382 344 385 347 b 400 343 393 347 396 344 b 404 332 403 340 404 336 l 406 269 b 417 272 406 269 414 269 b 422 281 421 276 422 281 l 422 335 b 428 343 421 339 425 340 b 439 347 432 344 435 347 b 457 325 450 347 457 340 l 457 281 b 458 274 457 281 457 275 b 472 269 463 269 472 269 l 472 328 b 465 351 471 339 471 347 b 443 360 460 357 451 360 b 428 357 439 360 433 358 b 418 349 424 353 419 351 b 392 360 413 356 406 360 b 369 349 383 360 374 356 b 357 339 367 343 360 342 l 356 333 z m 565 142 l 603 142 l 603 153 l 578 153 l 578 172 l 599 172 l 600 183 l 579 183 l 578 199 l 601 199 l 601 210 l 565 210 z m 617 142 l 629 142 l 631 157 l 617 157 z m 113 540 l 121 540 l 121 558 l 126 558 b 132 551 131 558 133 557 b 133 543 133 549 133 547 l 133 540 l 142 540 b 140 543 142 542 140 542 l 140 553 b 133 561 139 558 136 561 b 139 572 139 561 140 567 b 128 583 140 581 135 583 l 113 583 z m 125 564 l 121 564 l 121 578 l 126 578 b 133 572 131 578 133 575 b 125 564 133 567 129 564 z m 175 540 b 189 556 185 540 188 547 l 182 556 b 174 544 181 551 179 544 b 168 561 169 544 168 549 b 175 578 168 575 169 578 b 182 569 179 578 182 575 l 189 569 b 174 583 189 575 186 583 b 160 561 163 583 161 576 b 175 540 160 547 163 540 z m 42 625 l 54 625 l 60 649 l 67 649 b 89 667 76 649 86 653 b 76 683 89 675 88 683 l 54 683 z m 782 0 l 850 0 l 850 86 l 847 86 z m 67 657 l 61 657 l 64 675 l 69 675 b 76 667 76 675 78 672 b 67 657 75 660 71 657 z m 668 142 b 690 168 685 142 689 153 l 675 168 b 667 151 675 153 672 151 b 658 175 663 151 658 156 b 667 201 658 194 660 201 b 675 186 674 201 675 197 l 688 186 b 668 211 689 197 686 211 b 644 176 646 211 646 197 b 668 142 644 156 646 142 z m 206 540 b 222 561 217 540 221 547 b 206 583 222 576 215 583 b 193 561 196 583 194 576 b 206 540 193 547 196 540 z m 206 544 b 200 561 203 544 200 547 b 206 578 200 576 203 578 b 214 561 210 578 214 576 b 206 544 213 547 210 544 z m 513 269 b 542 282 518 268 532 276 b 542 285 544 283 547 289 b 524 282 535 283 531 282 b 506 289 517 282 510 283 b 496 311 499 293 497 301 l 560 311 b 561 322 560 315 561 318 b 549 349 561 333 557 342 b 522 360 543 357 533 360 b 493 349 510 360 501 356 b 481 314 485 339 481 326 b 493 281 479 299 483 289 b 513 269 499 275 504 269 z m 90 625 l 124 625 l 126 635 l 104 635 l 106 650 l 126 650 l 131 660 l 110 660 l 113 674 l 133 674 l 135 683 l 101 683 z m 544 324 l 496 324 b 506 340 496 331 500 335 b 522 347 508 344 515 347 b 540 340 531 347 535 343 b 544 324 544 335 544 331 z m 228 540 l 233 540 l 233 576 l 243 540 l 247 540 l 257 576 l 256 540 l 263 540 l 263 583 l 253 583 l 246 551 l 244 551 l 238 583 l 228 583 z m 725 142 b 749 176 746 142 749 156 b 724 211 749 197 746 211 b 701 176 704 211 701 197 b 725 142 701 156 704 142 z m 725 151 b 717 176 717 151 717 158 b 725 201 717 194 717 201 b 735 176 733 201 735 194 b 725 151 735 158 733 151 z m 133 625 l 146 625 l 151 650 l 158 650 b 164 642 163 650 164 647 l 161 631 b 161 625 160 628 160 626 l 175 625 b 174 635 172 626 172 631 b 168 653 176 649 176 653 b 182 668 174 656 181 660 b 168 683 183 678 178 683 l 146 683 z m 158 658 l 153 658 l 156 675 l 161 675 b 168 667 168 675 169 672 b 158 658 168 660 163 658 z m 271 540 l 278 540 l 279 576 l 286 540 l 292 540 l 303 576 l 301 540 l 308 540 l 307 583 l 296 583 l 289 551 l 281 583 l 271 583 z m 626 281 b 610 294 615 281 610 285 b 618 308 610 300 613 306 b 638 315 624 314 629 315 b 647 314 639 315 643 315 l 646 292 b 626 281 642 285 635 281 z m 201 624 b 225 642 213 624 224 628 b 217 657 226 649 225 653 l 208 661 b 204 669 204 664 203 665 b 213 676 206 674 206 676 b 218 667 217 676 218 674 l 228 667 l 231 668 b 215 685 232 681 225 685 b 192 668 203 685 196 681 b 203 650 190 658 193 653 b 211 640 211 647 213 644 b 203 632 213 635 207 632 b 199 642 196 632 197 635 l 197 643 l 186 643 l 185 640 b 201 624 182 631 186 624 z m 763 142 l 776 142 l 776 197 l 788 142 l 799 142 l 813 197 l 811 142 l 824 142 l 824 210 l 804 210 l 793 161 l 783 210 l 764 210 z m 14 747 l 15 747 l 83 833 l 14 833 z m 314 540 l 338 540 l 338 547 l 321 547 l 321 560 l 338 560 l 338 565 l 321 565 l 322 576 l 339 576 l 338 583 l 314 583 z m 621 268 b 646 278 632 268 642 272 b 656 283 650 281 653 281 b 663 292 660 285 664 289 l 663 324 b 654 351 664 335 660 344 b 632 360 650 357 642 358 b 604 342 626 360 608 347 b 604 339 601 336 604 339 b 628 344 611 343 618 344 b 646 325 642 344 646 339 b 636 326 643 325 640 326 b 606 317 624 326 613 324 b 596 294 599 311 594 303 b 601 275 594 286 597 281 b 621 268 607 269 614 268 z m 600 268 b 597 272 600 268 603 272 b 585 297 590 274 585 285 l 585 482 b 572 478 585 482 575 481 b 569 468 569 475 569 468 l 571 294 b 600 268 569 276 581 268 z m 344 540 l 351 540 l 351 558 l 356 558 b 363 551 361 558 364 557 b 364 543 364 549 363 547 b 364 540 364 542 365 542 l 372 540 b 371 543 372 542 369 542 b 369 553 369 547 371 550 b 364 561 369 558 368 561 b 369 572 368 561 369 567 b 360 583 369 581 365 583 l 344 583 z m 356 564 l 350 564 l 351 578 l 356 578 b 363 572 361 578 364 575 b 356 564 363 567 361 564 z m 249 624 b 278 656 268 624 272 636 b 263 685 282 672 282 685 b 236 656 246 685 242 672 b 249 624 232 636 232 624 z m 253 632 b 247 656 244 632 244 639 b 261 676 251 669 254 676 b 264 656 268 676 268 669 b 253 632 261 639 260 632 z m 389 540 b 403 556 401 540 403 547 l 397 556 b 389 544 396 551 396 544 b 383 561 385 544 383 549 b 389 578 383 575 385 578 b 397 569 394 578 397 575 l 404 569 b 390 583 403 575 403 583 b 376 561 379 583 378 576 b 389 540 376 547 379 540 z m 408 540 l 417 540 l 415 583 l 407 583 z m 282 625 l 293 625 l 301 667 l 308 625 l 321 625 l 335 683 l 322 683 l 314 643 l 308 683 l 294 683 z m 78 747 l 157 747 l 222 833 l 143 833 z m 419 540 l 426 540 l 429 550 l 442 550 l 444 540 l 451 540 l 439 583 l 431 583 z m 431 557 l 436 576 l 440 557 z m 597 406 l 594 403 b 649 425 615 411 628 415 b 657 433 651 425 654 431 b 664 439 660 433 665 439 l 611 418 b 601 410 608 417 604 414 b 597 406 600 410 594 406 z m 483 535 l 482 532 b 489 540 488 532 490 535 l 490 549 l 483 549 l 483 540 l 485 540 b 483 535 485 536 485 535 z m 454 540 l 478 540 l 478 547 l 461 547 l 461 583 l 454 583 z m 329 625 l 343 625 l 347 636 l 363 636 l 363 625 l 376 625 l 372 683 l 358 683 z m 351 647 l 364 674 l 364 647 z m 385 625 l 418 625 l 421 635 l 399 635 l 410 683 l 397 683 z m 510 540 l 517 540 l 517 558 l 522 558 b 535 569 531 558 533 564 b 522 583 535 578 531 583 l 510 583 z m 521 564 l 515 564 l 517 578 l 521 578 b 529 569 526 578 528 575 b 521 564 528 565 524 564 z m 539 540 l 563 540 l 563 547 l 546 547 l 546 583 l 539 583 z m 218 747 l 297 747 l 363 833 l 285 833 z m 568 540 l 592 540 l 592 547 l 575 547 l 575 560 l 590 560 l 589 565 l 575 565 l 575 576 l 592 576 l 590 583 l 568 583 z m 469 624 b 493 642 479 624 490 626 l 501 683 l 489 683 l 482 642 b 471 632 479 636 476 632 b 467 642 467 632 464 636 l 475 683 l 463 683 l 456 642 b 469 624 451 626 460 624 z m 593 540 l 600 540 l 604 550 l 615 550 l 618 540 l 625 540 l 614 583 l 604 583 z m 606 557 l 611 576 l 615 557 z m 515 624 b 542 642 529 624 539 628 b 533 657 543 649 542 653 l 525 661 b 521 669 519 664 519 665 b 529 676 522 674 522 676 b 533 667 533 676 535 674 l 544 667 l 546 668 b 529 685 549 681 542 685 b 508 668 519 685 513 681 b 519 650 507 658 510 653 b 528 640 528 647 529 644 b 519 632 529 635 524 632 b 514 642 513 632 514 635 l 514 643 l 501 643 l 501 640 b 515 624 499 631 503 624 z m 639 540 b 654 551 650 540 656 543 b 646 564 654 558 651 561 l 642 565 b 635 574 636 567 635 568 b 639 578 636 576 638 578 b 646 574 644 578 647 576 l 646 572 l 653 572 l 653 574 b 640 583 654 576 651 583 b 628 572 632 583 628 581 b 636 560 628 565 632 561 l 642 558 b 649 550 646 557 649 556 b 640 544 649 549 644 544 b 635 551 636 544 635 547 l 635 553 l 628 553 b 639 540 628 547 629 540 z m 661 540 l 685 540 l 685 547 l 668 547 l 668 560 l 683 560 l 683 565 l 668 565 l 669 576 l 683 576 l 682 583 l 661 583 z m 549 625 l 582 625 l 585 635 l 563 635 l 564 650 l 585 650 l 589 660 l 568 660 l 572 674 l 592 674 l 594 683 l 561 683 z m 360 747 l 438 747 l 504 833 l 425 833 z m 710 540 l 718 540 l 728 583 l 721 583 l 714 549 l 706 583 l 699 583 z m 731 540 l 738 540 l 738 583 l 731 583 z m 635 624 b 661 656 653 624 657 636 b 649 685 667 672 667 685 b 621 656 629 685 625 672 b 635 624 618 636 615 624 z m 636 632 b 632 656 629 632 629 639 b 646 676 636 669 639 676 b 649 656 653 676 653 669 b 636 632 646 639 644 632 z m 758 540 b 771 551 767 540 772 543 b 763 564 771 558 769 561 l 758 565 b 751 574 754 567 751 568 b 758 578 753 576 754 578 b 763 574 761 578 764 576 l 763 572 l 771 572 l 771 574 b 757 583 772 576 769 583 b 744 572 749 583 744 581 b 754 560 744 565 749 561 l 758 558 b 765 550 764 557 765 556 b 757 544 765 549 763 544 b 751 551 753 544 751 547 l 751 553 l 744 553 b 758 540 744 547 746 540 z m 778 540 l 785 540 l 785 583 l 778 583 z m 797 540 l 806 540 l 807 576 l 817 576 l 815 583 l 788 583 l 789 576 l 799 576 z m 667 625 l 678 625 l 686 667 l 693 625 l 707 625 l 719 683 l 708 683 l 700 643 l 693 683 l 679 683 z m 719 625 l 751 625 l 756 635 l 733 635 l 743 683 l 731 683 z m 499 747 l 579 747 l 644 833 l 564 833 z m 804 625 l 815 625 l 818 635 l 807 635 z m 765 625 l 778 625 l 783 649 l 806 683 l 793 683 l 781 661 l 776 683 l 763 683 l 771 649 z m 810 642 l 818 642 l 825 665 l 828 683 l 817 683 l 813 665 z m 639 747 l 719 747 l 785 833 l 706 833 z m 781 747 l 849 747 l 850 833 l 846 833 z "},"2":{"ha":864,"x_min":0,"x_max":0,"o":"m 210 367 b 224 375 214 368 222 372 b 226 385 226 378 226 382 b 221 390 225 386 221 389 l 222 392 l 224 392 b 483 456 256 400 442 435 b 496 461 489 457 493 460 l 501 467 b 499 467 503 468 501 468 b 233 403 451 447 265 414 b 224 397 228 401 226 399 l 215 390 b 217 381 213 386 213 383 b 215 372 219 376 218 374 b 210 368 214 372 211 369 b 210 367 210 368 208 367 z m 15 0 l 17 0 l 83 86 l 15 86 z m 78 0 l 158 0 l 224 86 l 144 86 z m 44 142 l 58 142 l 58 190 l 75 142 l 90 142 l 90 210 l 79 210 l 78 164 l 63 210 l 46 210 z m 101 142 l 117 142 l 118 157 l 136 157 l 140 142 l 154 142 l 138 210 l 121 210 z m 218 0 l 299 0 l 364 86 l 286 86 z m 121 168 l 128 199 l 135 168 z m 167 142 l 178 142 l 179 197 l 192 142 l 201 142 l 214 197 l 213 142 l 226 142 l 226 210 l 207 210 l 196 161 l 188 210 l 167 210 z m 243 142 l 282 142 l 281 153 l 256 153 l 256 172 l 279 172 l 281 183 l 257 183 l 256 199 l 279 199 l 281 210 l 243 210 z m 360 0 l 439 0 l 506 86 l 425 86 z m 294 142 l 333 142 l 333 153 l 308 153 l 308 210 l 296 210 z m 342 142 l 354 142 l 358 157 l 376 157 l 379 142 l 393 142 l 376 210 l 358 210 z m 361 168 l 365 199 l 368 199 l 374 168 z m 199 335 l 199 269 b 211 272 199 269 208 269 b 215 281 215 275 215 281 l 215 335 b 222 343 217 339 219 342 b 235 347 226 344 231 347 b 249 340 242 347 244 344 b 253 322 251 336 253 331 l 253 281 b 254 272 253 281 254 275 b 269 269 258 268 269 269 l 268 325 b 240 360 268 349 258 360 b 215 347 229 360 219 356 b 201 340 211 343 208 344 b 199 335 199 339 199 335 z m 500 0 l 581 0 l 646 86 l 565 86 z m 411 142 l 425 142 l 424 199 l 439 199 l 440 210 l 397 210 l 396 199 l 411 199 z m 308 281 b 292 294 299 281 292 285 b 300 308 292 300 294 306 b 321 315 306 314 313 315 b 331 314 322 315 325 315 l 329 292 b 308 281 322 285 317 281 z m 301 268 b 329 278 314 268 322 272 b 338 283 332 281 335 281 b 344 292 342 285 346 289 l 344 324 b 336 351 346 335 342 344 b 314 360 331 357 324 358 b 286 342 308 360 292 347 b 288 339 283 336 288 339 b 310 344 293 343 300 344 b 329 325 324 344 329 339 b 318 326 325 325 322 326 b 288 317 307 326 296 324 b 276 294 279 311 276 303 b 285 275 276 286 281 281 b 301 268 290 269 296 268 z m 465 142 l 478 142 l 478 168 l 497 210 l 482 210 l 472 183 l 464 210 l 449 210 l 465 168 z m 279 356 b 292 378 281 356 293 376 b 279 393 285 381 279 386 b 276 393 278 394 276 393 b 274 386 275 392 274 390 l 267 374 b 279 356 265 365 274 358 z m 508 142 l 521 142 l 522 169 l 531 169 b 551 190 542 169 551 176 b 532 210 551 200 547 210 l 508 210 z m 51 540 l 58 540 l 58 560 l 74 560 l 72 565 l 58 565 l 58 576 l 75 576 l 74 583 l 51 583 z m 528 181 l 521 181 l 521 200 l 528 200 b 538 190 535 200 538 197 b 528 181 538 183 533 181 z m 640 0 l 719 0 l 786 86 l 707 86 z m 93 540 b 107 561 103 540 107 547 b 93 583 107 576 103 583 b 78 561 82 583 79 576 b 93 540 78 547 83 540 z m 93 544 b 86 561 88 544 86 547 b 93 578 88 576 88 578 b 100 561 96 578 100 576 b 93 544 100 547 96 544 z m 356 269 b 367 272 356 269 364 269 b 369 281 371 275 369 281 l 371 335 b 378 343 371 339 374 340 b 389 347 382 344 385 347 b 400 343 393 347 396 344 b 404 332 403 340 404 336 l 406 269 b 417 272 406 269 414 269 b 422 281 421 276 422 281 l 422 335 b 428 343 421 339 425 340 b 439 347 432 344 435 347 b 457 325 450 347 457 340 l 457 281 b 458 274 457 281 457 275 b 472 269 463 269 472 269 l 472 328 b 465 351 471 339 471 347 b 443 360 460 357 451 360 b 428 357 439 360 433 358 b 418 349 424 353 419 351 b 392 360 413 356 406 360 b 369 349 383 360 374 356 b 357 339 367 343 360 342 l 356 333 z m 565 142 l 603 142 l 603 153 l 578 153 l 578 172 l 599 172 l 600 183 l 579 183 l 578 199 l 601 199 l 601 210 l 565 210 z m 617 142 l 629 142 l 631 157 l 617 157 z m 113 540 l 121 540 l 121 558 l 126 558 b 132 551 131 558 133 557 b 133 543 133 549 133 547 l 133 540 l 142 540 b 140 543 142 542 140 542 l 140 553 b 133 561 139 558 136 561 b 139 572 139 561 140 567 b 128 583 140 581 135 583 l 113 583 z m 125 564 l 121 564 l 121 578 l 126 578 b 133 572 131 578 133 575 b 125 564 133 567 129 564 z m 175 540 b 189 556 185 540 188 547 l 182 556 b 174 544 181 551 179 544 b 168 561 169 544 168 549 b 175 578 168 575 169 578 b 182 569 179 578 182 575 l 189 569 b 174 583 189 575 186 583 b 160 561 163 583 161 576 b 175 540 160 547 163 540 z m 42 625 l 54 625 l 60 649 l 67 649 b 89 667 76 649 86 653 b 76 683 89 675 88 683 l 54 683 z m 782 0 l 850 0 l 850 86 l 847 86 z m 67 657 l 61 657 l 64 675 l 69 675 b 76 667 76 675 78 672 b 67 657 75 660 71 657 z m 668 142 b 690 168 685 142 689 153 l 675 168 b 667 151 675 153 672 151 b 658 175 663 151 658 156 b 667 201 658 194 660 201 b 675 186 674 201 675 197 l 688 186 b 668 211 689 197 686 211 b 644 176 646 211 646 197 b 668 142 644 156 646 142 z m 206 540 b 222 561 217 540 221 547 b 206 583 222 576 215 583 b 193 561 196 583 194 576 b 206 540 193 547 196 540 z m 206 544 b 200 561 203 544 200 547 b 206 578 200 576 203 578 b 214 561 210 578 214 576 b 206 544 213 547 210 544 z m 513 269 b 542 282 518 268 532 276 b 542 285 544 283 547 289 b 524 282 535 283 531 282 b 506 289 517 282 510 283 b 496 311 499 293 497 301 l 560 311 b 561 322 560 315 561 318 b 549 349 561 333 557 342 b 522 360 543 357 533 360 b 493 349 510 360 501 356 b 481 314 485 339 481 326 b 493 281 479 299 483 289 b 513 269 499 275 504 269 z m 90 625 l 124 625 l 126 635 l 104 635 l 106 650 l 126 650 l 131 660 l 110 660 l 113 674 l 133 674 l 135 683 l 101 683 z m 544 324 l 496 324 b 506 340 496 331 500 335 b 522 347 508 344 515 347 b 540 340 531 347 535 343 b 544 324 544 335 544 331 z m 228 540 l 233 540 l 233 576 l 243 540 l 247 540 l 257 576 l 256 540 l 263 540 l 263 583 l 253 583 l 246 551 l 244 551 l 238 583 l 228 583 z m 725 142 b 749 176 746 142 749 156 b 724 211 749 197 746 211 b 701 176 704 211 701 197 b 725 142 701 156 704 142 z m 725 151 b 717 176 717 151 717 158 b 725 201 717 194 717 201 b 735 176 733 201 735 194 b 725 151 735 158 733 151 z m 133 625 l 146 625 l 151 650 l 158 650 b 164 642 163 650 164 647 l 161 631 b 161 625 160 628 160 626 l 175 625 b 174 635 172 626 172 631 b 168 653 176 649 176 653 b 182 668 174 656 181 660 b 168 683 183 678 178 683 l 146 683 z m 158 658 l 153 658 l 156 675 l 161 675 b 168 667 168 675 169 672 b 158 658 168 660 163 658 z m 271 540 l 278 540 l 279 576 l 286 540 l 292 540 l 303 576 l 301 540 l 308 540 l 307 583 l 296 583 l 289 551 l 281 583 l 271 583 z m 626 281 b 610 294 615 281 610 285 b 618 308 610 300 613 306 b 638 315 624 314 629 315 b 647 314 639 315 643 315 l 646 292 b 626 281 642 285 635 281 z m 201 624 b 225 642 213 624 224 628 b 217 657 226 649 225 653 l 208 661 b 204 669 204 664 203 665 b 213 676 206 674 206 676 b 218 667 217 676 218 674 l 228 667 l 231 668 b 215 685 232 681 225 685 b 192 668 203 685 196 681 b 203 650 190 658 193 653 b 211 640 211 647 213 644 b 203 632 213 635 207 632 b 199 642 196 632 197 635 l 197 643 l 186 643 l 185 640 b 201 624 182 631 186 624 z m 763 142 l 776 142 l 776 197 l 788 142 l 799 142 l 813 197 l 811 142 l 824 142 l 824 210 l 804 210 l 793 161 l 783 210 l 764 210 z m 14 747 l 15 747 l 83 833 l 14 833 z m 314 540 l 338 540 l 338 547 l 321 547 l 321 560 l 338 560 l 338 565 l 321 565 l 322 576 l 339 576 l 338 583 l 314 583 z m 621 268 b 646 278 632 268 642 272 b 656 283 650 281 653 281 b 663 292 660 285 664 289 l 663 324 b 654 351 664 335 660 344 b 632 360 650 357 642 358 b 604 342 626 360 608 347 b 604 339 601 336 604 339 b 628 344 611 343 618 344 b 646 325 642 344 646 339 b 636 326 643 325 640 326 b 606 317 624 326 613 324 b 596 294 599 311 594 303 b 601 275 594 286 597 281 b 621 268 607 269 614 268 z m 600 268 b 597 272 600 268 603 272 b 585 297 590 274 585 285 l 585 482 b 572 478 585 482 575 481 b 569 468 569 475 569 468 l 571 294 b 600 268 569 276 581 268 z m 344 540 l 351 540 l 351 558 l 356 558 b 363 551 361 558 364 557 b 364 543 364 549 363 547 b 364 540 364 542 365 542 l 372 540 b 371 543 372 542 369 542 b 369 553 369 547 371 550 b 364 561 369 558 368 561 b 369 572 368 561 369 567 b 360 583 369 581 365 583 l 344 583 z m 356 564 l 350 564 l 351 578 l 356 578 b 363 572 361 578 364 575 b 356 564 363 567 361 564 z m 249 624 b 278 656 268 624 272 636 b 263 685 282 672 282 685 b 236 656 246 685 242 672 b 249 624 232 636 232 624 z m 253 632 b 247 656 244 632 244 639 b 261 676 251 669 254 676 b 264 656 268 676 268 669 b 253 632 261 639 260 632 z m 389 540 b 403 556 401 540 403 547 l 397 556 b 389 544 396 551 396 544 b 383 561 385 544 383 549 b 389 578 383 575 385 578 b 397 569 394 578 397 575 l 404 569 b 390 583 403 575 403 583 b 376 561 379 583 378 576 b 389 540 376 547 379 540 z m 408 540 l 417 540 l 415 583 l 407 583 z m 282 625 l 293 625 l 301 667 l 308 625 l 321 625 l 335 683 l 322 683 l 314 643 l 308 683 l 294 683 z m 78 747 l 157 747 l 222 833 l 143 833 z m 419 540 l 426 540 l 429 550 l 442 550 l 444 540 l 451 540 l 439 583 l 431 583 z m 431 557 l 436 576 l 440 557 z m 597 406 l 594 403 b 649 425 615 411 628 415 b 657 433 651 425 654 431 b 664 439 660 433 665 439 l 611 418 b 601 410 608 417 604 414 b 597 406 600 410 594 406 z m 483 535 l 482 532 b 489 540 488 532 490 535 l 490 549 l 483 549 l 483 540 l 485 540 b 483 535 485 536 485 535 z m 454 540 l 478 540 l 478 547 l 461 547 l 461 583 l 454 583 z m 329 625 l 343 625 l 347 636 l 363 636 l 363 625 l 376 625 l 372 683 l 358 683 z m 351 647 l 364 674 l 364 647 z m 385 625 l 418 625 l 421 635 l 399 635 l 410 683 l 397 683 z m 510 540 l 517 540 l 517 558 l 522 558 b 535 569 531 558 533 564 b 522 583 535 578 531 583 l 510 583 z m 521 564 l 515 564 l 517 578 l 521 578 b 529 569 526 578 528 575 b 521 564 528 565 524 564 z m 539 540 l 563 540 l 563 547 l 546 547 l 546 583 l 539 583 z m 218 747 l 297 747 l 363 833 l 285 833 z m 568 540 l 592 540 l 592 547 l 575 547 l 575 560 l 590 560 l 589 565 l 575 565 l 575 576 l 592 576 l 590 583 l 568 583 z m 469 624 b 493 642 479 624 490 626 l 501 683 l 489 683 l 482 642 b 471 632 479 636 476 632 b 467 642 467 632 464 636 l 475 683 l 463 683 l 456 642 b 469 624 451 626 460 624 z m 593 540 l 600 540 l 604 550 l 615 550 l 618 540 l 625 540 l 614 583 l 604 583 z m 606 557 l 611 576 l 615 557 z m 515 624 b 542 642 529 624 539 628 b 533 657 543 649 542 653 l 525 661 b 521 669 519 664 519 665 b 529 676 522 674 522 676 b 533 667 533 676 535 674 l 544 667 l 546 668 b 529 685 549 681 542 685 b 508 668 519 685 513 681 b 519 650 507 658 510 653 b 528 640 528 647 529 644 b 519 632 529 635 524 632 b 514 642 513 632 514 635 l 514 643 l 501 643 l 501 640 b 515 624 499 631 503 624 z m 639 540 b 654 551 650 540 656 543 b 646 564 654 558 651 561 l 642 565 b 635 574 636 567 635 568 b 639 578 636 576 638 578 b 646 574 644 578 647 576 l 646 572 l 653 572 l 653 574 b 640 583 654 576 651 583 b 628 572 632 583 628 581 b 636 560 628 565 632 561 l 642 558 b 649 550 646 557 649 556 b 640 544 649 549 644 544 b 635 551 636 544 635 547 l 635 553 l 628 553 b 639 540 628 547 629 540 z m 661 540 l 685 540 l 685 547 l 668 547 l 668 560 l 683 560 l 683 565 l 668 565 l 669 576 l 683 576 l 682 583 l 661 583 z m 549 625 l 582 625 l 585 635 l 563 635 l 564 650 l 585 650 l 589 660 l 568 660 l 572 674 l 592 674 l 594 683 l 561 683 z m 360 747 l 438 747 l 504 833 l 425 833 z m 710 540 l 718 540 l 728 583 l 721 583 l 714 549 l 706 583 l 699 583 z m 731 540 l 738 540 l 738 583 l 731 583 z m 635 624 b 661 656 653 624 657 636 b 649 685 667 672 667 685 b 621 656 629 685 625 672 b 635 624 618 636 615 624 z m 636 632 b 632 656 629 632 629 639 b 646 676 636 669 639 676 b 649 656 653 676 653 669 b 636 632 646 639 644 632 z m 758 540 b 771 551 767 540 772 543 b 763 564 771 558 769 561 l 758 565 b 751 574 754 567 751 568 b 758 578 753 576 754 578 b 763 574 761 578 764 576 l 763 572 l 771 572 l 771 574 b 757 583 772 576 769 583 b 744 572 749 583 744 581 b 754 560 744 565 749 561 l 758 558 b 765 550 764 557 765 556 b 757 544 765 549 763 544 b 751 551 753 544 751 547 l 751 553 l 744 553 b 758 540 744 547 746 540 z m 778 540 l 785 540 l 785 583 l 778 583 z m 797 540 l 806 540 l 807 576 l 817 576 l 815 583 l 788 583 l 789 576 l 799 576 z m 667 625 l 678 625 l 686 667 l 693 625 l 707 625 l 719 683 l 708 683 l 700 643 l 693 683 l 679 683 z m 719 625 l 751 625 l 756 635 l 733 635 l 743 683 l 731 683 z m 499 747 l 579 747 l 644 833 l 564 833 z m 804 625 l 815 625 l 818 635 l 807 635 z m 765 625 l 778 625 l 783 649 l 806 683 l 793 683 l 781 661 l 776 683 l 763 683 l 771 649 z m 810 642 l 818 642 l 825 665 l 828 683 l 817 683 l 813 665 z m 639 747 l 719 747 l 785 833 l 706 833 z m 781 747 l 849 747 l 850 833 l 846 833 z "},"3":{"ha":864,"x_min":0,"x_max":0,"o":"m 210 367 b 224 375 214 368 222 372 b 226 385 226 378 226 382 b 221 390 225 386 221 389 l 222 392 l 224 392 b 483 456 256 400 442 435 b 496 461 489 457 493 460 l 501 467 b 499 467 503 468 501 468 b 233 403 451 447 265 414 b 224 397 228 401 226 399 l 215 390 b 217 381 213 386 213 383 b 215 372 219 376 218 374 b 210 368 214 372 211 369 b 210 367 210 368 208 367 z m 15 0 l 17 0 l 83 86 l 15 86 z m 78 0 l 158 0 l 224 86 l 144 86 z m 44 142 l 58 142 l 58 190 l 75 142 l 90 142 l 90 210 l 79 210 l 78 164 l 63 210 l 46 210 z m 101 142 l 117 142 l 118 157 l 136 157 l 140 142 l 154 142 l 138 210 l 121 210 z m 218 0 l 299 0 l 364 86 l 286 86 z m 121 168 l 128 199 l 135 168 z m 167 142 l 178 142 l 179 197 l 192 142 l 201 142 l 214 197 l 213 142 l 226 142 l 226 210 l 207 210 l 196 161 l 188 210 l 167 210 z m 243 142 l 282 142 l 281 153 l 256 153 l 256 172 l 279 172 l 281 183 l 257 183 l 256 199 l 279 199 l 281 210 l 243 210 z m 360 0 l 439 0 l 506 86 l 425 86 z m 294 142 l 333 142 l 333 153 l 308 153 l 308 210 l 296 210 z m 342 142 l 354 142 l 358 157 l 376 157 l 379 142 l 393 142 l 376 210 l 358 210 z m 361 168 l 365 199 l 368 199 l 374 168 z m 199 335 l 199 269 b 211 272 199 269 208 269 b 215 281 215 275 215 281 l 215 335 b 222 343 217 339 219 342 b 235 347 226 344 231 347 b 249 340 242 347 244 344 b 253 322 251 336 253 331 l 253 281 b 254 272 253 281 254 275 b 269 269 258 268 269 269 l 268 325 b 240 360 268 349 258 360 b 215 347 229 360 219 356 b 201 340 211 343 208 344 b 199 335 199 339 199 335 z m 500 0 l 581 0 l 646 86 l 565 86 z m 411 142 l 425 142 l 424 199 l 439 199 l 440 210 l 397 210 l 396 199 l 411 199 z m 308 281 b 292 294 299 281 292 285 b 300 308 292 300 294 306 b 321 315 306 314 313 315 b 331 314 322 315 325 315 l 329 292 b 308 281 322 285 317 281 z m 301 268 b 329 278 314 268 322 272 b 338 283 332 281 335 281 b 344 292 342 285 346 289 l 344 324 b 336 351 346 335 342 344 b 314 360 331 357 324 358 b 286 342 308 360 292 347 b 288 339 283 336 288 339 b 310 344 293 343 300 344 b 329 325 324 344 329 339 b 318 326 325 325 322 326 b 288 317 307 326 296 324 b 276 294 279 311 276 303 b 285 275 276 286 281 281 b 301 268 290 269 296 268 z m 465 142 l 478 142 l 478 168 l 497 210 l 482 210 l 472 183 l 464 210 l 449 210 l 465 168 z m 279 356 b 292 378 281 356 293 376 b 279 393 285 381 279 386 b 276 393 278 394 276 393 b 274 386 275 392 274 390 l 267 374 b 279 356 265 365 274 358 z m 508 142 l 521 142 l 522 169 l 531 169 b 551 190 542 169 551 176 b 532 210 551 200 547 210 l 508 210 z m 51 540 l 58 540 l 58 560 l 74 560 l 72 565 l 58 565 l 58 576 l 75 576 l 74 583 l 51 583 z m 528 181 l 521 181 l 521 200 l 528 200 b 538 190 535 200 538 197 b 528 181 538 183 533 181 z m 640 0 l 719 0 l 786 86 l 707 86 z m 93 540 b 107 561 103 540 107 547 b 93 583 107 576 103 583 b 78 561 82 583 79 576 b 93 540 78 547 83 540 z m 93 544 b 86 561 88 544 86 547 b 93 578 88 576 88 578 b 100 561 96 578 100 576 b 93 544 100 547 96 544 z m 356 269 b 367 272 356 269 364 269 b 369 281 371 275 369 281 l 371 335 b 378 343 371 339 374 340 b 389 347 382 344 385 347 b 400 343 393 347 396 344 b 404 332 403 340 404 336 l 406 269 b 417 272 406 269 414 269 b 422 281 421 276 422 281 l 422 335 b 428 343 421 339 425 340 b 439 347 432 344 435 347 b 457 325 450 347 457 340 l 457 281 b 458 274 457 281 457 275 b 472 269 463 269 472 269 l 472 328 b 465 351 471 339 471 347 b 443 360 460 357 451 360 b 428 357 439 360 433 358 b 418 349 424 353 419 351 b 392 360 413 356 406 360 b 369 349 383 360 374 356 b 357 339 367 343 360 342 l 356 333 z m 565 142 l 603 142 l 603 153 l 578 153 l 578 172 l 599 172 l 600 183 l 579 183 l 578 199 l 601 199 l 601 210 l 565 210 z m 617 142 l 629 142 l 631 157 l 617 157 z m 113 540 l 121 540 l 121 558 l 126 558 b 132 551 131 558 133 557 b 133 543 133 549 133 547 l 133 540 l 142 540 b 140 543 142 542 140 542 l 140 553 b 133 561 139 558 136 561 b 139 572 139 561 140 567 b 128 583 140 581 135 583 l 113 583 z m 125 564 l 121 564 l 121 578 l 126 578 b 133 572 131 578 133 575 b 125 564 133 567 129 564 z m 175 540 b 189 556 185 540 188 547 l 182 556 b 174 544 181 551 179 544 b 168 561 169 544 168 549 b 175 578 168 575 169 578 b 182 569 179 578 182 575 l 189 569 b 174 583 189 575 186 583 b 160 561 163 583 161 576 b 175 540 160 547 163 540 z m 42 625 l 54 625 l 60 649 l 67 649 b 89 667 76 649 86 653 b 76 683 89 675 88 683 l 54 683 z m 782 0 l 850 0 l 850 86 l 847 86 z m 67 657 l 61 657 l 64 675 l 69 675 b 76 667 76 675 78 672 b 67 657 75 660 71 657 z m 668 142 b 690 168 685 142 689 153 l 675 168 b 667 151 675 153 672 151 b 658 175 663 151 658 156 b 667 201 658 194 660 201 b 675 186 674 201 675 197 l 688 186 b 668 211 689 197 686 211 b 644 176 646 211 646 197 b 668 142 644 156 646 142 z m 206 540 b 222 561 217 540 221 547 b 206 583 222 576 215 583 b 193 561 196 583 194 576 b 206 540 193 547 196 540 z m 206 544 b 200 561 203 544 200 547 b 206 578 200 576 203 578 b 214 561 210 578 214 576 b 206 544 213 547 210 544 z m 513 269 b 542 282 518 268 532 276 b 542 285 544 283 547 289 b 524 282 535 283 531 282 b 506 289 517 282 510 283 b 496 311 499 293 497 301 l 560 311 b 561 322 560 315 561 318 b 549 349 561 333 557 342 b 522 360 543 357 533 360 b 493 349 510 360 501 356 b 481 314 485 339 481 326 b 493 281 479 299 483 289 b 513 269 499 275 504 269 z m 90 625 l 124 625 l 126 635 l 104 635 l 106 650 l 126 650 l 131 660 l 110 660 l 113 674 l 133 674 l 135 683 l 101 683 z m 544 324 l 496 324 b 506 340 496 331 500 335 b 522 347 508 344 515 347 b 540 340 531 347 535 343 b 544 324 544 335 544 331 z m 228 540 l 233 540 l 233 576 l 243 540 l 247 540 l 257 576 l 256 540 l 263 540 l 263 583 l 253 583 l 246 551 l 244 551 l 238 583 l 228 583 z m 725 142 b 749 176 746 142 749 156 b 724 211 749 197 746 211 b 701 176 704 211 701 197 b 725 142 701 156 704 142 z m 725 151 b 717 176 717 151 717 158 b 725 201 717 194 717 201 b 735 176 733 201 735 194 b 725 151 735 158 733 151 z m 133 625 l 146 625 l 151 650 l 158 650 b 164 642 163 650 164 647 l 161 631 b 161 625 160 628 160 626 l 175 625 b 174 635 172 626 172 631 b 168 653 176 649 176 653 b 182 668 174 656 181 660 b 168 683 183 678 178 683 l 146 683 z m 158 658 l 153 658 l 156 675 l 161 675 b 168 667 168 675 169 672 b 158 658 168 660 163 658 z m 271 540 l 278 540 l 279 576 l 286 540 l 292 540 l 303 576 l 301 540 l 308 540 l 307 583 l 296 583 l 289 551 l 281 583 l 271 583 z m 626 281 b 610 294 615 281 610 285 b 618 308 610 300 613 306 b 638 315 624 314 629 315 b 647 314 639 315 643 315 l 646 292 b 626 281 642 285 635 281 z m 201 624 b 225 642 213 624 224 628 b 217 657 226 649 225 653 l 208 661 b 204 669 204 664 203 665 b 213 676 206 674 206 676 b 218 667 217 676 218 674 l 228 667 l 231 668 b 215 685 232 681 225 685 b 192 668 203 685 196 681 b 203 650 190 658 193 653 b 211 640 211 647 213 644 b 203 632 213 635 207 632 b 199 642 196 632 197 635 l 197 643 l 186 643 l 185 640 b 201 624 182 631 186 624 z m 763 142 l 776 142 l 776 197 l 788 142 l 799 142 l 813 197 l 811 142 l 824 142 l 824 210 l 804 210 l 793 161 l 783 210 l 764 210 z m 14 747 l 15 747 l 83 833 l 14 833 z m 314 540 l 338 540 l 338 547 l 321 547 l 321 560 l 338 560 l 338 565 l 321 565 l 322 576 l 339 576 l 338 583 l 314 583 z m 621 268 b 646 278 632 268 642 272 b 656 283 650 281 653 281 b 663 292 660 285 664 289 l 663 324 b 654 351 664 335 660 344 b 632 360 650 357 642 358 b 604 342 626 360 608 347 b 604 339 601 336 604 339 b 628 344 611 343 618 344 b 646 325 642 344 646 339 b 636 326 643 325 640 326 b 606 317 624 326 613 324 b 596 294 599 311 594 303 b 601 275 594 286 597 281 b 621 268 607 269 614 268 z m 600 268 b 597 272 600 268 603 272 b 585 297 590 274 585 285 l 585 482 b 572 478 585 482 575 481 b 569 468 569 475 569 468 l 571 294 b 600 268 569 276 581 268 z m 344 540 l 351 540 l 351 558 l 356 558 b 363 551 361 558 364 557 b 364 543 364 549 363 547 b 364 540 364 542 365 542 l 372 540 b 371 543 372 542 369 542 b 369 553 369 547 371 550 b 364 561 369 558 368 561 b 369 572 368 561 369 567 b 360 583 369 581 365 583 l 344 583 z m 356 564 l 350 564 l 351 578 l 356 578 b 363 572 361 578 364 575 b 356 564 363 567 361 564 z m 249 624 b 278 656 268 624 272 636 b 263 685 282 672 282 685 b 236 656 246 685 242 672 b 249 624 232 636 232 624 z m 253 632 b 247 656 244 632 244 639 b 261 676 251 669 254 676 b 264 656 268 676 268 669 b 253 632 261 639 260 632 z m 389 540 b 403 556 401 540 403 547 l 397 556 b 389 544 396 551 396 544 b 383 561 385 544 383 549 b 389 578 383 575 385 578 b 397 569 394 578 397 575 l 404 569 b 390 583 403 575 403 583 b 376 561 379 583 378 576 b 389 540 376 547 379 540 z m 408 540 l 417 540 l 415 583 l 407 583 z m 282 625 l 293 625 l 301 667 l 308 625 l 321 625 l 335 683 l 322 683 l 314 643 l 308 683 l 294 683 z m 78 747 l 157 747 l 222 833 l 143 833 z m 419 540 l 426 540 l 429 550 l 442 550 l 444 540 l 451 540 l 439 583 l 431 583 z m 431 557 l 436 576 l 440 557 z m 597 406 l 594 403 b 649 425 615 411 628 415 b 657 433 651 425 654 431 b 664 439 660 433 665 439 l 611 418 b 601 410 608 417 604 414 b 597 406 600 410 594 406 z m 483 535 l 482 532 b 489 540 488 532 490 535 l 490 549 l 483 549 l 483 540 l 485 540 b 483 535 485 536 485 535 z m 454 540 l 478 540 l 478 547 l 461 547 l 461 583 l 454 583 z m 329 625 l 343 625 l 347 636 l 363 636 l 363 625 l 376 625 l 372 683 l 358 683 z m 351 647 l 364 674 l 364 647 z m 385 625 l 418 625 l 421 635 l 399 635 l 410 683 l 397 683 z m 510 540 l 517 540 l 517 558 l 522 558 b 535 569 531 558 533 564 b 522 583 535 578 531 583 l 510 583 z m 521 564 l 515 564 l 517 578 l 521 578 b 529 569 526 578 528 575 b 521 564 528 565 524 564 z m 539 540 l 563 540 l 563 547 l 546 547 l 546 583 l 539 583 z m 218 747 l 297 747 l 363 833 l 285 833 z m 568 540 l 592 540 l 592 547 l 575 547 l 575 560 l 590 560 l 589 565 l 575 565 l 575 576 l 592 576 l 590 583 l 568 583 z m 469 624 b 493 642 479 624 490 626 l 501 683 l 489 683 l 482 642 b 471 632 479 636 476 632 b 467 642 467 632 464 636 l 475 683 l 463 683 l 456 642 b 469 624 451 626 460 624 z m 593 540 l 600 540 l 604 550 l 615 550 l 618 540 l 625 540 l 614 583 l 604 583 z m 606 557 l 611 576 l 615 557 z m 515 624 b 542 642 529 624 539 628 b 533 657 543 649 542 653 l 525 661 b 521 669 519 664 519 665 b 529 676 522 674 522 676 b 533 667 533 676 535 674 l 544 667 l 546 668 b 529 685 549 681 542 685 b 508 668 519 685 513 681 b 519 650 507 658 510 653 b 528 640 528 647 529 644 b 519 632 529 635 524 632 b 514 642 513 632 514 635 l 514 643 l 501 643 l 501 640 b 515 624 499 631 503 624 z m 639 540 b 654 551 650 540 656 543 b 646 564 654 558 651 561 l 642 565 b 635 574 636 567 635 568 b 639 578 636 576 638 578 b 646 574 644 578 647 576 l 646 572 l 653 572 l 653 574 b 640 583 654 576 651 583 b 628 572 632 583 628 581 b 636 560 628 565 632 561 l 642 558 b 649 550 646 557 649 556 b 640 544 649 549 644 544 b 635 551 636 544 635 547 l 635 553 l 628 553 b 639 540 628 547 629 540 z m 661 540 l 685 540 l 685 547 l 668 547 l 668 560 l 683 560 l 683 565 l 668 565 l 669 576 l 683 576 l 682 583 l 661 583 z m 549 625 l 582 625 l 585 635 l 563 635 l 564 650 l 585 650 l 589 660 l 568 660 l 572 674 l 592 674 l 594 683 l 561 683 z m 360 747 l 438 747 l 504 833 l 425 833 z m 710 540 l 718 540 l 728 583 l 721 583 l 714 549 l 706 583 l 699 583 z m 731 540 l 738 540 l 738 583 l 731 583 z m 635 624 b 661 656 653 624 657 636 b 649 685 667 672 667 685 b 621 656 629 685 625 672 b 635 624 618 636 615 624 z m 636 632 b 632 656 629 632 629 639 b 646 676 636 669 639 676 b 649 656 653 676 653 669 b 636 632 646 639 644 632 z m 758 540 b 771 551 767 540 772 543 b 763 564 771 558 769 561 l 758 565 b 751 574 754 567 751 568 b 758 578 753 576 754 578 b 763 574 761 578 764 576 l 763 572 l 771 572 l 771 574 b 757 583 772 576 769 583 b 744 572 749 583 744 581 b 754 560 744 565 749 561 l 758 558 b 765 550 764 557 765 556 b 757 544 765 549 763 544 b 751 551 753 544 751 547 l 751 553 l 744 553 b 758 540 744 547 746 540 z m 778 540 l 785 540 l 785 583 l 778 583 z m 797 540 l 806 540 l 807 576 l 817 576 l 815 583 l 788 583 l 789 576 l 799 576 z m 667 625 l 678 625 l 686 667 l 693 625 l 707 625 l 719 683 l 708 683 l 700 643 l 693 683 l 679 683 z m 719 625 l 751 625 l 756 635 l 733 635 l 743 683 l 731 683 z m 499 747 l 579 747 l 644 833 l 564 833 z m 804 625 l 815 625 l 818 635 l 807 635 z m 765 625 l 778 625 l 783 649 l 806 683 l 793 683 l 781 661 l 776 683 l 763 683 l 771 649 z m 810 642 l 818 642 l 825 665 l 828 683 l 817 683 l 813 665 z m 639 747 l 719 747 l 785 833 l 706 833 z m 781 747 l 849 747 l 850 833 l 846 833 z "},"4":{"ha":864,"x_min":0,"x_max":0,"o":"m 210 367 b 224 375 214 368 222 372 b 226 385 226 378 226 382 b 221 390 225 386 221 389 l 222 392 l 224 392 b 483 456 256 400 442 435 b 496 461 489 457 493 460 l 501 467 b 499 467 503 468 501 468 b 233 403 451 447 265 414 b 224 397 228 401 226 399 l 215 390 b 217 381 213 386 213 383 b 215 372 219 376 218 374 b 210 368 214 372 211 369 b 210 367 210 368 208 367 z m 15 0 l 17 0 l 83 86 l 15 86 z m 78 0 l 158 0 l 224 86 l 144 86 z m 44 142 l 58 142 l 58 190 l 75 142 l 90 142 l 90 210 l 79 210 l 78 164 l 63 210 l 46 210 z m 101 142 l 117 142 l 118 157 l 136 157 l 140 142 l 154 142 l 138 210 l 121 210 z m 218 0 l 299 0 l 364 86 l 286 86 z m 121 168 l 128 199 l 135 168 z m 167 142 l 178 142 l 179 197 l 192 142 l 201 142 l 214 197 l 213 142 l 226 142 l 226 210 l 207 210 l 196 161 l 188 210 l 167 210 z m 243 142 l 282 142 l 281 153 l 256 153 l 256 172 l 279 172 l 281 183 l 257 183 l 256 199 l 279 199 l 281 210 l 243 210 z m 360 0 l 439 0 l 506 86 l 425 86 z m 294 142 l 333 142 l 333 153 l 308 153 l 308 210 l 296 210 z m 342 142 l 354 142 l 358 157 l 376 157 l 379 142 l 393 142 l 376 210 l 358 210 z m 361 168 l 365 199 l 368 199 l 374 168 z m 199 335 l 199 269 b 211 272 199 269 208 269 b 215 281 215 275 215 281 l 215 335 b 222 343 217 339 219 342 b 235 347 226 344 231 347 b 249 340 242 347 244 344 b 253 322 251 336 253 331 l 253 281 b 254 272 253 281 254 275 b 269 269 258 268 269 269 l 268 325 b 240 360 268 349 258 360 b 215 347 229 360 219 356 b 201 340 211 343 208 344 b 199 335 199 339 199 335 z m 500 0 l 581 0 l 646 86 l 565 86 z m 411 142 l 425 142 l 424 199 l 439 199 l 440 210 l 397 210 l 396 199 l 411 199 z m 308 281 b 292 294 299 281 292 285 b 300 308 292 300 294 306 b 321 315 306 314 313 315 b 331 314 322 315 325 315 l 329 292 b 308 281 322 285 317 281 z m 301 268 b 329 278 314 268 322 272 b 338 283 332 281 335 281 b 344 292 342 285 346 289 l 344 324 b 336 351 346 335 342 344 b 314 360 331 357 324 358 b 286 342 308 360 292 347 b 288 339 283 336 288 339 b 310 344 293 343 300 344 b 329 325 324 344 329 339 b 318 326 325 325 322 326 b 288 317 307 326 296 324 b 276 294 279 311 276 303 b 285 275 276 286 281 281 b 301 268 290 269 296 268 z m 465 142 l 478 142 l 478 168 l 497 210 l 482 210 l 472 183 l 464 210 l 449 210 l 465 168 z m 279 356 b 292 378 281 356 293 376 b 279 393 285 381 279 386 b 276 393 278 394 276 393 b 274 386 275 392 274 390 l 267 374 b 279 356 265 365 274 358 z m 508 142 l 521 142 l 522 169 l 531 169 b 551 190 542 169 551 176 b 532 210 551 200 547 210 l 508 210 z m 51 540 l 58 540 l 58 560 l 74 560 l 72 565 l 58 565 l 58 576 l 75 576 l 74 583 l 51 583 z m 528 181 l 521 181 l 521 200 l 528 200 b 538 190 535 200 538 197 b 528 181 538 183 533 181 z m 640 0 l 719 0 l 786 86 l 707 86 z m 93 540 b 107 561 103 540 107 547 b 93 583 107 576 103 583 b 78 561 82 583 79 576 b 93 540 78 547 83 540 z m 93 544 b 86 561 88 544 86 547 b 93 578 88 576 88 578 b 100 561 96 578 100 576 b 93 544 100 547 96 544 z m 356 269 b 367 272 356 269 364 269 b 369 281 371 275 369 281 l 371 335 b 378 343 371 339 374 340 b 389 347 382 344 385 347 b 400 343 393 347 396 344 b 404 332 403 340 404 336 l 406 269 b 417 272 406 269 414 269 b 422 281 421 276 422 281 l 422 335 b 428 343 421 339 425 340 b 439 347 432 344 435 347 b 457 325 450 347 457 340 l 457 281 b 458 274 457 281 457 275 b 472 269 463 269 472 269 l 472 328 b 465 351 471 339 471 347 b 443 360 460 357 451 360 b 428 357 439 360 433 358 b 418 349 424 353 419 351 b 392 360 413 356 406 360 b 369 349 383 360 374 356 b 357 339 367 343 360 342 l 356 333 z m 565 142 l 603 142 l 603 153 l 578 153 l 578 172 l 599 172 l 600 183 l 579 183 l 578 199 l 601 199 l 601 210 l 565 210 z m 617 142 l 629 142 l 631 157 l 617 157 z m 113 540 l 121 540 l 121 558 l 126 558 b 132 551 131 558 133 557 b 133 543 133 549 133 547 l 133 540 l 142 540 b 140 543 142 542 140 542 l 140 553 b 133 561 139 558 136 561 b 139 572 139 561 140 567 b 128 583 140 581 135 583 l 113 583 z m 125 564 l 121 564 l 121 578 l 126 578 b 133 572 131 578 133 575 b 125 564 133 567 129 564 z m 175 540 b 189 556 185 540 188 547 l 182 556 b 174 544 181 551 179 544 b 168 561 169 544 168 549 b 175 578 168 575 169 578 b 182 569 179 578 182 575 l 189 569 b 174 583 189 575 186 583 b 160 561 163 583 161 576 b 175 540 160 547 163 540 z m 42 625 l 54 625 l 60 649 l 67 649 b 89 667 76 649 86 653 b 76 683 89 675 88 683 l 54 683 z m 782 0 l 850 0 l 850 86 l 847 86 z m 67 657 l 61 657 l 64 675 l 69 675 b 76 667 76 675 78 672 b 67 657 75 660 71 657 z m 668 142 b 690 168 685 142 689 153 l 675 168 b 667 151 675 153 672 151 b 658 175 663 151 658 156 b 667 201 658 194 660 201 b 675 186 674 201 675 197 l 688 186 b 668 211 689 197 686 211 b 644 176 646 211 646 197 b 668 142 644 156 646 142 z m 206 540 b 222 561 217 540 221 547 b 206 583 222 576 215 583 b 193 561 196 583 194 576 b 206 540 193 547 196 540 z m 206 544 b 200 561 203 544 200 547 b 206 578 200 576 203 578 b 214 561 210 578 214 576 b 206 544 213 547 210 544 z m 513 269 b 542 282 518 268 532 276 b 542 285 544 283 547 289 b 524 282 535 283 531 282 b 506 289 517 282 510 283 b 496 311 499 293 497 301 l 560 311 b 561 322 560 315 561 318 b 549 349 561 333 557 342 b 522 360 543 357 533 360 b 493 349 510 360 501 356 b 481 314 485 339 481 326 b 493 281 479 299 483 289 b 513 269 499 275 504 269 z m 90 625 l 124 625 l 126 635 l 104 635 l 106 650 l 126 650 l 131 660 l 110 660 l 113 674 l 133 674 l 135 683 l 101 683 z m 544 324 l 496 324 b 506 340 496 331 500 335 b 522 347 508 344 515 347 b 540 340 531 347 535 343 b 544 324 544 335 544 331 z m 228 540 l 233 540 l 233 576 l 243 540 l 247 540 l 257 576 l 256 540 l 263 540 l 263 583 l 253 583 l 246 551 l 244 551 l 238 583 l 228 583 z m 725 142 b 749 176 746 142 749 156 b 724 211 749 197 746 211 b 701 176 704 211 701 197 b 725 142 701 156 704 142 z m 725 151 b 717 176 717 151 717 158 b 725 201 717 194 717 201 b 735 176 733 201 735 194 b 725 151 735 158 733 151 z m 133 625 l 146 625 l 151 650 l 158 650 b 164 642 163 650 164 647 l 161 631 b 161 625 160 628 160 626 l 175 625 b 174 635 172 626 172 631 b 168 653 176 649 176 653 b 182 668 174 656 181 660 b 168 683 183 678 178 683 l 146 683 z m 158 658 l 153 658 l 156 675 l 161 675 b 168 667 168 675 169 672 b 158 658 168 660 163 658 z m 271 540 l 278 540 l 279 576 l 286 540 l 292 540 l 303 576 l 301 540 l 308 540 l 307 583 l 296 583 l 289 551 l 281 583 l 271 583 z m 626 281 b 610 294 615 281 610 285 b 618 308 610 300 613 306 b 638 315 624 314 629 315 b 647 314 639 315 643 315 l 646 292 b 626 281 642 285 635 281 z m 201 624 b 225 642 213 624 224 628 b 217 657 226 649 225 653 l 208 661 b 204 669 204 664 203 665 b 213 676 206 674 206 676 b 218 667 217 676 218 674 l 228 667 l 231 668 b 215 685 232 681 225 685 b 192 668 203 685 196 681 b 203 650 190 658 193 653 b 211 640 211 647 213 644 b 203 632 213 635 207 632 b 199 642 196 632 197 635 l 197 643 l 186 643 l 185 640 b 201 624 182 631 186 624 z m 763 142 l 776 142 l 776 197 l 788 142 l 799 142 l 813 197 l 811 142 l 824 142 l 824 210 l 804 210 l 793 161 l 783 210 l 764 210 z m 14 747 l 15 747 l 83 833 l 14 833 z m 314 540 l 338 540 l 338 547 l 321 547 l 321 560 l 338 560 l 338 565 l 321 565 l 322 576 l 339 576 l 338 583 l 314 583 z m 621 268 b 646 278 632 268 642 272 b 656 283 650 281 653 281 b 663 292 660 285 664 289 l 663 324 b 654 351 664 335 660 344 b 632 360 650 357 642 358 b 604 342 626 360 608 347 b 604 339 601 336 604 339 b 628 344 611 343 618 344 b 646 325 642 344 646 339 b 636 326 643 325 640 326 b 606 317 624 326 613 324 b 596 294 599 311 594 303 b 601 275 594 286 597 281 b 621 268 607 269 614 268 z m 600 268 b 597 272 600 268 603 272 b 585 297 590 274 585 285 l 585 482 b 572 478 585 482 575 481 b 569 468 569 475 569 468 l 571 294 b 600 268 569 276 581 268 z m 344 540 l 351 540 l 351 558 l 356 558 b 363 551 361 558 364 557 b 364 543 364 549 363 547 b 364 540 364 542 365 542 l 372 540 b 371 543 372 542 369 542 b 369 553 369 547 371 550 b 364 561 369 558 368 561 b 369 572 368 561 369 567 b 360 583 369 581 365 583 l 344 583 z m 356 564 l 350 564 l 351 578 l 356 578 b 363 572 361 578 364 575 b 356 564 363 567 361 564 z m 249 624 b 278 656 268 624 272 636 b 263 685 282 672 282 685 b 236 656 246 685 242 672 b 249 624 232 636 232 624 z m 253 632 b 247 656 244 632 244 639 b 261 676 251 669 254 676 b 264 656 268 676 268 669 b 253 632 261 639 260 632 z m 389 540 b 403 556 401 540 403 547 l 397 556 b 389 544 396 551 396 544 b 383 561 385 544 383 549 b 389 578 383 575 385 578 b 397 569 394 578 397 575 l 404 569 b 390 583 403 575 403 583 b 376 561 379 583 378 576 b 389 540 376 547 379 540 z m 408 540 l 417 540 l 415 583 l 407 583 z m 282 625 l 293 625 l 301 667 l 308 625 l 321 625 l 335 683 l 322 683 l 314 643 l 308 683 l 294 683 z m 78 747 l 157 747 l 222 833 l 143 833 z m 419 540 l 426 540 l 429 550 l 442 550 l 444 540 l 451 540 l 439 583 l 431 583 z m 431 557 l 436 576 l 440 557 z m 597 406 l 594 403 b 649 425 615 411 628 415 b 657 433 651 425 654 431 b 664 439 660 433 665 439 l 611 418 b 601 410 608 417 604 414 b 597 406 600 410 594 406 z m 483 535 l 482 532 b 489 540 488 532 490 535 l 490 549 l 483 549 l 483 540 l 485 540 b 483 535 485 536 485 535 z m 454 540 l 478 540 l 478 547 l 461 547 l 461 583 l 454 583 z m 329 625 l 343 625 l 347 636 l 363 636 l 363 625 l 376 625 l 372 683 l 358 683 z m 351 647 l 364 674 l 364 647 z m 385 625 l 418 625 l 421 635 l 399 635 l 410 683 l 397 683 z m 510 540 l 517 540 l 517 558 l 522 558 b 535 569 531 558 533 564 b 522 583 535 578 531 583 l 510 583 z m 521 564 l 515 564 l 517 578 l 521 578 b 529 569 526 578 528 575 b 521 564 528 565 524 564 z m 539 540 l 563 540 l 563 547 l 546 547 l 546 583 l 539 583 z m 218 747 l 297 747 l 363 833 l 285 833 z m 568 540 l 592 540 l 592 547 l 575 547 l 575 560 l 590 560 l 589 565 l 575 565 l 575 576 l 592 576 l 590 583 l 568 583 z m 469 624 b 493 642 479 624 490 626 l 501 683 l 489 683 l 482 642 b 471 632 479 636 476 632 b 467 642 467 632 464 636 l 475 683 l 463 683 l 456 642 b 469 624 451 626 460 624 z m 593 540 l 600 540 l 604 550 l 615 550 l 618 540 l 625 540 l 614 583 l 604 583 z m 606 557 l 611 576 l 615 557 z m 515 624 b 542 642 529 624 539 628 b 533 657 543 649 542 653 l 525 661 b 521 669 519 664 519 665 b 529 676 522 674 522 676 b 533 667 533 676 535 674 l 544 667 l 546 668 b 529 685 549 681 542 685 b 508 668 519 685 513 681 b 519 650 507 658 510 653 b 528 640 528 647 529 644 b 519 632 529 635 524 632 b 514 642 513 632 514 635 l 514 643 l 501 643 l 501 640 b 515 624 499 631 503 624 z m 639 540 b 654 551 650 540 656 543 b 646 564 654 558 651 561 l 642 565 b 635 574 636 567 635 568 b 639 578 636 576 638 578 b 646 574 644 578 647 576 l 646 572 l 653 572 l 653 574 b 640 583 654 576 651 583 b 628 572 632 583 628 581 b 636 560 628 565 632 561 l 642 558 b 649 550 646 557 649 556 b 640 544 649 549 644 544 b 635 551 636 544 635 547 l 635 553 l 628 553 b 639 540 628 547 629 540 z m 661 540 l 685 540 l 685 547 l 668 547 l 668 560 l 683 560 l 683 565 l 668 565 l 669 576 l 683 576 l 682 583 l 661 583 z m 549 625 l 582 625 l 585 635 l 563 635 l 564 650 l 585 650 l 589 660 l 568 660 l 572 674 l 592 674 l 594 683 l 561 683 z m 360 747 l 438 747 l 504 833 l 425 833 z m 710 540 l 718 540 l 728 583 l 721 583 l 714 549 l 706 583 l 699 583 z m 731 540 l 738 540 l 738 583 l 731 583 z m 635 624 b 661 656 653 624 657 636 b 649 685 667 672 667 685 b 621 656 629 685 625 672 b 635 624 618 636 615 624 z m 636 632 b 632 656 629 632 629 639 b 646 676 636 669 639 676 b 649 656 653 676 653 669 b 636 632 646 639 644 632 z m 758 540 b 771 551 767 540 772 543 b 763 564 771 558 769 561 l 758 565 b 751 574 754 567 751 568 b 758 578 753 576 754 578 b 763 574 761 578 764 576 l 763 572 l 771 572 l 771 574 b 757 583 772 576 769 583 b 744 572 749 583 744 581 b 754 560 744 565 749 561 l 758 558 b 765 550 764 557 765 556 b 757 544 765 549 763 544 b 751 551 753 544 751 547 l 751 553 l 744 553 b 758 540 744 547 746 540 z m 778 540 l 785 540 l 785 583 l 778 583 z m 797 540 l 806 540 l 807 576 l 817 576 l 815 583 l 788 583 l 789 576 l 799 576 z m 667 625 l 678 625 l 686 667 l 693 625 l 707 625 l 719 683 l 708 683 l 700 643 l 693 683 l 679 683 z m 719 625 l 751 625 l 756 635 l 733 635 l 743 683 l 731 683 z m 499 747 l 579 747 l 644 833 l 564 833 z m 804 625 l 815 625 l 818 635 l 807 635 z m 765 625 l 778 625 l 783 649 l 806 683 l 793 683 l 781 661 l 776 683 l 763 683 l 771 649 z m 810 642 l 818 642 l 825 665 l 828 683 l 817 683 l 813 665 z m 639 747 l 719 747 l 785 833 l 706 833 z m 781 747 l 849 747 l 850 833 l 846 833 z "},"5":{"ha":864,"x_min":0,"x_max":0,"o":"m 210 367 b 224 375 214 368 222 372 b 226 385 226 378 226 382 b 221 390 225 386 221 389 l 222 392 l 224 392 b 483 456 256 400 442 435 b 496 461 489 457 493 460 l 501 467 b 499 467 503 468 501 468 b 233 403 451 447 265 414 b 224 397 228 401 226 399 l 215 390 b 217 381 213 386 213 383 b 215 372 219 376 218 374 b 210 368 214 372 211 369 b 210 367 210 368 208 367 z m 15 0 l 17 0 l 83 86 l 15 86 z m 78 0 l 158 0 l 224 86 l 144 86 z m 44 142 l 58 142 l 58 190 l 75 142 l 90 142 l 90 210 l 79 210 l 78 164 l 63 210 l 46 210 z m 101 142 l 117 142 l 118 157 l 136 157 l 140 142 l 154 142 l 138 210 l 121 210 z m 218 0 l 299 0 l 364 86 l 286 86 z m 121 168 l 128 199 l 135 168 z m 167 142 l 178 142 l 179 197 l 192 142 l 201 142 l 214 197 l 213 142 l 226 142 l 226 210 l 207 210 l 196 161 l 188 210 l 167 210 z m 243 142 l 282 142 l 281 153 l 256 153 l 256 172 l 279 172 l 281 183 l 257 183 l 256 199 l 279 199 l 281 210 l 243 210 z m 360 0 l 439 0 l 506 86 l 425 86 z m 294 142 l 333 142 l 333 153 l 308 153 l 308 210 l 296 210 z m 342 142 l 354 142 l 358 157 l 376 157 l 379 142 l 393 142 l 376 210 l 358 210 z m 361 168 l 365 199 l 368 199 l 374 168 z m 199 335 l 199 269 b 211 272 199 269 208 269 b 215 281 215 275 215 281 l 215 335 b 222 343 217 339 219 342 b 235 347 226 344 231 347 b 249 340 242 347 244 344 b 253 322 251 336 253 331 l 253 281 b 254 272 253 281 254 275 b 269 269 258 268 269 269 l 268 325 b 240 360 268 349 258 360 b 215 347 229 360 219 356 b 201 340 211 343 208 344 b 199 335 199 339 199 335 z m 500 0 l 581 0 l 646 86 l 565 86 z m 411 142 l 425 142 l 424 199 l 439 199 l 440 210 l 397 210 l 396 199 l 411 199 z m 308 281 b 292 294 299 281 292 285 b 300 308 292 300 294 306 b 321 315 306 314 313 315 b 331 314 322 315 325 315 l 329 292 b 308 281 322 285 317 281 z m 301 268 b 329 278 314 268 322 272 b 338 283 332 281 335 281 b 344 292 342 285 346 289 l 344 324 b 336 351 346 335 342 344 b 314 360 331 357 324 358 b 286 342 308 360 292 347 b 288 339 283 336 288 339 b 310 344 293 343 300 344 b 329 325 324 344 329 339 b 318 326 325 325 322 326 b 288 317 307 326 296 324 b 276 294 279 311 276 303 b 285 275 276 286 281 281 b 301 268 290 269 296 268 z m 465 142 l 478 142 l 478 168 l 497 210 l 482 210 l 472 183 l 464 210 l 449 210 l 465 168 z m 279 356 b 292 378 281 356 293 376 b 279 393 285 381 279 386 b 276 393 278 394 276 393 b 274 386 275 392 274 390 l 267 374 b 279 356 265 365 274 358 z m 508 142 l 521 142 l 522 169 l 531 169 b 551 190 542 169 551 176 b 532 210 551 200 547 210 l 508 210 z m 51 540 l 58 540 l 58 560 l 74 560 l 72 565 l 58 565 l 58 576 l 75 576 l 74 583 l 51 583 z m 528 181 l 521 181 l 521 200 l 528 200 b 538 190 535 200 538 197 b 528 181 538 183 533 181 z m 640 0 l 719 0 l 786 86 l 707 86 z m 93 540 b 107 561 103 540 107 547 b 93 583 107 576 103 583 b 78 561 82 583 79 576 b 93 540 78 547 83 540 z m 93 544 b 86 561 88 544 86 547 b 93 578 88 576 88 578 b 100 561 96 578 100 576 b 93 544 100 547 96 544 z m 356 269 b 367 272 356 269 364 269 b 369 281 371 275 369 281 l 371 335 b 378 343 371 339 374 340 b 389 347 382 344 385 347 b 400 343 393 347 396 344 b 404 332 403 340 404 336 l 406 269 b 417 272 406 269 414 269 b 422 281 421 276 422 281 l 422 335 b 428 343 421 339 425 340 b 439 347 432 344 435 347 b 457 325 450 347 457 340 l 457 281 b 458 274 457 281 457 275 b 472 269 463 269 472 269 l 472 328 b 465 351 471 339 471 347 b 443 360 460 357 451 360 b 428 357 439 360 433 358 b 418 349 424 353 419 351 b 392 360 413 356 406 360 b 369 349 383 360 374 356 b 357 339 367 343 360 342 l 356 333 z m 565 142 l 603 142 l 603 153 l 578 153 l 578 172 l 599 172 l 600 183 l 579 183 l 578 199 l 601 199 l 601 210 l 565 210 z m 617 142 l 629 142 l 631 157 l 617 157 z m 113 540 l 121 540 l 121 558 l 126 558 b 132 551 131 558 133 557 b 133 543 133 549 133 547 l 133 540 l 142 540 b 140 543 142 542 140 542 l 140 553 b 133 561 139 558 136 561 b 139 572 139 561 140 567 b 128 583 140 581 135 583 l 113 583 z m 125 564 l 121 564 l 121 578 l 126 578 b 133 572 131 578 133 575 b 125 564 133 567 129 564 z m 175 540 b 189 556 185 540 188 547 l 182 556 b 174 544 181 551 179 544 b 168 561 169 544 168 549 b 175 578 168 575 169 578 b 182 569 179 578 182 575 l 189 569 b 174 583 189 575 186 583 b 160 561 163 583 161 576 b 175 540 160 547 163 540 z m 42 625 l 54 625 l 60 649 l 67 649 b 89 667 76 649 86 653 b 76 683 89 675 88 683 l 54 683 z m 782 0 l 850 0 l 850 86 l 847 86 z m 67 657 l 61 657 l 64 675 l 69 675 b 76 667 76 675 78 672 b 67 657 75 660 71 657 z m 668 142 b 690 168 685 142 689 153 l 675 168 b 667 151 675 153 672 151 b 658 175 663 151 658 156 b 667 201 658 194 660 201 b 675 186 674 201 675 197 l 688 186 b 668 211 689 197 686 211 b 644 176 646 211 646 197 b 668 142 644 156 646 142 z m 206 540 b 222 561 217 540 221 547 b 206 583 222 576 215 583 b 193 561 196 583 194 576 b 206 540 193 547 196 540 z m 206 544 b 200 561 203 544 200 547 b 206 578 200 576 203 578 b 214 561 210 578 214 576 b 206 544 213 547 210 544 z m 513 269 b 542 282 518 268 532 276 b 542 285 544 283 547 289 b 524 282 535 283 531 282 b 506 289 517 282 510 283 b 496 311 499 293 497 301 l 560 311 b 561 322 560 315 561 318 b 549 349 561 333 557 342 b 522 360 543 357 533 360 b 493 349 510 360 501 356 b 481 314 485 339 481 326 b 493 281 479 299 483 289 b 513 269 499 275 504 269 z m 90 625 l 124 625 l 126 635 l 104 635 l 106 650 l 126 650 l 131 660 l 110 660 l 113 674 l 133 674 l 135 683 l 101 683 z m 544 324 l 496 324 b 506 340 496 331 500 335 b 522 347 508 344 515 347 b 540 340 531 347 535 343 b 544 324 544 335 544 331 z m 228 540 l 233 540 l 233 576 l 243 540 l 247 540 l 257 576 l 256 540 l 263 540 l 263 583 l 253 583 l 246 551 l 244 551 l 238 583 l 228 583 z m 725 142 b 749 176 746 142 749 156 b 724 211 749 197 746 211 b 701 176 704 211 701 197 b 725 142 701 156 704 142 z m 725 151 b 717 176 717 151 717 158 b 725 201 717 194 717 201 b 735 176 733 201 735 194 b 725 151 735 158 733 151 z m 133 625 l 146 625 l 151 650 l 158 650 b 164 642 163 650 164 647 l 161 631 b 161 625 160 628 160 626 l 175 625 b 174 635 172 626 172 631 b 168 653 176 649 176 653 b 182 668 174 656 181 660 b 168 683 183 678 178 683 l 146 683 z m 158 658 l 153 658 l 156 675 l 161 675 b 168 667 168 675 169 672 b 158 658 168 660 163 658 z m 271 540 l 278 540 l 279 576 l 286 540 l 292 540 l 303 576 l 301 540 l 308 540 l 307 583 l 296 583 l 289 551 l 281 583 l 271 583 z m 626 281 b 610 294 615 281 610 285 b 618 308 610 300 613 306 b 638 315 624 314 629 315 b 647 314 639 315 643 315 l 646 292 b 626 281 642 285 635 281 z m 201 624 b 225 642 213 624 224 628 b 217 657 226 649 225 653 l 208 661 b 204 669 204 664 203 665 b 213 676 206 674 206 676 b 218 667 217 676 218 674 l 228 667 l 231 668 b 215 685 232 681 225 685 b 192 668 203 685 196 681 b 203 650 190 658 193 653 b 211 640 211 647 213 644 b 203 632 213 635 207 632 b 199 642 196 632 197 635 l 197 643 l 186 643 l 185 640 b 201 624 182 631 186 624 z m 763 142 l 776 142 l 776 197 l 788 142 l 799 142 l 813 197 l 811 142 l 824 142 l 824 210 l 804 210 l 793 161 l 783 210 l 764 210 z m 14 747 l 15 747 l 83 833 l 14 833 z m 314 540 l 338 540 l 338 547 l 321 547 l 321 560 l 338 560 l 338 565 l 321 565 l 322 576 l 339 576 l 338 583 l 314 583 z m 621 268 b 646 278 632 268 642 272 b 656 283 650 281 653 281 b 663 292 660 285 664 289 l 663 324 b 654 351 664 335 660 344 b 632 360 650 357 642 358 b 604 342 626 360 608 347 b 604 339 601 336 604 339 b 628 344 611 343 618 344 b 646 325 642 344 646 339 b 636 326 643 325 640 326 b 606 317 624 326 613 324 b 596 294 599 311 594 303 b 601 275 594 286 597 281 b 621 268 607 269 614 268 z m 600 268 b 597 272 600 268 603 272 b 585 297 590 274 585 285 l 585 482 b 572 478 585 482 575 481 b 569 468 569 475 569 468 l 571 294 b 600 268 569 276 581 268 z m 344 540 l 351 540 l 351 558 l 356 558 b 363 551 361 558 364 557 b 364 543 364 549 363 547 b 364 540 364 542 365 542 l 372 540 b 371 543 372 542 369 542 b 369 553 369 547 371 550 b 364 561 369 558 368 561 b 369 572 368 561 369 567 b 360 583 369 581 365 583 l 344 583 z m 356 564 l 350 564 l 351 578 l 356 578 b 363 572 361 578 364 575 b 356 564 363 567 361 564 z m 249 624 b 278 656 268 624 272 636 b 263 685 282 672 282 685 b 236 656 246 685 242 672 b 249 624 232 636 232 624 z m 253 632 b 247 656 244 632 244 639 b 261 676 251 669 254 676 b 264 656 268 676 268 669 b 253 632 261 639 260 632 z m 389 540 b 403 556 401 540 403 547 l 397 556 b 389 544 396 551 396 544 b 383 561 385 544 383 549 b 389 578 383 575 385 578 b 397 569 394 578 397 575 l 404 569 b 390 583 403 575 403 583 b 376 561 379 583 378 576 b 389 540 376 547 379 540 z m 408 540 l 417 540 l 415 583 l 407 583 z m 282 625 l 293 625 l 301 667 l 308 625 l 321 625 l 335 683 l 322 683 l 314 643 l 308 683 l 294 683 z m 78 747 l 157 747 l 222 833 l 143 833 z m 419 540 l 426 540 l 429 550 l 442 550 l 444 540 l 451 540 l 439 583 l 431 583 z m 431 557 l 436 576 l 440 557 z m 597 406 l 594 403 b 649 425 615 411 628 415 b 657 433 651 425 654 431 b 664 439 660 433 665 439 l 611 418 b 601 410 608 417 604 414 b 597 406 600 410 594 406 z m 483 535 l 482 532 b 489 540 488 532 490 535 l 490 549 l 483 549 l 483 540 l 485 540 b 483 535 485 536 485 535 z m 454 540 l 478 540 l 478 547 l 461 547 l 461 583 l 454 583 z m 329 625 l 343 625 l 347 636 l 363 636 l 363 625 l 376 625 l 372 683 l 358 683 z m 351 647 l 364 674 l 364 647 z m 385 625 l 418 625 l 421 635 l 399 635 l 410 683 l 397 683 z m 510 540 l 517 540 l 517 558 l 522 558 b 535 569 531 558 533 564 b 522 583 535 578 531 583 l 510 583 z m 521 564 l 515 564 l 517 578 l 521 578 b 529 569 526 578 528 575 b 521 564 528 565 524 564 z m 539 540 l 563 540 l 563 547 l 546 547 l 546 583 l 539 583 z m 218 747 l 297 747 l 363 833 l 285 833 z m 568 540 l 592 540 l 592 547 l 575 547 l 575 560 l 590 560 l 589 565 l 575 565 l 575 576 l 592 576 l 590 583 l 568 583 z m 469 624 b 493 642 479 624 490 626 l 501 683 l 489 683 l 482 642 b 471 632 479 636 476 632 b 467 642 467 632 464 636 l 475 683 l 463 683 l 456 642 b 469 624 451 626 460 624 z m 593 540 l 600 540 l 604 550 l 615 550 l 618 540 l 625 540 l 614 583 l 604 583 z m 606 557 l 611 576 l 615 557 z m 515 624 b 542 642 529 624 539 628 b 533 657 543 649 542 653 l 525 661 b 521 669 519 664 519 665 b 529 676 522 674 522 676 b 533 667 533 676 535 674 l 544 667 l 546 668 b 529 685 549 681 542 685 b 508 668 519 685 513 681 b 519 650 507 658 510 653 b 528 640 528 647 529 644 b 519 632 529 635 524 632 b 514 642 513 632 514 635 l 514 643 l 501 643 l 501 640 b 515 624 499 631 503 624 z m 639 540 b 654 551 650 540 656 543 b 646 564 654 558 651 561 l 642 565 b 635 574 636 567 635 568 b 639 578 636 576 638 578 b 646 574 644 578 647 576 l 646 572 l 653 572 l 653 574 b 640 583 654 576 651 583 b 628 572 632 583 628 581 b 636 560 628 565 632 561 l 642 558 b 649 550 646 557 649 556 b 640 544 649 549 644 544 b 635 551 636 544 635 547 l 635 553 l 628 553 b 639 540 628 547 629 540 z m 661 540 l 685 540 l 685 547 l 668 547 l 668 560 l 683 560 l 683 565 l 668 565 l 669 576 l 683 576 l 682 583 l 661 583 z m 549 625 l 582 625 l 585 635 l 563 635 l 564 650 l 585 650 l 589 660 l 568 660 l 572 674 l 592 674 l 594 683 l 561 683 z m 360 747 l 438 747 l 504 833 l 425 833 z m 710 540 l 718 540 l 728 583 l 721 583 l 714 549 l 706 583 l 699 583 z m 731 540 l 738 540 l 738 583 l 731 583 z m 635 624 b 661 656 653 624 657 636 b 649 685 667 672 667 685 b 621 656 629 685 625 672 b 635 624 618 636 615 624 z m 636 632 b 632 656 629 632 629 639 b 646 676 636 669 639 676 b 649 656 653 676 653 669 b 636 632 646 639 644 632 z m 758 540 b 771 551 767 540 772 543 b 763 564 771 558 769 561 l 758 565 b 751 574 754 567 751 568 b 758 578 753 576 754 578 b 763 574 761 578 764 576 l 763 572 l 771 572 l 771 574 b 757 583 772 576 769 583 b 744 572 749 583 744 581 b 754 560 744 565 749 561 l 758 558 b 765 550 764 557 765 556 b 757 544 765 549 763 544 b 751 551 753 544 751 547 l 751 553 l 744 553 b 758 540 744 547 746 540 z m 778 540 l 785 540 l 785 583 l 778 583 z m 797 540 l 806 540 l 807 576 l 817 576 l 815 583 l 788 583 l 789 576 l 799 576 z m 667 625 l 678 625 l 686 667 l 693 625 l 707 625 l 719 683 l 708 683 l 700 643 l 693 683 l 679 683 z m 719 625 l 751 625 l 756 635 l 733 635 l 743 683 l 731 683 z m 499 747 l 579 747 l 644 833 l 564 833 z m 804 625 l 815 625 l 818 635 l 807 635 z m 765 625 l 778 625 l 783 649 l 806 683 l 793 683 l 781 661 l 776 683 l 763 683 l 771 649 z m 810 642 l 818 642 l 825 665 l 828 683 l 817 683 l 813 665 z m 639 747 l 719 747 l 785 833 l 706 833 z m 781 747 l 849 747 l 850 833 l 846 833 z "},"6":{"ha":864,"x_min":0,"x_max":0,"o":"m 210 367 b 224 375 214 368 222 372 b 226 385 226 378 226 382 b 221 390 225 386 221 389 l 222 392 l 224 392 b 483 456 256 400 442 435 b 496 461 489 457 493 460 l 501 467 b 499 467 503 468 501 468 b 233 403 451 447 265 414 b 224 397 228 401 226 399 l 215 390 b 217 381 213 386 213 383 b 215 372 219 376 218 374 b 210 368 214 372 211 369 b 210 367 210 368 208 367 z m 15 0 l 17 0 l 83 86 l 15 86 z m 78 0 l 158 0 l 224 86 l 144 86 z m 44 142 l 58 142 l 58 190 l 75 142 l 90 142 l 90 210 l 79 210 l 78 164 l 63 210 l 46 210 z m 101 142 l 117 142 l 118 157 l 136 157 l 140 142 l 154 142 l 138 210 l 121 210 z m 218 0 l 299 0 l 364 86 l 286 86 z m 121 168 l 128 199 l 135 168 z m 167 142 l 178 142 l 179 197 l 192 142 l 201 142 l 214 197 l 213 142 l 226 142 l 226 210 l 207 210 l 196 161 l 188 210 l 167 210 z m 243 142 l 282 142 l 281 153 l 256 153 l 256 172 l 279 172 l 281 183 l 257 183 l 256 199 l 279 199 l 281 210 l 243 210 z m 360 0 l 439 0 l 506 86 l 425 86 z m 294 142 l 333 142 l 333 153 l 308 153 l 308 210 l 296 210 z m 342 142 l 354 142 l 358 157 l 376 157 l 379 142 l 393 142 l 376 210 l 358 210 z m 361 168 l 365 199 l 368 199 l 374 168 z m 199 335 l 199 269 b 211 272 199 269 208 269 b 215 281 215 275 215 281 l 215 335 b 222 343 217 339 219 342 b 235 347 226 344 231 347 b 249 340 242 347 244 344 b 253 322 251 336 253 331 l 253 281 b 254 272 253 281 254 275 b 269 269 258 268 269 269 l 268 325 b 240 360 268 349 258 360 b 215 347 229 360 219 356 b 201 340 211 343 208 344 b 199 335 199 339 199 335 z m 500 0 l 581 0 l 646 86 l 565 86 z m 411 142 l 425 142 l 424 199 l 439 199 l 440 210 l 397 210 l 396 199 l 411 199 z m 308 281 b 292 294 299 281 292 285 b 300 308 292 300 294 306 b 321 315 306 314 313 315 b 331 314 322 315 325 315 l 329 292 b 308 281 322 285 317 281 z m 301 268 b 329 278 314 268 322 272 b 338 283 332 281 335 281 b 344 292 342 285 346 289 l 344 324 b 336 351 346 335 342 344 b 314 360 331 357 324 358 b 286 342 308 360 292 347 b 288 339 283 336 288 339 b 310 344 293 343 300 344 b 329 325 324 344 329 339 b 318 326 325 325 322 326 b 288 317 307 326 296 324 b 276 294 279 311 276 303 b 285 275 276 286 281 281 b 301 268 290 269 296 268 z m 465 142 l 478 142 l 478 168 l 497 210 l 482 210 l 472 183 l 464 210 l 449 210 l 465 168 z m 279 356 b 292 378 281 356 293 376 b 279 393 285 381 279 386 b 276 393 278 394 276 393 b 274 386 275 392 274 390 l 267 374 b 279 356 265 365 274 358 z m 508 142 l 521 142 l 522 169 l 531 169 b 551 190 542 169 551 176 b 532 210 551 200 547 210 l 508 210 z m 51 540 l 58 540 l 58 560 l 74 560 l 72 565 l 58 565 l 58 576 l 75 576 l 74 583 l 51 583 z m 528 181 l 521 181 l 521 200 l 528 200 b 538 190 535 200 538 197 b 528 181 538 183 533 181 z m 640 0 l 719 0 l 786 86 l 707 86 z m 93 540 b 107 561 103 540 107 547 b 93 583 107 576 103 583 b 78 561 82 583 79 576 b 93 540 78 547 83 540 z m 93 544 b 86 561 88 544 86 547 b 93 578 88 576 88 578 b 100 561 96 578 100 576 b 93 544 100 547 96 544 z m 356 269 b 367 272 356 269 364 269 b 369 281 371 275 369 281 l 371 335 b 378 343 371 339 374 340 b 389 347 382 344 385 347 b 400 343 393 347 396 344 b 404 332 403 340 404 336 l 406 269 b 417 272 406 269 414 269 b 422 281 421 276 422 281 l 422 335 b 428 343 421 339 425 340 b 439 347 432 344 435 347 b 457 325 450 347 457 340 l 457 281 b 458 274 457 281 457 275 b 472 269 463 269 472 269 l 472 328 b 465 351 471 339 471 347 b 443 360 460 357 451 360 b 428 357 439 360 433 358 b 418 349 424 353 419 351 b 392 360 413 356 406 360 b 369 349 383 360 374 356 b 357 339 367 343 360 342 l 356 333 z m 565 142 l 603 142 l 603 153 l 578 153 l 578 172 l 599 172 l 600 183 l 579 183 l 578 199 l 601 199 l 601 210 l 565 210 z m 617 142 l 629 142 l 631 157 l 617 157 z m 113 540 l 121 540 l 121 558 l 126 558 b 132 551 131 558 133 557 b 133 543 133 549 133 547 l 133 540 l 142 540 b 140 543 142 542 140 542 l 140 553 b 133 561 139 558 136 561 b 139 572 139 561 140 567 b 128 583 140 581 135 583 l 113 583 z m 125 564 l 121 564 l 121 578 l 126 578 b 133 572 131 578 133 575 b 125 564 133 567 129 564 z m 175 540 b 189 556 185 540 188 547 l 182 556 b 174 544 181 551 179 544 b 168 561 169 544 168 549 b 175 578 168 575 169 578 b 182 569 179 578 182 575 l 189 569 b 174 583 189 575 186 583 b 160 561 163 583 161 576 b 175 540 160 547 163 540 z m 42 625 l 54 625 l 60 649 l 67 649 b 89 667 76 649 86 653 b 76 683 89 675 88 683 l 54 683 z m 782 0 l 850 0 l 850 86 l 847 86 z m 67 657 l 61 657 l 64 675 l 69 675 b 76 667 76 675 78 672 b 67 657 75 660 71 657 z m 668 142 b 690 168 685 142 689 153 l 675 168 b 667 151 675 153 672 151 b 658 175 663 151 658 156 b 667 201 658 194 660 201 b 675 186 674 201 675 197 l 688 186 b 668 211 689 197 686 211 b 644 176 646 211 646 197 b 668 142 644 156 646 142 z m 206 540 b 222 561 217 540 221 547 b 206 583 222 576 215 583 b 193 561 196 583 194 576 b 206 540 193 547 196 540 z m 206 544 b 200 561 203 544 200 547 b 206 578 200 576 203 578 b 214 561 210 578 214 576 b 206 544 213 547 210 544 z m 513 269 b 542 282 518 268 532 276 b 542 285 544 283 547 289 b 524 282 535 283 531 282 b 506 289 517 282 510 283 b 496 311 499 293 497 301 l 560 311 b 561 322 560 315 561 318 b 549 349 561 333 557 342 b 522 360 543 357 533 360 b 493 349 510 360 501 356 b 481 314 485 339 481 326 b 493 281 479 299 483 289 b 513 269 499 275 504 269 z m 90 625 l 124 625 l 126 635 l 104 635 l 106 650 l 126 650 l 131 660 l 110 660 l 113 674 l 133 674 l 135 683 l 101 683 z m 544 324 l 496 324 b 506 340 496 331 500 335 b 522 347 508 344 515 347 b 540 340 531 347 535 343 b 544 324 544 335 544 331 z m 228 540 l 233 540 l 233 576 l 243 540 l 247 540 l 257 576 l 256 540 l 263 540 l 263 583 l 253 583 l 246 551 l 244 551 l 238 583 l 228 583 z m 725 142 b 749 176 746 142 749 156 b 724 211 749 197 746 211 b 701 176 704 211 701 197 b 725 142 701 156 704 142 z m 725 151 b 717 176 717 151 717 158 b 725 201 717 194 717 201 b 735 176 733 201 735 194 b 725 151 735 158 733 151 z m 133 625 l 146 625 l 151 650 l 158 650 b 164 642 163 650 164 647 l 161 631 b 161 625 160 628 160 626 l 175 625 b 174 635 172 626 172 631 b 168 653 176 649 176 653 b 182 668 174 656 181 660 b 168 683 183 678 178 683 l 146 683 z m 158 658 l 153 658 l 156 675 l 161 675 b 168 667 168 675 169 672 b 158 658 168 660 163 658 z m 271 540 l 278 540 l 279 576 l 286 540 l 292 540 l 303 576 l 301 540 l 308 540 l 307 583 l 296 583 l 289 551 l 281 583 l 271 583 z m 626 281 b 610 294 615 281 610 285 b 618 308 610 300 613 306 b 638 315 624 314 629 315 b 647 314 639 315 643 315 l 646 292 b 626 281 642 285 635 281 z m 201 624 b 225 642 213 624 224 628 b 217 657 226 649 225 653 l 208 661 b 204 669 204 664 203 665 b 213 676 206 674 206 676 b 218 667 217 676 218 674 l 228 667 l 231 668 b 215 685 232 681 225 685 b 192 668 203 685 196 681 b 203 650 190 658 193 653 b 211 640 211 647 213 644 b 203 632 213 635 207 632 b 199 642 196 632 197 635 l 197 643 l 186 643 l 185 640 b 201 624 182 631 186 624 z m 763 142 l 776 142 l 776 197 l 788 142 l 799 142 l 813 197 l 811 142 l 824 142 l 824 210 l 804 210 l 793 161 l 783 210 l 764 210 z m 14 747 l 15 747 l 83 833 l 14 833 z m 314 540 l 338 540 l 338 547 l 321 547 l 321 560 l 338 560 l 338 565 l 321 565 l 322 576 l 339 576 l 338 583 l 314 583 z m 621 268 b 646 278 632 268 642 272 b 656 283 650 281 653 281 b 663 292 660 285 664 289 l 663 324 b 654 351 664 335 660 344 b 632 360 650 357 642 358 b 604 342 626 360 608 347 b 604 339 601 336 604 339 b 628 344 611 343 618 344 b 646 325 642 344 646 339 b 636 326 643 325 640 326 b 606 317 624 326 613 324 b 596 294 599 311 594 303 b 601 275 594 286 597 281 b 621 268 607 269 614 268 z m 600 268 b 597 272 600 268 603 272 b 585 297 590 274 585 285 l 585 482 b 572 478 585 482 575 481 b 569 468 569 475 569 468 l 571 294 b 600 268 569 276 581 268 z m 344 540 l 351 540 l 351 558 l 356 558 b 363 551 361 558 364 557 b 364 543 364 549 363 547 b 364 540 364 542 365 542 l 372 540 b 371 543 372 542 369 542 b 369 553 369 547 371 550 b 364 561 369 558 368 561 b 369 572 368 561 369 567 b 360 583 369 581 365 583 l 344 583 z m 356 564 l 350 564 l 351 578 l 356 578 b 363 572 361 578 364 575 b 356 564 363 567 361 564 z m 249 624 b 278 656 268 624 272 636 b 263 685 282 672 282 685 b 236 656 246 685 242 672 b 249 624 232 636 232 624 z m 253 632 b 247 656 244 632 244 639 b 261 676 251 669 254 676 b 264 656 268 676 268 669 b 253 632 261 639 260 632 z m 389 540 b 403 556 401 540 403 547 l 397 556 b 389 544 396 551 396 544 b 383 561 385 544 383 549 b 389 578 383 575 385 578 b 397 569 394 578 397 575 l 404 569 b 390 583 403 575 403 583 b 376 561 379 583 378 576 b 389 540 376 547 379 540 z m 408 540 l 417 540 l 415 583 l 407 583 z m 282 625 l 293 625 l 301 667 l 308 625 l 321 625 l 335 683 l 322 683 l 314 643 l 308 683 l 294 683 z m 78 747 l 157 747 l 222 833 l 143 833 z m 419 540 l 426 540 l 429 550 l 442 550 l 444 540 l 451 540 l 439 583 l 431 583 z m 431 557 l 436 576 l 440 557 z m 597 406 l 594 403 b 649 425 615 411 628 415 b 657 433 651 425 654 431 b 664 439 660 433 665 439 l 611 418 b 601 410 608 417 604 414 b 597 406 600 410 594 406 z m 483 535 l 482 532 b 489 540 488 532 490 535 l 490 549 l 483 549 l 483 540 l 485 540 b 483 535 485 536 485 535 z m 454 540 l 478 540 l 478 547 l 461 547 l 461 583 l 454 583 z m 329 625 l 343 625 l 347 636 l 363 636 l 363 625 l 376 625 l 372 683 l 358 683 z m 351 647 l 364 674 l 364 647 z m 385 625 l 418 625 l 421 635 l 399 635 l 410 683 l 397 683 z m 510 540 l 517 540 l 517 558 l 522 558 b 535 569 531 558 533 564 b 522 583 535 578 531 583 l 510 583 z m 521 564 l 515 564 l 517 578 l 521 578 b 529 569 526 578 528 575 b 521 564 528 565 524 564 z m 539 540 l 563 540 l 563 547 l 546 547 l 546 583 l 539 583 z m 218 747 l 297 747 l 363 833 l 285 833 z m 568 540 l 592 540 l 592 547 l 575 547 l 575 560 l 590 560 l 589 565 l 575 565 l 575 576 l 592 576 l 590 583 l 568 583 z m 469 624 b 493 642 479 624 490 626 l 501 683 l 489 683 l 482 642 b 471 632 479 636 476 632 b 467 642 467 632 464 636 l 475 683 l 463 683 l 456 642 b 469 624 451 626 460 624 z m 593 540 l 600 540 l 604 550 l 615 550 l 618 540 l 625 540 l 614 583 l 604 583 z m 606 557 l 611 576 l 615 557 z m 515 624 b 542 642 529 624 539 628 b 533 657 543 649 542 653 l 525 661 b 521 669 519 664 519 665 b 529 676 522 674 522 676 b 533 667 533 676 535 674 l 544 667 l 546 668 b 529 685 549 681 542 685 b 508 668 519 685 513 681 b 519 650 507 658 510 653 b 528 640 528 647 529 644 b 519 632 529 635 524 632 b 514 642 513 632 514 635 l 514 643 l 501 643 l 501 640 b 515 624 499 631 503 624 z m 639 540 b 654 551 650 540 656 543 b 646 564 654 558 651 561 l 642 565 b 635 574 636 567 635 568 b 639 578 636 576 638 578 b 646 574 644 578 647 576 l 646 572 l 653 572 l 653 574 b 640 583 654 576 651 583 b 628 572 632 583 628 581 b 636 560 628 565 632 561 l 642 558 b 649 550 646 557 649 556 b 640 544 649 549 644 544 b 635 551 636 544 635 547 l 635 553 l 628 553 b 639 540 628 547 629 540 z m 661 540 l 685 540 l 685 547 l 668 547 l 668 560 l 683 560 l 683 565 l 668 565 l 669 576 l 683 576 l 682 583 l 661 583 z m 549 625 l 582 625 l 585 635 l 563 635 l 564 650 l 585 650 l 589 660 l 568 660 l 572 674 l 592 674 l 594 683 l 561 683 z m 360 747 l 438 747 l 504 833 l 425 833 z m 710 540 l 718 540 l 728 583 l 721 583 l 714 549 l 706 583 l 699 583 z m 731 540 l 738 540 l 738 583 l 731 583 z m 635 624 b 661 656 653 624 657 636 b 649 685 667 672 667 685 b 621 656 629 685 625 672 b 635 624 618 636 615 624 z m 636 632 b 632 656 629 632 629 639 b 646 676 636 669 639 676 b 649 656 653 676 653 669 b 636 632 646 639 644 632 z m 758 540 b 771 551 767 540 772 543 b 763 564 771 558 769 561 l 758 565 b 751 574 754 567 751 568 b 758 578 753 576 754 578 b 763 574 761 578 764 576 l 763 572 l 771 572 l 771 574 b 757 583 772 576 769 583 b 744 572 749 583 744 581 b 754 560 744 565 749 561 l 758 558 b 765 550 764 557 765 556 b 757 544 765 549 763 544 b 751 551 753 544 751 547 l 751 553 l 744 553 b 758 540 744 547 746 540 z m 778 540 l 785 540 l 785 583 l 778 583 z m 797 540 l 806 540 l 807 576 l 817 576 l 815 583 l 788 583 l 789 576 l 799 576 z m 667 625 l 678 625 l 686 667 l 693 625 l 707 625 l 719 683 l 708 683 l 700 643 l 693 683 l 679 683 z m 719 625 l 751 625 l 756 635 l 733 635 l 743 683 l 731 683 z m 499 747 l 579 747 l 644 833 l 564 833 z m 804 625 l 815 625 l 818 635 l 807 635 z m 765 625 l 778 625 l 783 649 l 806 683 l 793 683 l 781 661 l 776 683 l 763 683 l 771 649 z m 810 642 l 818 642 l 825 665 l 828 683 l 817 683 l 813 665 z m 639 747 l 719 747 l 785 833 l 706 833 z m 781 747 l 849 747 l 850 833 l 846 833 z "},"7":{"ha":864,"x_min":0,"x_max":0,"o":"m 210 367 b 224 375 214 368 222 372 b 226 385 226 378 226 382 b 221 390 225 386 221 389 l 222 392 l 224 392 b 483 456 256 400 442 435 b 496 461 489 457 493 460 l 501 467 b 499 467 503 468 501 468 b 233 403 451 447 265 414 b 224 397 228 401 226 399 l 215 390 b 217 381 213 386 213 383 b 215 372 219 376 218 374 b 210 368 214 372 211 369 b 210 367 210 368 208 367 z m 15 0 l 17 0 l 83 86 l 15 86 z m 78 0 l 158 0 l 224 86 l 144 86 z m 44 142 l 58 142 l 58 190 l 75 142 l 90 142 l 90 210 l 79 210 l 78 164 l 63 210 l 46 210 z m 101 142 l 117 142 l 118 157 l 136 157 l 140 142 l 154 142 l 138 210 l 121 210 z m 218 0 l 299 0 l 364 86 l 286 86 z m 121 168 l 128 199 l 135 168 z m 167 142 l 178 142 l 179 197 l 192 142 l 201 142 l 214 197 l 213 142 l 226 142 l 226 210 l 207 210 l 196 161 l 188 210 l 167 210 z m 243 142 l 282 142 l 281 153 l 256 153 l 256 172 l 279 172 l 281 183 l 257 183 l 256 199 l 279 199 l 281 210 l 243 210 z m 360 0 l 439 0 l 506 86 l 425 86 z m 294 142 l 333 142 l 333 153 l 308 153 l 308 210 l 296 210 z m 342 142 l 354 142 l 358 157 l 376 157 l 379 142 l 393 142 l 376 210 l 358 210 z m 361 168 l 365 199 l 368 199 l 374 168 z m 199 335 l 199 269 b 211 272 199 269 208 269 b 215 281 215 275 215 281 l 215 335 b 222 343 217 339 219 342 b 235 347 226 344 231 347 b 249 340 242 347 244 344 b 253 322 251 336 253 331 l 253 281 b 254 272 253 281 254 275 b 269 269 258 268 269 269 l 268 325 b 240 360 268 349 258 360 b 215 347 229 360 219 356 b 201 340 211 343 208 344 b 199 335 199 339 199 335 z m 500 0 l 581 0 l 646 86 l 565 86 z m 411 142 l 425 142 l 424 199 l 439 199 l 440 210 l 397 210 l 396 199 l 411 199 z m 308 281 b 292 294 299 281 292 285 b 300 308 292 300 294 306 b 321 315 306 314 313 315 b 331 314 322 315 325 315 l 329 292 b 308 281 322 285 317 281 z m 301 268 b 329 278 314 268 322 272 b 338 283 332 281 335 281 b 344 292 342 285 346 289 l 344 324 b 336 351 346 335 342 344 b 314 360 331 357 324 358 b 286 342 308 360 292 347 b 288 339 283 336 288 339 b 310 344 293 343 300 344 b 329 325 324 344 329 339 b 318 326 325 325 322 326 b 288 317 307 326 296 324 b 276 294 279 311 276 303 b 285 275 276 286 281 281 b 301 268 290 269 296 268 z m 465 142 l 478 142 l 478 168 l 497 210 l 482 210 l 472 183 l 464 210 l 449 210 l 465 168 z m 279 356 b 292 378 281 356 293 376 b 279 393 285 381 279 386 b 276 393 278 394 276 393 b 274 386 275 392 274 390 l 267 374 b 279 356 265 365 274 358 z m 508 142 l 521 142 l 522 169 l 531 169 b 551 190 542 169 551 176 b 532 210 551 200 547 210 l 508 210 z m 51 540 l 58 540 l 58 560 l 74 560 l 72 565 l 58 565 l 58 576 l 75 576 l 74 583 l 51 583 z m 528 181 l 521 181 l 521 200 l 528 200 b 538 190 535 200 538 197 b 528 181 538 183 533 181 z m 640 0 l 719 0 l 786 86 l 707 86 z m 93 540 b 107 561 103 540 107 547 b 93 583 107 576 103 583 b 78 561 82 583 79 576 b 93 540 78 547 83 540 z m 93 544 b 86 561 88 544 86 547 b 93 578 88 576 88 578 b 100 561 96 578 100 576 b 93 544 100 547 96 544 z m 356 269 b 367 272 356 269 364 269 b 369 281 371 275 369 281 l 371 335 b 378 343 371 339 374 340 b 389 347 382 344 385 347 b 400 343 393 347 396 344 b 404 332 403 340 404 336 l 406 269 b 417 272 406 269 414 269 b 422 281 421 276 422 281 l 422 335 b 428 343 421 339 425 340 b 439 347 432 344 435 347 b 457 325 450 347 457 340 l 457 281 b 458 274 457 281 457 275 b 472 269 463 269 472 269 l 472 328 b 465 351 471 339 471 347 b 443 360 460 357 451 360 b 428 357 439 360 433 358 b 418 349 424 353 419 351 b 392 360 413 356 406 360 b 369 349 383 360 374 356 b 357 339 367 343 360 342 l 356 333 z m 565 142 l 603 142 l 603 153 l 578 153 l 578 172 l 599 172 l 600 183 l 579 183 l 578 199 l 601 199 l 601 210 l 565 210 z m 617 142 l 629 142 l 631 157 l 617 157 z m 113 540 l 121 540 l 121 558 l 126 558 b 132 551 131 558 133 557 b 133 543 133 549 133 547 l 133 540 l 142 540 b 140 543 142 542 140 542 l 140 553 b 133 561 139 558 136 561 b 139 572 139 561 140 567 b 128 583 140 581 135 583 l 113 583 z m 125 564 l 121 564 l 121 578 l 126 578 b 133 572 131 578 133 575 b 125 564 133 567 129 564 z m 175 540 b 189 556 185 540 188 547 l 182 556 b 174 544 181 551 179 544 b 168 561 169 544 168 549 b 175 578 168 575 169 578 b 182 569 179 578 182 575 l 189 569 b 174 583 189 575 186 583 b 160 561 163 583 161 576 b 175 540 160 547 163 540 z m 42 625 l 54 625 l 60 649 l 67 649 b 89 667 76 649 86 653 b 76 683 89 675 88 683 l 54 683 z m 782 0 l 850 0 l 850 86 l 847 86 z m 67 657 l 61 657 l 64 675 l 69 675 b 76 667 76 675 78 672 b 67 657 75 660 71 657 z m 668 142 b 690 168 685 142 689 153 l 675 168 b 667 151 675 153 672 151 b 658 175 663 151 658 156 b 667 201 658 194 660 201 b 675 186 674 201 675 197 l 688 186 b 668 211 689 197 686 211 b 644 176 646 211 646 197 b 668 142 644 156 646 142 z m 206 540 b 222 561 217 540 221 547 b 206 583 222 576 215 583 b 193 561 196 583 194 576 b 206 540 193 547 196 540 z m 206 544 b 200 561 203 544 200 547 b 206 578 200 576 203 578 b 214 561 210 578 214 576 b 206 544 213 547 210 544 z m 513 269 b 542 282 518 268 532 276 b 542 285 544 283 547 289 b 524 282 535 283 531 282 b 506 289 517 282 510 283 b 496 311 499 293 497 301 l 560 311 b 561 322 560 315 561 318 b 549 349 561 333 557 342 b 522 360 543 357 533 360 b 493 349 510 360 501 356 b 481 314 485 339 481 326 b 493 281 479 299 483 289 b 513 269 499 275 504 269 z m 90 625 l 124 625 l 126 635 l 104 635 l 106 650 l 126 650 l 131 660 l 110 660 l 113 674 l 133 674 l 135 683 l 101 683 z m 544 324 l 496 324 b 506 340 496 331 500 335 b 522 347 508 344 515 347 b 540 340 531 347 535 343 b 544 324 544 335 544 331 z m 228 540 l 233 540 l 233 576 l 243 540 l 247 540 l 257 576 l 256 540 l 263 540 l 263 583 l 253 583 l 246 551 l 244 551 l 238 583 l 228 583 z m 725 142 b 749 176 746 142 749 156 b 724 211 749 197 746 211 b 701 176 704 211 701 197 b 725 142 701 156 704 142 z m 725 151 b 717 176 717 151 717 158 b 725 201 717 194 717 201 b 735 176 733 201 735 194 b 725 151 735 158 733 151 z m 133 625 l 146 625 l 151 650 l 158 650 b 164 642 163 650 164 647 l 161 631 b 161 625 160 628 160 626 l 175 625 b 174 635 172 626 172 631 b 168 653 176 649 176 653 b 182 668 174 656 181 660 b 168 683 183 678 178 683 l 146 683 z m 158 658 l 153 658 l 156 675 l 161 675 b 168 667 168 675 169 672 b 158 658 168 660 163 658 z m 271 540 l 278 540 l 279 576 l 286 540 l 292 540 l 303 576 l 301 540 l 308 540 l 307 583 l 296 583 l 289 551 l 281 583 l 271 583 z m 626 281 b 610 294 615 281 610 285 b 618 308 610 300 613 306 b 638 315 624 314 629 315 b 647 314 639 315 643 315 l 646 292 b 626 281 642 285 635 281 z m 201 624 b 225 642 213 624 224 628 b 217 657 226 649 225 653 l 208 661 b 204 669 204 664 203 665 b 213 676 206 674 206 676 b 218 667 217 676 218 674 l 228 667 l 231 668 b 215 685 232 681 225 685 b 192 668 203 685 196 681 b 203 650 190 658 193 653 b 211 640 211 647 213 644 b 203 632 213 635 207 632 b 199 642 196 632 197 635 l 197 643 l 186 643 l 185 640 b 201 624 182 631 186 624 z m 763 142 l 776 142 l 776 197 l 788 142 l 799 142 l 813 197 l 811 142 l 824 142 l 824 210 l 804 210 l 793 161 l 783 210 l 764 210 z m 14 747 l 15 747 l 83 833 l 14 833 z m 314 540 l 338 540 l 338 547 l 321 547 l 321 560 l 338 560 l 338 565 l 321 565 l 322 576 l 339 576 l 338 583 l 314 583 z m 621 268 b 646 278 632 268 642 272 b 656 283 650 281 653 281 b 663 292 660 285 664 289 l 663 324 b 654 351 664 335 660 344 b 632 360 650 357 642 358 b 604 342 626 360 608 347 b 604 339 601 336 604 339 b 628 344 611 343 618 344 b 646 325 642 344 646 339 b 636 326 643 325 640 326 b 606 317 624 326 613 324 b 596 294 599 311 594 303 b 601 275 594 286 597 281 b 621 268 607 269 614 268 z m 600 268 b 597 272 600 268 603 272 b 585 297 590 274 585 285 l 585 482 b 572 478 585 482 575 481 b 569 468 569 475 569 468 l 571 294 b 600 268 569 276 581 268 z m 344 540 l 351 540 l 351 558 l 356 558 b 363 551 361 558 364 557 b 364 543 364 549 363 547 b 364 540 364 542 365 542 l 372 540 b 371 543 372 542 369 542 b 369 553 369 547 371 550 b 364 561 369 558 368 561 b 369 572 368 561 369 567 b 360 583 369 581 365 583 l 344 583 z m 356 564 l 350 564 l 351 578 l 356 578 b 363 572 361 578 364 575 b 356 564 363 567 361 564 z m 249 624 b 278 656 268 624 272 636 b 263 685 282 672 282 685 b 236 656 246 685 242 672 b 249 624 232 636 232 624 z m 253 632 b 247 656 244 632 244 639 b 261 676 251 669 254 676 b 264 656 268 676 268 669 b 253 632 261 639 260 632 z m 389 540 b 403 556 401 540 403 547 l 397 556 b 389 544 396 551 396 544 b 383 561 385 544 383 549 b 389 578 383 575 385 578 b 397 569 394 578 397 575 l 404 569 b 390 583 403 575 403 583 b 376 561 379 583 378 576 b 389 540 376 547 379 540 z m 408 540 l 417 540 l 415 583 l 407 583 z m 282 625 l 293 625 l 301 667 l 308 625 l 321 625 l 335 683 l 322 683 l 314 643 l 308 683 l 294 683 z m 78 747 l 157 747 l 222 833 l 143 833 z m 419 540 l 426 540 l 429 550 l 442 550 l 444 540 l 451 540 l 439 583 l 431 583 z m 431 557 l 436 576 l 440 557 z m 597 406 l 594 403 b 649 425 615 411 628 415 b 657 433 651 425 654 431 b 664 439 660 433 665 439 l 611 418 b 601 410 608 417 604 414 b 597 406 600 410 594 406 z m 483 535 l 482 532 b 489 540 488 532 490 535 l 490 549 l 483 549 l 483 540 l 485 540 b 483 535 485 536 485 535 z m 454 540 l 478 540 l 478 547 l 461 547 l 461 583 l 454 583 z m 329 625 l 343 625 l 347 636 l 363 636 l 363 625 l 376 625 l 372 683 l 358 683 z m 351 647 l 364 674 l 364 647 z m 385 625 l 418 625 l 421 635 l 399 635 l 410 683 l 397 683 z m 510 540 l 517 540 l 517 558 l 522 558 b 535 569 531 558 533 564 b 522 583 535 578 531 583 l 510 583 z m 521 564 l 515 564 l 517 578 l 521 578 b 529 569 526 578 528 575 b 521 564 528 565 524 564 z m 539 540 l 563 540 l 563 547 l 546 547 l 546 583 l 539 583 z m 218 747 l 297 747 l 363 833 l 285 833 z m 568 540 l 592 540 l 592 547 l 575 547 l 575 560 l 590 560 l 589 565 l 575 565 l 575 576 l 592 576 l 590 583 l 568 583 z m 469 624 b 493 642 479 624 490 626 l 501 683 l 489 683 l 482 642 b 471 632 479 636 476 632 b 467 642 467 632 464 636 l 475 683 l 463 683 l 456 642 b 469 624 451 626 460 624 z m 593 540 l 600 540 l 604 550 l 615 550 l 618 540 l 625 540 l 614 583 l 604 583 z m 606 557 l 611 576 l 615 557 z m 515 624 b 542 642 529 624 539 628 b 533 657 543 649 542 653 l 525 661 b 521 669 519 664 519 665 b 529 676 522 674 522 676 b 533 667 533 676 535 674 l 544 667 l 546 668 b 529 685 549 681 542 685 b 508 668 519 685 513 681 b 519 650 507 658 510 653 b 528 640 528 647 529 644 b 519 632 529 635 524 632 b 514 642 513 632 514 635 l 514 643 l 501 643 l 501 640 b 515 624 499 631 503 624 z m 639 540 b 654 551 650 540 656 543 b 646 564 654 558 651 561 l 642 565 b 635 574 636 567 635 568 b 639 578 636 576 638 578 b 646 574 644 578 647 576 l 646 572 l 653 572 l 653 574 b 640 583 654 576 651 583 b 628 572 632 583 628 581 b 636 560 628 565 632 561 l 642 558 b 649 550 646 557 649 556 b 640 544 649 549 644 544 b 635 551 636 544 635 547 l 635 553 l 628 553 b 639 540 628 547 629 540 z m 661 540 l 685 540 l 685 547 l 668 547 l 668 560 l 683 560 l 683 565 l 668 565 l 669 576 l 683 576 l 682 583 l 661 583 z m 549 625 l 582 625 l 585 635 l 563 635 l 564 650 l 585 650 l 589 660 l 568 660 l 572 674 l 592 674 l 594 683 l 561 683 z m 360 747 l 438 747 l 504 833 l 425 833 z m 710 540 l 718 540 l 728 583 l 721 583 l 714 549 l 706 583 l 699 583 z m 731 540 l 738 540 l 738 583 l 731 583 z m 635 624 b 661 656 653 624 657 636 b 649 685 667 672 667 685 b 621 656 629 685 625 672 b 635 624 618 636 615 624 z m 636 632 b 632 656 629 632 629 639 b 646 676 636 669 639 676 b 649 656 653 676 653 669 b 636 632 646 639 644 632 z m 758 540 b 771 551 767 540 772 543 b 763 564 771 558 769 561 l 758 565 b 751 574 754 567 751 568 b 758 578 753 576 754 578 b 763 574 761 578 764 576 l 763 572 l 771 572 l 771 574 b 757 583 772 576 769 583 b 744 572 749 583 744 581 b 754 560 744 565 749 561 l 758 558 b 765 550 764 557 765 556 b 757 544 765 549 763 544 b 751 551 753 544 751 547 l 751 553 l 744 553 b 758 540 744 547 746 540 z m 778 540 l 785 540 l 785 583 l 778 583 z m 797 540 l 806 540 l 807 576 l 817 576 l 815 583 l 788 583 l 789 576 l 799 576 z m 667 625 l 678 625 l 686 667 l 693 625 l 707 625 l 719 683 l 708 683 l 700 643 l 693 683 l 679 683 z m 719 625 l 751 625 l 756 635 l 733 635 l 743 683 l 731 683 z m 499 747 l 579 747 l 644 833 l 564 833 z m 804 625 l 815 625 l 818 635 l 807 635 z m 765 625 l 778 625 l 783 649 l 806 683 l 793 683 l 781 661 l 776 683 l 763 683 l 771 649 z m 810 642 l 818 642 l 825 665 l 828 683 l 817 683 l 813 665 z m 639 747 l 719 747 l 785 833 l 706 833 z m 781 747 l 849 747 l 850 833 l 846 833 z "},"8":{"ha":864,"x_min":0,"x_max":0,"o":"m 210 367 b 224 375 214 368 222 372 b 226 385 226 378 226 382 b 221 390 225 386 221 389 l 222 392 l 224 392 b 483 456 256 400 442 435 b 496 461 489 457 493 460 l 501 467 b 499 467 503 468 501 468 b 233 403 451 447 265 414 b 224 397 228 401 226 399 l 215 390 b 217 381 213 386 213 383 b 215 372 219 376 218 374 b 210 368 214 372 211 369 b 210 367 210 368 208 367 z m 15 0 l 17 0 l 83 86 l 15 86 z m 78 0 l 158 0 l 224 86 l 144 86 z m 44 142 l 58 142 l 58 190 l 75 142 l 90 142 l 90 210 l 79 210 l 78 164 l 63 210 l 46 210 z m 101 142 l 117 142 l 118 157 l 136 157 l 140 142 l 154 142 l 138 210 l 121 210 z m 218 0 l 299 0 l 364 86 l 286 86 z m 121 168 l 128 199 l 135 168 z m 167 142 l 178 142 l 179 197 l 192 142 l 201 142 l 214 197 l 213 142 l 226 142 l 226 210 l 207 210 l 196 161 l 188 210 l 167 210 z m 243 142 l 282 142 l 281 153 l 256 153 l 256 172 l 279 172 l 281 183 l 257 183 l 256 199 l 279 199 l 281 210 l 243 210 z m 360 0 l 439 0 l 506 86 l 425 86 z m 294 142 l 333 142 l 333 153 l 308 153 l 308 210 l 296 210 z m 342 142 l 354 142 l 358 157 l 376 157 l 379 142 l 393 142 l 376 210 l 358 210 z m 361 168 l 365 199 l 368 199 l 374 168 z m 199 335 l 199 269 b 211 272 199 269 208 269 b 215 281 215 275 215 281 l 215 335 b 222 343 217 339 219 342 b 235 347 226 344 231 347 b 249 340 242 347 244 344 b 253 322 251 336 253 331 l 253 281 b 254 272 253 281 254 275 b 269 269 258 268 269 269 l 268 325 b 240 360 268 349 258 360 b 215 347 229 360 219 356 b 201 340 211 343 208 344 b 199 335 199 339 199 335 z m 500 0 l 581 0 l 646 86 l 565 86 z m 411 142 l 425 142 l 424 199 l 439 199 l 440 210 l 397 210 l 396 199 l 411 199 z m 308 281 b 292 294 299 281 292 285 b 300 308 292 300 294 306 b 321 315 306 314 313 315 b 331 314 322 315 325 315 l 329 292 b 308 281 322 285 317 281 z m 301 268 b 329 278 314 268 322 272 b 338 283 332 281 335 281 b 344 292 342 285 346 289 l 344 324 b 336 351 346 335 342 344 b 314 360 331 357 324 358 b 286 342 308 360 292 347 b 288 339 283 336 288 339 b 310 344 293 343 300 344 b 329 325 324 344 329 339 b 318 326 325 325 322 326 b 288 317 307 326 296 324 b 276 294 279 311 276 303 b 285 275 276 286 281 281 b 301 268 290 269 296 268 z m 465 142 l 478 142 l 478 168 l 497 210 l 482 210 l 472 183 l 464 210 l 449 210 l 465 168 z m 279 356 b 292 378 281 356 293 376 b 279 393 285 381 279 386 b 276 393 278 394 276 393 b 274 386 275 392 274 390 l 267 374 b 279 356 265 365 274 358 z m 508 142 l 521 142 l 522 169 l 531 169 b 551 190 542 169 551 176 b 532 210 551 200 547 210 l 508 210 z m 51 540 l 58 540 l 58 560 l 74 560 l 72 565 l 58 565 l 58 576 l 75 576 l 74 583 l 51 583 z m 528 181 l 521 181 l 521 200 l 528 200 b 538 190 535 200 538 197 b 528 181 538 183 533 181 z m 640 0 l 719 0 l 786 86 l 707 86 z m 93 540 b 107 561 103 540 107 547 b 93 583 107 576 103 583 b 78 561 82 583 79 576 b 93 540 78 547 83 540 z m 93 544 b 86 561 88 544 86 547 b 93 578 88 576 88 578 b 100 561 96 578 100 576 b 93 544 100 547 96 544 z m 356 269 b 367 272 356 269 364 269 b 369 281 371 275 369 281 l 371 335 b 378 343 371 339 374 340 b 389 347 382 344 385 347 b 400 343 393 347 396 344 b 404 332 403 340 404 336 l 406 269 b 417 272 406 269 414 269 b 422 281 421 276 422 281 l 422 335 b 428 343 421 339 425 340 b 439 347 432 344 435 347 b 457 325 450 347 457 340 l 457 281 b 458 274 457 281 457 275 b 472 269 463 269 472 269 l 472 328 b 465 351 471 339 471 347 b 443 360 460 357 451 360 b 428 357 439 360 433 358 b 418 349 424 353 419 351 b 392 360 413 356 406 360 b 369 349 383 360 374 356 b 357 339 367 343 360 342 l 356 333 z m 565 142 l 603 142 l 603 153 l 578 153 l 578 172 l 599 172 l 600 183 l 579 183 l 578 199 l 601 199 l 601 210 l 565 210 z m 617 142 l 629 142 l 631 157 l 617 157 z m 113 540 l 121 540 l 121 558 l 126 558 b 132 551 131 558 133 557 b 133 543 133 549 133 547 l 133 540 l 142 540 b 140 543 142 542 140 542 l 140 553 b 133 561 139 558 136 561 b 139 572 139 561 140 567 b 128 583 140 581 135 583 l 113 583 z m 125 564 l 121 564 l 121 578 l 126 578 b 133 572 131 578 133 575 b 125 564 133 567 129 564 z m 175 540 b 189 556 185 540 188 547 l 182 556 b 174 544 181 551 179 544 b 168 561 169 544 168 549 b 175 578 168 575 169 578 b 182 569 179 578 182 575 l 189 569 b 174 583 189 575 186 583 b 160 561 163 583 161 576 b 175 540 160 547 163 540 z m 42 625 l 54 625 l 60 649 l 67 649 b 89 667 76 649 86 653 b 76 683 89 675 88 683 l 54 683 z m 782 0 l 850 0 l 850 86 l 847 86 z m 67 657 l 61 657 l 64 675 l 69 675 b 76 667 76 675 78 672 b 67 657 75 660 71 657 z m 668 142 b 690 168 685 142 689 153 l 675 168 b 667 151 675 153 672 151 b 658 175 663 151 658 156 b 667 201 658 194 660 201 b 675 186 674 201 675 197 l 688 186 b 668 211 689 197 686 211 b 644 176 646 211 646 197 b 668 142 644 156 646 142 z m 206 540 b 222 561 217 540 221 547 b 206 583 222 576 215 583 b 193 561 196 583 194 576 b 206 540 193 547 196 540 z m 206 544 b 200 561 203 544 200 547 b 206 578 200 576 203 578 b 214 561 210 578 214 576 b 206 544 213 547 210 544 z m 513 269 b 542 282 518 268 532 276 b 542 285 544 283 547 289 b 524 282 535 283 531 282 b 506 289 517 282 510 283 b 496 311 499 293 497 301 l 560 311 b 561 322 560 315 561 318 b 549 349 561 333 557 342 b 522 360 543 357 533 360 b 493 349 510 360 501 356 b 481 314 485 339 481 326 b 493 281 479 299 483 289 b 513 269 499 275 504 269 z m 90 625 l 124 625 l 126 635 l 104 635 l 106 650 l 126 650 l 131 660 l 110 660 l 113 674 l 133 674 l 135 683 l 101 683 z m 544 324 l 496 324 b 506 340 496 331 500 335 b 522 347 508 344 515 347 b 540 340 531 347 535 343 b 544 324 544 335 544 331 z m 228 540 l 233 540 l 233 576 l 243 540 l 247 540 l 257 576 l 256 540 l 263 540 l 263 583 l 253 583 l 246 551 l 244 551 l 238 583 l 228 583 z m 725 142 b 749 176 746 142 749 156 b 724 211 749 197 746 211 b 701 176 704 211 701 197 b 725 142 701 156 704 142 z m 725 151 b 717 176 717 151 717 158 b 725 201 717 194 717 201 b 735 176 733 201 735 194 b 725 151 735 158 733 151 z m 133 625 l 146 625 l 151 650 l 158 650 b 164 642 163 650 164 647 l 161 631 b 161 625 160 628 160 626 l 175 625 b 174 635 172 626 172 631 b 168 653 176 649 176 653 b 182 668 174 656 181 660 b 168 683 183 678 178 683 l 146 683 z m 158 658 l 153 658 l 156 675 l 161 675 b 168 667 168 675 169 672 b 158 658 168 660 163 658 z m 271 540 l 278 540 l 279 576 l 286 540 l 292 540 l 303 576 l 301 540 l 308 540 l 307 583 l 296 583 l 289 551 l 281 583 l 271 583 z m 626 281 b 610 294 615 281 610 285 b 618 308 610 300 613 306 b 638 315 624 314 629 315 b 647 314 639 315 643 315 l 646 292 b 626 281 642 285 635 281 z m 201 624 b 225 642 213 624 224 628 b 217 657 226 649 225 653 l 208 661 b 204 669 204 664 203 665 b 213 676 206 674 206 676 b 218 667 217 676 218 674 l 228 667 l 231 668 b 215 685 232 681 225 685 b 192 668 203 685 196 681 b 203 650 190 658 193 653 b 211 640 211 647 213 644 b 203 632 213 635 207 632 b 199 642 196 632 197 635 l 197 643 l 186 643 l 185 640 b 201 624 182 631 186 624 z m 763 142 l 776 142 l 776 197 l 788 142 l 799 142 l 813 197 l 811 142 l 824 142 l 824 210 l 804 210 l 793 161 l 783 210 l 764 210 z m 14 747 l 15 747 l 83 833 l 14 833 z m 314 540 l 338 540 l 338 547 l 321 547 l 321 560 l 338 560 l 338 565 l 321 565 l 322 576 l 339 576 l 338 583 l 314 583 z m 621 268 b 646 278 632 268 642 272 b 656 283 650 281 653 281 b 663 292 660 285 664 289 l 663 324 b 654 351 664 335 660 344 b 632 360 650 357 642 358 b 604 342 626 360 608 347 b 604 339 601 336 604 339 b 628 344 611 343 618 344 b 646 325 642 344 646 339 b 636 326 643 325 640 326 b 606 317 624 326 613 324 b 596 294 599 311 594 303 b 601 275 594 286 597 281 b 621 268 607 269 614 268 z m 600 268 b 597 272 600 268 603 272 b 585 297 590 274 585 285 l 585 482 b 572 478 585 482 575 481 b 569 468 569 475 569 468 l 571 294 b 600 268 569 276 581 268 z m 344 540 l 351 540 l 351 558 l 356 558 b 363 551 361 558 364 557 b 364 543 364 549 363 547 b 364 540 364 542 365 542 l 372 540 b 371 543 372 542 369 542 b 369 553 369 547 371 550 b 364 561 369 558 368 561 b 369 572 368 561 369 567 b 360 583 369 581 365 583 l 344 583 z m 356 564 l 350 564 l 351 578 l 356 578 b 363 572 361 578 364 575 b 356 564 363 567 361 564 z m 249 624 b 278 656 268 624 272 636 b 263 685 282 672 282 685 b 236 656 246 685 242 672 b 249 624 232 636 232 624 z m 253 632 b 247 656 244 632 244 639 b 261 676 251 669 254 676 b 264 656 268 676 268 669 b 253 632 261 639 260 632 z m 389 540 b 403 556 401 540 403 547 l 397 556 b 389 544 396 551 396 544 b 383 561 385 544 383 549 b 389 578 383 575 385 578 b 397 569 394 578 397 575 l 404 569 b 390 583 403 575 403 583 b 376 561 379 583 378 576 b 389 540 376 547 379 540 z m 408 540 l 417 540 l 415 583 l 407 583 z m 282 625 l 293 625 l 301 667 l 308 625 l 321 625 l 335 683 l 322 683 l 314 643 l 308 683 l 294 683 z m 78 747 l 157 747 l 222 833 l 143 833 z m 419 540 l 426 540 l 429 550 l 442 550 l 444 540 l 451 540 l 439 583 l 431 583 z m 431 557 l 436 576 l 440 557 z m 597 406 l 594 403 b 649 425 615 411 628 415 b 657 433 651 425 654 431 b 664 439 660 433 665 439 l 611 418 b 601 410 608 417 604 414 b 597 406 600 410 594 406 z m 483 535 l 482 532 b 489 540 488 532 490 535 l 490 549 l 483 549 l 483 540 l 485 540 b 483 535 485 536 485 535 z m 454 540 l 478 540 l 478 547 l 461 547 l 461 583 l 454 583 z m 329 625 l 343 625 l 347 636 l 363 636 l 363 625 l 376 625 l 372 683 l 358 683 z m 351 647 l 364 674 l 364 647 z m 385 625 l 418 625 l 421 635 l 399 635 l 410 683 l 397 683 z m 510 540 l 517 540 l 517 558 l 522 558 b 535 569 531 558 533 564 b 522 583 535 578 531 583 l 510 583 z m 521 564 l 515 564 l 517 578 l 521 578 b 529 569 526 578 528 575 b 521 564 528 565 524 564 z m 539 540 l 563 540 l 563 547 l 546 547 l 546 583 l 539 583 z m 218 747 l 297 747 l 363 833 l 285 833 z m 568 540 l 592 540 l 592 547 l 575 547 l 575 560 l 590 560 l 589 565 l 575 565 l 575 576 l 592 576 l 590 583 l 568 583 z m 469 624 b 493 642 479 624 490 626 l 501 683 l 489 683 l 482 642 b 471 632 479 636 476 632 b 467 642 467 632 464 636 l 475 683 l 463 683 l 456 642 b 469 624 451 626 460 624 z m 593 540 l 600 540 l 604 550 l 615 550 l 618 540 l 625 540 l 614 583 l 604 583 z m 606 557 l 611 576 l 615 557 z m 515 624 b 542 642 529 624 539 628 b 533 657 543 649 542 653 l 525 661 b 521 669 519 664 519 665 b 529 676 522 674 522 676 b 533 667 533 676 535 674 l 544 667 l 546 668 b 529 685 549 681 542 685 b 508 668 519 685 513 681 b 519 650 507 658 510 653 b 528 640 528 647 529 644 b 519 632 529 635 524 632 b 514 642 513 632 514 635 l 514 643 l 501 643 l 501 640 b 515 624 499 631 503 624 z m 639 540 b 654 551 650 540 656 543 b 646 564 654 558 651 561 l 642 565 b 635 574 636 567 635 568 b 639 578 636 576 638 578 b 646 574 644 578 647 576 l 646 572 l 653 572 l 653 574 b 640 583 654 576 651 583 b 628 572 632 583 628 581 b 636 560 628 565 632 561 l 642 558 b 649 550 646 557 649 556 b 640 544 649 549 644 544 b 635 551 636 544 635 547 l 635 553 l 628 553 b 639 540 628 547 629 540 z m 661 540 l 685 540 l 685 547 l 668 547 l 668 560 l 683 560 l 683 565 l 668 565 l 669 576 l 683 576 l 682 583 l 661 583 z m 549 625 l 582 625 l 585 635 l 563 635 l 564 650 l 585 650 l 589 660 l 568 660 l 572 674 l 592 674 l 594 683 l 561 683 z m 360 747 l 438 747 l 504 833 l 425 833 z m 710 540 l 718 540 l 728 583 l 721 583 l 714 549 l 706 583 l 699 583 z m 731 540 l 738 540 l 738 583 l 731 583 z m 635 624 b 661 656 653 624 657 636 b 649 685 667 672 667 685 b 621 656 629 685 625 672 b 635 624 618 636 615 624 z m 636 632 b 632 656 629 632 629 639 b 646 676 636 669 639 676 b 649 656 653 676 653 669 b 636 632 646 639 644 632 z m 758 540 b 771 551 767 540 772 543 b 763 564 771 558 769 561 l 758 565 b 751 574 754 567 751 568 b 758 578 753 576 754 578 b 763 574 761 578 764 576 l 763 572 l 771 572 l 771 574 b 757 583 772 576 769 583 b 744 572 749 583 744 581 b 754 560 744 565 749 561 l 758 558 b 765 550 764 557 765 556 b 757 544 765 549 763 544 b 751 551 753 544 751 547 l 751 553 l 744 553 b 758 540 744 547 746 540 z m 778 540 l 785 540 l 785 583 l 778 583 z m 797 540 l 806 540 l 807 576 l 817 576 l 815 583 l 788 583 l 789 576 l 799 576 z m 667 625 l 678 625 l 686 667 l 693 625 l 707 625 l 719 683 l 708 683 l 700 643 l 693 683 l 679 683 z m 719 625 l 751 625 l 756 635 l 733 635 l 743 683 l 731 683 z m 499 747 l 579 747 l 644 833 l 564 833 z m 804 625 l 815 625 l 818 635 l 807 635 z m 765 625 l 778 625 l 783 649 l 806 683 l 793 683 l 781 661 l 776 683 l 763 683 l 771 649 z m 810 642 l 818 642 l 825 665 l 828 683 l 817 683 l 813 665 z m 639 747 l 719 747 l 785 833 l 706 833 z m 781 747 l 849 747 l 850 833 l 846 833 z "},"9":{"ha":864,"x_min":0,"x_max":0,"o":"m 210 367 b 224 375 214 368 222 372 b 226 385 226 378 226 382 b 221 390 225 386 221 389 l 222 392 l 224 392 b 483 456 256 400 442 435 b 496 461 489 457 493 460 l 501 467 b 499 467 503 468 501 468 b 233 403 451 447 265 414 b 224 397 228 401 226 399 l 215 390 b 217 381 213 386 213 383 b 215 372 219 376 218 374 b 210 368 214 372 211 369 b 210 367 210 368 208 367 z m 15 0 l 17 0 l 83 86 l 15 86 z m 78 0 l 158 0 l 224 86 l 144 86 z m 44 142 l 58 142 l 58 190 l 75 142 l 90 142 l 90 210 l 79 210 l 78 164 l 63 210 l 46 210 z m 101 142 l 117 142 l 118 157 l 136 157 l 140 142 l 154 142 l 138 210 l 121 210 z m 218 0 l 299 0 l 364 86 l 286 86 z m 121 168 l 128 199 l 135 168 z m 167 142 l 178 142 l 179 197 l 192 142 l 201 142 l 214 197 l 213 142 l 226 142 l 226 210 l 207 210 l 196 161 l 188 210 l 167 210 z m 243 142 l 282 142 l 281 153 l 256 153 l 256 172 l 279 172 l 281 183 l 257 183 l 256 199 l 279 199 l 281 210 l 243 210 z m 360 0 l 439 0 l 506 86 l 425 86 z m 294 142 l 333 142 l 333 153 l 308 153 l 308 210 l 296 210 z m 342 142 l 354 142 l 358 157 l 376 157 l 379 142 l 393 142 l 376 210 l 358 210 z m 361 168 l 365 199 l 368 199 l 374 168 z m 199 335 l 199 269 b 211 272 199 269 208 269 b 215 281 215 275 215 281 l 215 335 b 222 343 217 339 219 342 b 235 347 226 344 231 347 b 249 340 242 347 244 344 b 253 322 251 336 253 331 l 253 281 b 254 272 253 281 254 275 b 269 269 258 268 269 269 l 268 325 b 240 360 268 349 258 360 b 215 347 229 360 219 356 b 201 340 211 343 208 344 b 199 335 199 339 199 335 z m 500 0 l 581 0 l 646 86 l 565 86 z m 411 142 l 425 142 l 424 199 l 439 199 l 440 210 l 397 210 l 396 199 l 411 199 z m 308 281 b 292 294 299 281 292 285 b 300 308 292 300 294 306 b 321 315 306 314 313 315 b 331 314 322 315 325 315 l 329 292 b 308 281 322 285 317 281 z m 301 268 b 329 278 314 268 322 272 b 338 283 332 281 335 281 b 344 292 342 285 346 289 l 344 324 b 336 351 346 335 342 344 b 314 360 331 357 324 358 b 286 342 308 360 292 347 b 288 339 283 336 288 339 b 310 344 293 343 300 344 b 329 325 324 344 329 339 b 318 326 325 325 322 326 b 288 317 307 326 296 324 b 276 294 279 311 276 303 b 285 275 276 286 281 281 b 301 268 290 269 296 268 z m 465 142 l 478 142 l 478 168 l 497 210 l 482 210 l 472 183 l 464 210 l 449 210 l 465 168 z m 279 356 b 292 378 281 356 293 376 b 279 393 285 381 279 386 b 276 393 278 394 276 393 b 274 386 275 392 274 390 l 267 374 b 279 356 265 365 274 358 z m 508 142 l 521 142 l 522 169 l 531 169 b 551 190 542 169 551 176 b 532 210 551 200 547 210 l 508 210 z m 51 540 l 58 540 l 58 560 l 74 560 l 72 565 l 58 565 l 58 576 l 75 576 l 74 583 l 51 583 z m 528 181 l 521 181 l 521 200 l 528 200 b 538 190 535 200 538 197 b 528 181 538 183 533 181 z m 640 0 l 719 0 l 786 86 l 707 86 z m 93 540 b 107 561 103 540 107 547 b 93 583 107 576 103 583 b 78 561 82 583 79 576 b 93 540 78 547 83 540 z m 93 544 b 86 561 88 544 86 547 b 93 578 88 576 88 578 b 100 561 96 578 100 576 b 93 544 100 547 96 544 z m 356 269 b 367 272 356 269 364 269 b 369 281 371 275 369 281 l 371 335 b 378 343 371 339 374 340 b 389 347 382 344 385 347 b 400 343 393 347 396 344 b 404 332 403 340 404 336 l 406 269 b 417 272 406 269 414 269 b 422 281 421 276 422 281 l 422 335 b 428 343 421 339 425 340 b 439 347 432 344 435 347 b 457 325 450 347 457 340 l 457 281 b 458 274 457 281 457 275 b 472 269 463 269 472 269 l 472 328 b 465 351 471 339 471 347 b 443 360 460 357 451 360 b 428 357 439 360 433 358 b 418 349 424 353 419 351 b 392 360 413 356 406 360 b 369 349 383 360 374 356 b 357 339 367 343 360 342 l 356 333 z m 565 142 l 603 142 l 603 153 l 578 153 l 578 172 l 599 172 l 600 183 l 579 183 l 578 199 l 601 199 l 601 210 l 565 210 z m 617 142 l 629 142 l 631 157 l 617 157 z m 113 540 l 121 540 l 121 558 l 126 558 b 132 551 131 558 133 557 b 133 543 133 549 133 547 l 133 540 l 142 540 b 140 543 142 542 140 542 l 140 553 b 133 561 139 558 136 561 b 139 572 139 561 140 567 b 128 583 140 581 135 583 l 113 583 z m 125 564 l 121 564 l 121 578 l 126 578 b 133 572 131 578 133 575 b 125 564 133 567 129 564 z m 175 540 b 189 556 185 540 188 547 l 182 556 b 174 544 181 551 179 544 b 168 561 169 544 168 549 b 175 578 168 575 169 578 b 182 569 179 578 182 575 l 189 569 b 174 583 189 575 186 583 b 160 561 163 583 161 576 b 175 540 160 547 163 540 z m 42 625 l 54 625 l 60 649 l 67 649 b 89 667 76 649 86 653 b 76 683 89 675 88 683 l 54 683 z m 782 0 l 850 0 l 850 86 l 847 86 z m 67 657 l 61 657 l 64 675 l 69 675 b 76 667 76 675 78 672 b 67 657 75 660 71 657 z m 668 142 b 690 168 685 142 689 153 l 675 168 b 667 151 675 153 672 151 b 658 175 663 151 658 156 b 667 201 658 194 660 201 b 675 186 674 201 675 197 l 688 186 b 668 211 689 197 686 211 b 644 176 646 211 646 197 b 668 142 644 156 646 142 z m 206 540 b 222 561 217 540 221 547 b 206 583 222 576 215 583 b 193 561 196 583 194 576 b 206 540 193 547 196 540 z m 206 544 b 200 561 203 544 200 547 b 206 578 200 576 203 578 b 214 561 210 578 214 576 b 206 544 213 547 210 544 z m 513 269 b 542 282 518 268 532 276 b 542 285 544 283 547 289 b 524 282 535 283 531 282 b 506 289 517 282 510 283 b 496 311 499 293 497 301 l 560 311 b 561 322 560 315 561 318 b 549 349 561 333 557 342 b 522 360 543 357 533 360 b 493 349 510 360 501 356 b 481 314 485 339 481 326 b 493 281 479 299 483 289 b 513 269 499 275 504 269 z m 90 625 l 124 625 l 126 635 l 104 635 l 106 650 l 126 650 l 131 660 l 110 660 l 113 674 l 133 674 l 135 683 l 101 683 z m 544 324 l 496 324 b 506 340 496 331 500 335 b 522 347 508 344 515 347 b 540 340 531 347 535 343 b 544 324 544 335 544 331 z m 228 540 l 233 540 l 233 576 l 243 540 l 247 540 l 257 576 l 256 540 l 263 540 l 263 583 l 253 583 l 246 551 l 244 551 l 238 583 l 228 583 z m 725 142 b 749 176 746 142 749 156 b 724 211 749 197 746 211 b 701 176 704 211 701 197 b 725 142 701 156 704 142 z m 725 151 b 717 176 717 151 717 158 b 725 201 717 194 717 201 b 735 176 733 201 735 194 b 725 151 735 158 733 151 z m 133 625 l 146 625 l 151 650 l 158 650 b 164 642 163 650 164 647 l 161 631 b 161 625 160 628 160 626 l 175 625 b 174 635 172 626 172 631 b 168 653 176 649 176 653 b 182 668 174 656 181 660 b 168 683 183 678 178 683 l 146 683 z m 158 658 l 153 658 l 156 675 l 161 675 b 168 667 168 675 169 672 b 158 658 168 660 163 658 z m 271 540 l 278 540 l 279 576 l 286 540 l 292 540 l 303 576 l 301 540 l 308 540 l 307 583 l 296 583 l 289 551 l 281 583 l 271 583 z m 626 281 b 610 294 615 281 610 285 b 618 308 610 300 613 306 b 638 315 624 314 629 315 b 647 314 639 315 643 315 l 646 292 b 626 281 642 285 635 281 z m 201 624 b 225 642 213 624 224 628 b 217 657 226 649 225 653 l 208 661 b 204 669 204 664 203 665 b 213 676 206 674 206 676 b 218 667 217 676 218 674 l 228 667 l 231 668 b 215 685 232 681 225 685 b 192 668 203 685 196 681 b 203 650 190 658 193 653 b 211 640 211 647 213 644 b 203 632 213 635 207 632 b 199 642 196 632 197 635 l 197 643 l 186 643 l 185 640 b 201 624 182 631 186 624 z m 763 142 l 776 142 l 776 197 l 788 142 l 799 142 l 813 197 l 811 142 l 824 142 l 824 210 l 804 210 l 793 161 l 783 210 l 764 210 z m 14 747 l 15 747 l 83 833 l 14 833 z m 314 540 l 338 540 l 338 547 l 321 547 l 321 560 l 338 560 l 338 565 l 321 565 l 322 576 l 339 576 l 338 583 l 314 583 z m 621 268 b 646 278 632 268 642 272 b 656 283 650 281 653 281 b 663 292 660 285 664 289 l 663 324 b 654 351 664 335 660 344 b 632 360 650 357 642 358 b 604 342 626 360 608 347 b 604 339 601 336 604 339 b 628 344 611 343 618 344 b 646 325 642 344 646 339 b 636 326 643 325 640 326 b 606 317 624 326 613 324 b 596 294 599 311 594 303 b 601 275 594 286 597 281 b 621 268 607 269 614 268 z m 600 268 b 597 272 600 268 603 272 b 585 297 590 274 585 285 l 585 482 b 572 478 585 482 575 481 b 569 468 569 475 569 468 l 571 294 b 600 268 569 276 581 268 z m 344 540 l 351 540 l 351 558 l 356 558 b 363 551 361 558 364 557 b 364 543 364 549 363 547 b 364 540 364 542 365 542 l 372 540 b 371 543 372 542 369 542 b 369 553 369 547 371 550 b 364 561 369 558 368 561 b 369 572 368 561 369 567 b 360 583 369 581 365 583 l 344 583 z m 356 564 l 350 564 l 351 578 l 356 578 b 363 572 361 578 364 575 b 356 564 363 567 361 564 z m 249 624 b 278 656 268 624 272 636 b 263 685 282 672 282 685 b 236 656 246 685 242 672 b 249 624 232 636 232 624 z m 253 632 b 247 656 244 632 244 639 b 261 676 251 669 254 676 b 264 656 268 676 268 669 b 253 632 261 639 260 632 z m 389 540 b 403 556 401 540 403 547 l 397 556 b 389 544 396 551 396 544 b 383 561 385 544 383 549 b 389 578 383 575 385 578 b 397 569 394 578 397 575 l 404 569 b 390 583 403 575 403 583 b 376 561 379 583 378 576 b 389 540 376 547 379 540 z m 408 540 l 417 540 l 415 583 l 407 583 z m 282 625 l 293 625 l 301 667 l 308 625 l 321 625 l 335 683 l 322 683 l 314 643 l 308 683 l 294 683 z m 78 747 l 157 747 l 222 833 l 143 833 z m 419 540 l 426 540 l 429 550 l 442 550 l 444 540 l 451 540 l 439 583 l 431 583 z m 431 557 l 436 576 l 440 557 z m 597 406 l 594 403 b 649 425 615 411 628 415 b 657 433 651 425 654 431 b 664 439 660 433 665 439 l 611 418 b 601 410 608 417 604 414 b 597 406 600 410 594 406 z m 483 535 l 482 532 b 489 540 488 532 490 535 l 490 549 l 483 549 l 483 540 l 485 540 b 483 535 485 536 485 535 z m 454 540 l 478 540 l 478 547 l 461 547 l 461 583 l 454 583 z m 329 625 l 343 625 l 347 636 l 363 636 l 363 625 l 376 625 l 372 683 l 358 683 z m 351 647 l 364 674 l 364 647 z m 385 625 l 418 625 l 421 635 l 399 635 l 410 683 l 397 683 z m 510 540 l 517 540 l 517 558 l 522 558 b 535 569 531 558 533 564 b 522 583 535 578 531 583 l 510 583 z m 521 564 l 515 564 l 517 578 l 521 578 b 529 569 526 578 528 575 b 521 564 528 565 524 564 z m 539 540 l 563 540 l 563 547 l 546 547 l 546 583 l 539 583 z m 218 747 l 297 747 l 363 833 l 285 833 z m 568 540 l 592 540 l 592 547 l 575 547 l 575 560 l 590 560 l 589 565 l 575 565 l 575 576 l 592 576 l 590 583 l 568 583 z m 469 624 b 493 642 479 624 490 626 l 501 683 l 489 683 l 482 642 b 471 632 479 636 476 632 b 467 642 467 632 464 636 l 475 683 l 463 683 l 456 642 b 469 624 451 626 460 624 z m 593 540 l 600 540 l 604 550 l 615 550 l 618 540 l 625 540 l 614 583 l 604 583 z m 606 557 l 611 576 l 615 557 z m 515 624 b 542 642 529 624 539 628 b 533 657 543 649 542 653 l 525 661 b 521 669 519 664 519 665 b 529 676 522 674 522 676 b 533 667 533 676 535 674 l 544 667 l 546 668 b 529 685 549 681 542 685 b 508 668 519 685 513 681 b 519 650 507 658 510 653 b 528 640 528 647 529 644 b 519 632 529 635 524 632 b 514 642 513 632 514 635 l 514 643 l 501 643 l 501 640 b 515 624 499 631 503 624 z m 639 540 b 654 551 650 540 656 543 b 646 564 654 558 651 561 l 642 565 b 635 574 636 567 635 568 b 639 578 636 576 638 578 b 646 574 644 578 647 576 l 646 572 l 653 572 l 653 574 b 640 583 654 576 651 583 b 628 572 632 583 628 581 b 636 560 628 565 632 561 l 642 558 b 649 550 646 557 649 556 b 640 544 649 549 644 544 b 635 551 636 544 635 547 l 635 553 l 628 553 b 639 540 628 547 629 540 z m 661 540 l 685 540 l 685 547 l 668 547 l 668 560 l 683 560 l 683 565 l 668 565 l 669 576 l 683 576 l 682 583 l 661 583 z m 549 625 l 582 625 l 585 635 l 563 635 l 564 650 l 585 650 l 589 660 l 568 660 l 572 674 l 592 674 l 594 683 l 561 683 z m 360 747 l 438 747 l 504 833 l 425 833 z m 710 540 l 718 540 l 728 583 l 721 583 l 714 549 l 706 583 l 699 583 z m 731 540 l 738 540 l 738 583 l 731 583 z m 635 624 b 661 656 653 624 657 636 b 649 685 667 672 667 685 b 621 656 629 685 625 672 b 635 624 618 636 615 624 z m 636 632 b 632 656 629 632 629 639 b 646 676 636 669 639 676 b 649 656 653 676 653 669 b 636 632 646 639 644 632 z m 758 540 b 771 551 767 540 772 543 b 763 564 771 558 769 561 l 758 565 b 751 574 754 567 751 568 b 758 578 753 576 754 578 b 763 574 761 578 764 576 l 763 572 l 771 572 l 771 574 b 757 583 772 576 769 583 b 744 572 749 583 744 581 b 754 560 744 565 749 561 l 758 558 b 765 550 764 557 765 556 b 757 544 765 549 763 544 b 751 551 753 544 751 547 l 751 553 l 744 553 b 758 540 744 547 746 540 z m 778 540 l 785 540 l 785 583 l 778 583 z m 797 540 l 806 540 l 807 576 l 817 576 l 815 583 l 788 583 l 789 576 l 799 576 z m 667 625 l 678 625 l 686 667 l 693 625 l 707 625 l 719 683 l 708 683 l 700 643 l 693 683 l 679 683 z m 719 625 l 751 625 l 756 635 l 733 635 l 743 683 l 731 683 z m 499 747 l 579 747 l 644 833 l 564 833 z m 804 625 l 815 625 l 818 635 l 807 635 z m 765 625 l 778 625 l 783 649 l 806 683 l 793 683 l 781 661 l 776 683 l 763 683 l 771 649 z m 810 642 l 818 642 l 825 665 l 828 683 l 817 683 l 813 665 z m 639 747 l 719 747 l 785 833 l 706 833 z m 781 747 l 849 747 l 850 833 l 846 833 z "}," ":{"ha":278,"x_min":0,"x_max":0,"o":""},"A":{"ha":1050,"x_min":0,"x_max":0,"o":"m 168 -18 b 365 156 269 -22 360 44 l 374 249 l 611 240 b 856 -3 679 68 774 1 b 1036 158 929 -7 1031 44 b 715 686 1044 311 822 501 b 674 772 699 715 685 744 b 774 935 743 818 771 874 b 661 1078 778 1010 722 1075 b 528 960 597 1082 553 1033 b 14 147 306 808 24 344 b 168 -18 8 61 72 -12 z m 399 400 b 507 711 424 511 460 618 b 556 422 514 619 532 518 b 399 400 510 415 458 407 z "},"Á":{"ha":1050,"x_min":0,"x_max":0,"o":"m 168 -18 b 365 156 269 -22 360 44 l 374 249 l 611 240 b 856 -3 679 68 774 1 b 1036 158 929 -7 1031 44 b 715 686 1044 311 822 501 b 674 772 699 715 685 744 b 774 935 743 818 771 874 b 661 1078 778 1010 722 1075 b 528 960 597 1082 553 1033 b 14 147 306 808 24 344 b 168 -18 8 61 72 -12 z m 629 1164 b 899 1428 753 1175 889 1336 b 858 1489 903 1461 883 1485 b 785 1439 835 1492 811 1476 b 600 1289 736 1363 683 1331 b 551 1203 557 1267 543 1231 b 629 1164 560 1178 586 1160 z m 399 400 b 507 711 424 511 460 618 b 556 422 514 619 532 518 b 399 400 510 415 458 407 z "},"Ă":{"ha":1050,"x_min":0,"x_max":0,"o":"m 168 -18 b 365 156 269 -22 360 44 l 374 249 l 611 240 b 856 -3 679 68 774 1 b 1036 158 929 -7 1031 44 b 715 686 1044 311 822 501 b 674 772 699 715 685 744 b 774 935 743 818 771 874 b 661 1078 778 1010 722 1075 b 528 960 597 1082 553 1033 b 14 147 306 808 24 344 b 168 -18 8 61 72 -12 z m 625 1153 b 803 1304 756 1153 803 1231 b 735 1415 803 1349 783 1415 b 682 1328 694 1415 679 1371 b 626 1251 685 1293 676 1251 b 572 1328 578 1251 572 1293 b 519 1415 572 1388 554 1415 b 451 1304 472 1415 451 1350 b 625 1153 451 1233 499 1160 z m 399 400 b 507 711 424 511 460 618 b 556 422 514 619 532 518 b 399 400 510 415 458 407 z "},"Ǎ":{"ha":1050,"x_min":0,"x_max":0,"o":"m 168 -18 b 365 156 269 -22 360 44 l 374 249 l 611 240 b 856 -3 679 68 774 1 b 1036 158 929 -7 1031 44 b 715 686 1044 311 822 501 b 674 772 699 715 685 744 b 774 935 743 818 771 874 b 661 1078 778 1010 722 1075 b 528 960 597 1082 553 1033 b 14 147 306 808 24 344 b 168 -18 8 61 72 -12 z m 799 1460 b 628 1325 749 1457 678 1414 b 458 1460 579 1414 508 1457 b 399 1417 428 1460 404 1440 b 440 1351 394 1396 407 1374 b 569 1188 508 1311 536 1264 b 629 1146 583 1158 607 1146 b 688 1188 653 1146 675 1161 b 817 1351 721 1264 749 1311 b 858 1417 850 1374 863 1396 b 799 1460 853 1440 829 1460 z m 399 400 b 507 711 424 511 460 618 b 556 422 514 619 532 518 b 399 400 510 415 458 407 z "},"Â":{"ha":1050,"x_min":0,"x_max":0,"o":"m 168 -18 b 365 156 269 -22 360 44 l 374 249 l 611 240 b 856 -3 679 68 774 1 b 1036 158 929 -7 1031 44 b 715 686 1044 311 822 501 b 674 772 699 715 685 744 b 774 935 743 818 771 874 b 661 1078 778 1010 722 1075 b 528 960 597 1082 553 1033 b 14 147 306 808 24 344 b 168 -18 8 61 72 -12 z m 458 1146 b 629 1281 508 1149 579 1192 b 799 1146 678 1192 749 1149 b 858 1189 829 1146 853 1165 b 817 1254 863 1210 850 1232 b 688 1418 749 1294 721 1342 b 628 1460 674 1447 650 1460 b 569 1418 604 1460 582 1444 b 440 1254 536 1342 508 1294 b 399 1189 407 1232 394 1210 b 458 1146 404 1165 428 1146 z m 399 400 b 507 711 424 511 460 618 b 556 422 514 619 532 518 b 399 400 510 415 458 407 z "},"Ä":{"ha":1050,"x_min":0,"x_max":0,"o":"m 168 -18 b 365 156 269 -22 360 44 l 374 249 l 611 240 b 856 -3 679 68 774 1 b 1036 158 929 -7 1031 44 b 715 686 1044 311 822 501 b 674 772 699 715 685 744 b 774 935 743 818 771 874 b 661 1078 778 1010 722 1075 b 528 960 597 1082 553 1033 b 14 147 306 808 24 344 b 168 -18 8 61 72 -12 z m 764 1144 b 850 1236 815 1144 850 1181 b 733 1342 850 1307 789 1342 b 649 1261 681 1342 649 1315 b 764 1144 649 1189 707 1144 z m 521 1144 b 607 1236 572 1144 607 1181 b 490 1342 607 1307 546 1342 b 406 1261 439 1342 406 1315 b 521 1144 406 1189 464 1144 z m 399 400 b 507 711 424 511 460 618 b 556 422 514 619 532 518 b 399 400 510 415 458 407 z "},"À":{"ha":1050,"x_min":0,"x_max":0,"o":"m 168 -18 b 365 156 269 -22 360 44 l 374 249 l 611 240 b 856 -3 679 68 774 1 b 1036 158 929 -7 1031 44 b 715 686 1044 311 822 501 b 674 772 699 715 685 744 b 774 935 743 818 771 874 b 661 1078 778 1010 722 1075 b 528 960 597 1082 553 1033 b 14 147 306 808 24 344 b 168 -18 8 61 72 -12 z m 653 1164 b 731 1203 696 1160 722 1178 b 682 1289 739 1231 725 1267 b 497 1439 599 1331 546 1363 b 424 1489 471 1476 447 1492 b 383 1428 399 1485 379 1461 b 653 1164 393 1336 529 1175 z m 399 400 b 507 711 424 511 460 618 b 556 422 514 619 532 518 b 399 400 510 415 458 407 z "},"Ā":{"ha":1050,"x_min":0,"x_max":0,"o":"m 168 -18 b 365 156 269 -22 360 44 l 374 249 l 611 240 b 856 -3 679 68 774 1 b 1036 158 929 -7 1031 44 b 715 686 1044 311 822 501 b 674 772 699 715 685 744 b 774 935 743 818 771 874 b 661 1078 778 1010 722 1075 b 528 960 597 1082 553 1033 b 14 147 306 808 24 344 b 168 -18 8 61 72 -12 z m 450 1190 b 826 1219 553 1119 760 1156 b 835 1293 851 1243 851 1274 b 746 1301 818 1310 790 1314 b 508 1306 660 1275 599 1283 b 415 1271 461 1317 428 1297 b 450 1190 406 1246 415 1215 z m 399 400 b 507 711 424 511 460 618 b 556 422 514 619 532 518 b 399 400 510 415 458 407 z "},"Ą":{"ha":1050,"x_min":0,"x_max":0,"o":"m 168 -18 b 365 156 269 -22 360 44 l 374 249 l 611 240 b 833 0 674 83 757 14 b 813 -75 819 -26 813 -51 b 949 -194 813 -144 871 -194 b 1033 -176 978 -194 1008 -187 b 1078 -117 1064 -162 1078 -139 b 1025 -60 1078 -87 1058 -60 b 953 -76 999 -60 979 -76 b 918 -40 933 -76 918 -68 b 971 33 918 -18 949 13 b 1036 158 1007 60 1033 101 b 715 686 1044 311 822 501 b 674 772 699 715 685 744 b 774 935 743 818 771 874 b 661 1078 778 1010 722 1075 b 528 960 597 1082 553 1033 b 14 147 306 808 24 344 b 168 -18 8 61 72 -12 z m 399 400 b 507 711 424 511 460 618 b 556 422 514 619 532 518 b 399 400 510 415 458 407 z "},"Å":{"ha":1050,"x_min":0,"x_max":0,"o":"m 168 -18 b 365 156 269 -22 360 44 l 374 249 l 611 240 b 856 -3 679 68 774 1 b 1036 158 929 -7 1031 44 b 715 686 1044 311 822 501 b 674 772 699 715 685 744 b 774 935 743 818 771 874 b 732 1044 776 978 758 1018 b 796 1176 775 1075 796 1125 b 625 1351 796 1264 736 1351 b 461 1189 514 1351 461 1272 b 563 1028 461 1124 497 1054 b 528 960 549 1008 538 986 b 14 147 306 808 24 344 b 168 -18 8 61 72 -12 z m 628 1144 b 550 1185 576 1144 550 1165 b 628 1222 550 1203 574 1222 b 707 1182 679 1222 707 1201 b 628 1144 707 1163 683 1144 z m 399 400 b 507 711 424 511 460 618 b 556 422 514 619 532 518 b 399 400 510 415 458 407 z "},"Ã":{"ha":1050,"x_min":0,"x_max":0,"o":"m 168 -18 b 365 156 269 -22 360 44 l 374 249 l 611 240 b 856 -3 679 68 774 1 b 1036 158 929 -7 1031 44 b 715 686 1044 311 822 501 b 674 772 699 715 685 744 b 774 935 743 818 771 874 b 661 1078 778 1010 722 1075 b 528 960 597 1082 553 1033 b 14 147 306 808 24 344 b 168 -18 8 61 72 -12 z m 724 1133 b 858 1263 804 1133 851 1200 b 817 1324 863 1296 843 1324 b 764 1299 790 1324 776 1313 b 699 1243 746 1275 736 1243 b 535 1325 656 1243 615 1325 b 396 1190 453 1325 403 1253 b 442 1129 392 1154 413 1129 b 493 1153 465 1129 481 1139 b 558 1211 515 1176 526 1211 b 724 1133 599 1211 656 1133 z m 399 400 b 507 711 424 511 460 618 b 556 422 514 619 532 518 b 399 400 510 415 458 407 z "},"Æ":{"ha":1406,"x_min":0,"x_max":0,"o":"m 168 -18 b 365 156 269 -22 360 44 l 374 249 l 544 242 b 525 125 533 203 525 164 b 690 -15 525 36 594 -15 b 826 56 746 -15 792 7 b 1133 -24 922 8 1035 -24 b 1374 139 1267 -24 1374 18 b 1192 317 1374 243 1326 347 b 881 207 1086 293 1047 206 b 893 378 889 256 893 313 b 889 476 893 410 892 443 b 1169 442 1007 460 1093 435 b 1306 565 1283 451 1311 510 b 1164 667 1299 649 1233 667 b 867 622 1081 667 1019 626 b 828 771 856 674 843 724 b 1274 788 1003 743 1182 747 b 1357 1051 1400 844 1404 965 b 1218 1133 1329 1101 1281 1133 b 460 1082 1032 1133 922 913 b 363 1082 438 1090 386 1111 b 364 982 343 1057 346 1017 b 424 914 376 958 397 935 b 14 147 225 700 22 314 b 168 -18 8 61 72 -12 z m 397 400 b 554 842 428 557 481 719 l 619 818 b 650 683 635 778 647 733 b 613 428 657 586 639 503 b 397 400 549 422 483 410 z "},"B":{"ha":1083,"x_min":0,"x_max":0,"o":"m 186 -28 b 342 86 251 -28 303 17 l 357 115 l 358 113 b 679 -19 431 -11 597 -19 b 1049 279 871 -19 1049 100 b 851 556 1049 401 967 501 b 929 807 903 632 929 722 b 685 1072 929 949 853 1072 b 404 929 590 1072 486 1024 l 396 946 b 226 1065 353 1031 289 1065 b 49 869 121 1065 49 989 b 225 429 49 674 183 575 b 85 97 138 326 85 193 b 186 -28 85 24 117 -28 z m 522 375 b 767 460 619 375 701 408 b 901 315 838 429 901 378 b 740 210 901 260 842 210 b 553 256 688 210 624 224 b 404 263 497 281 443 281 b 432 414 415 310 425 361 b 522 375 451 390 489 375 z m 439 794 b 674 939 510 893 604 939 b 731 889 713 939 731 919 b 500 596 731 822 649 701 b 446 542 479 581 460 563 b 439 794 451 631 450 718 z "},"C":{"ha":910,"x_min":0,"x_max":0,"o":"m 503 -37 b 879 169 694 -37 829 69 b 842 326 911 231 899 301 b 704 294 799 346 736 332 b 493 110 635 213 608 110 b 247 346 361 110 247 200 b 658 696 247 547 400 668 b 856 867 792 710 857 763 b 619 1061 854 1011 740 1067 b 42 454 261 1057 42 754 b 503 -37 42 174 282 -37 z "},"Ć":{"ha":910,"x_min":0,"x_max":0,"o":"m 503 -37 b 879 169 694 -37 829 69 b 842 326 911 231 899 301 b 704 294 799 346 736 332 b 493 110 635 213 608 110 b 247 346 361 110 247 200 b 658 696 247 547 400 668 b 856 867 792 710 857 763 b 619 1061 854 1011 740 1067 b 42 454 261 1057 42 754 b 503 -37 42 174 282 -37 z m 621 1150 b 890 1414 744 1161 881 1322 b 850 1475 894 1447 875 1471 b 776 1425 826 1478 803 1463 b 592 1275 728 1349 675 1317 b 543 1189 549 1253 535 1217 b 621 1150 551 1164 578 1146 z "},"Č":{"ha":910,"x_min":0,"x_max":0,"o":"m 503 -37 b 879 169 694 -37 829 69 b 842 326 911 231 899 301 b 704 294 799 346 736 332 b 493 110 635 213 608 110 b 247 346 361 110 247 200 b 658 696 247 547 400 668 b 856 867 792 710 857 763 b 619 1061 854 1011 740 1067 b 42 454 261 1057 42 754 b 503 -37 42 174 282 -37 z m 790 1446 b 619 1311 740 1443 669 1400 b 450 1446 571 1400 500 1443 b 390 1403 419 1446 396 1426 b 432 1338 386 1382 399 1360 b 561 1174 500 1297 528 1250 b 621 1132 575 1144 599 1132 b 679 1174 644 1132 667 1147 b 808 1338 713 1250 740 1297 b 850 1403 842 1360 854 1382 b 790 1446 844 1426 821 1446 z "},"Ç":{"ha":910,"x_min":0,"x_max":0,"o":"m 500 -361 b 650 -214 603 -361 650 -287 b 542 -92 650 -158 607 -100 b 550 -46 547 -75 550 -58 l 550 -35 b 879 169 717 -19 833 78 b 842 326 911 231 899 301 b 704 294 799 346 736 332 b 493 110 635 213 608 110 b 247 346 361 110 247 200 b 658 696 247 547 400 668 b 856 867 792 710 857 763 b 619 1061 854 1011 740 1067 b 42 454 261 1057 42 754 b 463 -35 42 190 254 -11 b 403 -125 453 -71 444 -83 b 394 -179 385 -140 378 -164 b 463 -182 413 -192 438 -192 b 490 -165 472 -178 482 -172 b 514 -162 499 -164 507 -162 b 574 -207 553 -162 574 -186 b 522 -242 574 -233 550 -242 b 429 -228 494 -242 451 -228 b 369 -285 392 -228 369 -256 b 414 -344 369 -307 383 -331 b 500 -361 439 -356 468 -361 z "},"Ċ":{"ha":910,"x_min":0,"x_max":0,"o":"m 503 -37 b 879 169 694 -37 829 69 b 842 326 911 231 899 301 b 704 294 799 346 736 332 b 493 110 635 213 608 110 b 247 346 361 110 247 200 b 658 696 247 547 400 668 b 856 867 792 710 857 763 b 619 1061 854 1011 740 1067 b 42 454 261 1057 42 754 b 503 -37 42 174 282 -37 z m 638 1138 b 738 1244 697 1138 738 1179 b 600 1368 738 1328 667 1368 b 501 1274 539 1368 501 1338 b 638 1138 501 1189 569 1138 z "},"D":{"ha":1125,"x_min":0,"x_max":0,"o":"m 572 -32 b 1083 603 896 -32 1083 292 b 729 1065 1083 889 917 1065 b 421 883 624 1065 511 1008 b 226 1065 381 1014 301 1065 b 49 869 121 1065 49 989 b 213 465 49 690 161 593 b 85 97 126 346 85 182 b 186 -28 85 24 117 -28 b 347 96 256 -28 308 19 b 572 -32 363 3 483 -32 z m 392 210 l 407 272 b 444 558 428 360 439 460 l 447 676 l 447 711 b 663 929 518 863 599 929 b 778 732 729 929 778 857 b 431 236 778 513 706 392 b 392 210 415 228 403 218 z "},"Ď":{"ha":1125,"x_min":0,"x_max":0,"o":"m 572 -32 b 1083 603 896 -32 1083 292 b 729 1065 1083 889 917 1065 b 421 883 624 1065 511 1008 b 226 1065 381 1014 301 1065 b 49 869 121 1065 49 989 b 213 465 49 690 161 593 b 85 97 126 346 85 182 b 186 -28 85 24 117 -28 b 347 96 256 -28 308 19 b 572 -32 363 3 483 -32 z m 725 1446 b 554 1311 675 1443 604 1400 b 385 1446 506 1400 435 1443 b 325 1403 354 1446 331 1426 b 367 1338 321 1382 333 1360 b 496 1174 435 1297 463 1250 b 556 1132 510 1144 533 1132 b 614 1174 579 1132 601 1147 b 743 1338 647 1250 675 1297 b 785 1403 776 1360 789 1382 b 725 1446 779 1426 756 1446 z m 392 210 l 407 272 b 444 558 428 360 439 460 l 447 676 l 447 711 b 663 929 518 863 599 929 b 778 732 729 929 778 857 b 431 236 778 513 706 392 b 392 210 415 228 403 218 z "},"Đ":{"ha":1125,"x_min":0,"x_max":0,"o":"m 572 -32 b 1083 603 896 -32 1083 292 b 729 1065 1083 889 917 1065 b 421 883 624 1065 511 1008 b 226 1065 381 1014 301 1065 b 49 869 121 1065 49 989 b 182 529 49 721 126 629 b 92 493 136 538 104 519 b 126 413 82 468 92 438 b 168 392 139 404 153 397 b 85 97 113 286 85 165 b 186 -28 85 24 117 -28 b 347 96 256 -28 308 19 b 572 -32 363 3 483 -32 z m 392 210 l 407 272 b 428 388 415 308 422 347 b 558 442 486 400 535 419 b 567 515 583 465 583 496 b 478 524 550 532 522 536 l 442 515 l 444 558 l 447 676 l 447 711 b 663 929 518 863 599 929 b 778 732 729 929 778 857 b 431 236 778 513 706 392 b 392 210 415 228 403 218 z "},"Ð":{"ha":1125,"x_min":0,"x_max":0,"o":"m 572 -32 b 1083 603 896 -32 1083 292 b 729 1065 1083 889 917 1065 b 421 883 624 1065 511 1008 b 226 1065 381 1014 301 1065 b 49 869 121 1065 49 989 b 182 529 49 721 126 629 b 92 493 136 538 104 519 b 126 413 82 468 92 438 b 168 392 139 404 153 397 b 85 97 113 286 85 165 b 186 -28 85 24 117 -28 b 347 96 256 -28 308 19 b 572 -32 363 3 483 -32 z m 392 210 l 407 272 b 428 388 415 308 422 347 b 558 442 486 400 535 419 b 567 515 583 465 583 496 b 478 524 550 532 522 536 l 442 515 l 444 558 l 447 676 l 447 711 b 663 929 518 863 599 929 b 778 732 729 929 778 857 b 431 236 778 513 706 392 b 392 210 415 228 403 218 z "},"E":{"ha":967,"x_min":0,"x_max":0,"o":"m 224 -14 b 368 67 286 -14 333 15 b 694 -24 468 13 589 -24 b 935 139 828 -24 935 18 b 753 317 935 243 888 347 b 426 208 644 292 607 200 b 458 475 444 285 454 375 b 731 442 572 460 656 435 b 867 565 844 451 872 510 b 725 667 860 649 794 667 b 461 624 649 667 589 632 l 458 768 b 835 788 600 743 744 747 b 918 1051 961 844 965 965 b 779 1133 890 1101 842 1133 b 160 1082 593 1133 622 913 b 63 1082 138 1090 86 1111 b 64 982 43 1057 46 1017 b 172 872 86 940 124 904 b 271 321 188 689 271 494 b 264 250 271 297 269 274 b 175 272 236 264 206 272 b 74 160 122 272 74 235 b 224 -14 74 81 125 -14 z "},"É":{"ha":967,"x_min":0,"x_max":0,"o":"m 224 -14 b 368 67 286 -14 333 15 b 694 -24 468 13 589 -24 b 935 139 828 -24 935 18 b 753 317 935 243 888 347 b 426 208 644 292 607 200 b 458 475 444 285 454 375 b 731 442 572 460 656 435 b 867 565 844 451 872 510 b 725 667 860 649 794 667 b 461 624 649 667 589 632 l 458 768 b 835 788 600 743 744 747 b 918 1051 961 844 965 965 b 779 1133 890 1101 842 1133 b 160 1082 593 1133 622 913 b 63 1082 138 1090 86 1111 b 64 982 43 1057 46 1017 b 172 872 86 940 124 904 b 271 321 188 689 271 494 b 264 250 271 297 269 274 b 175 272 236 264 206 272 b 74 160 122 272 74 235 b 224 -14 74 81 125 -14 z m 465 1164 b 735 1428 589 1175 725 1336 b 694 1489 739 1461 719 1485 b 621 1439 671 1492 647 1476 b 436 1289 572 1363 519 1331 b 388 1203 393 1267 379 1231 b 465 1164 396 1178 422 1160 z "},"Ě":{"ha":967,"x_min":0,"x_max":0,"o":"m 224 -14 b 368 67 286 -14 333 15 b 694 -24 468 13 589 -24 b 935 139 828 -24 935 18 b 753 317 935 243 888 347 b 426 208 644 292 607 200 b 458 475 444 285 454 375 b 731 442 572 460 656 435 b 867 565 844 451 872 510 b 725 667 860 649 794 667 b 461 624 649 667 589 632 l 458 768 b 835 788 600 743 744 747 b 918 1051 961 844 965 965 b 779 1133 890 1101 842 1133 b 160 1082 593 1133 622 913 b 63 1082 138 1090 86 1111 b 64 982 43 1057 46 1017 b 172 872 86 940 124 904 b 271 321 188 689 271 494 b 264 250 271 297 269 274 b 175 272 236 264 206 272 b 74 160 122 272 74 235 b 224 -14 74 81 125 -14 z m 635 1460 b 464 1325 585 1457 514 1414 b 294 1460 415 1414 344 1457 b 235 1417 264 1460 240 1440 b 276 1351 231 1396 243 1374 b 406 1188 344 1311 372 1264 b 465 1146 419 1158 443 1146 b 524 1188 489 1146 511 1161 b 653 1351 557 1264 585 1311 b 694 1417 686 1374 699 1396 b 635 1460 689 1440 665 1460 z "},"Ê":{"ha":967,"x_min":0,"x_max":0,"o":"m 224 -14 b 368 67 286 -14 333 15 b 694 -24 468 13 589 -24 b 935 139 828 -24 935 18 b 753 317 935 243 888 347 b 426 208 644 292 607 200 b 458 475 444 285 454 375 b 731 442 572 460 656 435 b 867 565 844 451 872 510 b 725 667 860 649 794 667 b 461 624 649 667 589 632 l 458 768 b 835 788 600 743 744 747 b 918 1051 961 844 965 965 b 779 1133 890 1101 842 1133 b 160 1082 593 1133 622 913 b 63 1082 138 1090 86 1111 b 64 982 43 1057 46 1017 b 172 872 86 940 124 904 b 271 321 188 689 271 494 b 264 250 271 297 269 274 b 175 272 236 264 206 272 b 74 160 122 272 74 235 b 224 -14 74 81 125 -14 z m 294 1146 b 465 1281 344 1149 415 1192 b 635 1146 514 1192 585 1149 b 694 1189 665 1146 689 1165 b 653 1254 699 1210 686 1232 b 524 1418 585 1294 557 1342 b 464 1460 510 1447 486 1460 b 406 1418 440 1460 418 1444 b 276 1254 372 1342 344 1294 b 235 1189 243 1232 231 1210 b 294 1146 240 1165 264 1146 z "},"Ë":{"ha":967,"x_min":0,"x_max":0,"o":"m 224 -14 b 368 67 286 -14 333 15 b 694 -24 468 13 589 -24 b 935 139 828 -24 935 18 b 753 317 935 243 888 347 b 426 208 644 292 607 200 b 458 475 444 285 454 375 b 731 442 572 460 656 435 b 867 565 844 451 872 510 b 725 667 860 649 794 667 b 461 624 649 667 589 632 l 458 768 b 835 788 600 743 744 747 b 918 1051 961 844 965 965 b 779 1133 890 1101 842 1133 b 160 1082 593 1133 622 913 b 63 1082 138 1090 86 1111 b 64 982 43 1057 46 1017 b 172 872 86 940 124 904 b 271 321 188 689 271 494 b 264 250 271 297 269 274 b 175 272 236 264 206 272 b 74 160 122 272 74 235 b 224 -14 74 81 125 -14 z m 600 1144 b 686 1236 651 1144 686 1181 b 569 1342 686 1307 625 1342 b 485 1261 517 1342 485 1315 b 600 1144 485 1189 543 1144 z m 357 1144 b 443 1236 408 1144 443 1181 b 326 1342 443 1307 382 1342 b 242 1261 275 1342 242 1315 b 357 1144 242 1189 300 1144 z "},"Ė":{"ha":967,"x_min":0,"x_max":0,"o":"m 224 -14 b 368 67 286 -14 333 15 b 694 -24 468 13 589 -24 b 935 139 828 -24 935 18 b 753 317 935 243 888 347 b 426 208 644 292 607 200 b 458 475 444 285 454 375 b 731 442 572 460 656 435 b 867 565 844 451 872 510 b 725 667 860 649 794 667 b 461 624 649 667 589 632 l 458 768 b 835 788 600 743 744 747 b 918 1051 961 844 965 965 b 779 1133 890 1101 842 1133 b 160 1082 593 1133 622 913 b 63 1082 138 1090 86 1111 b 64 982 43 1057 46 1017 b 172 872 86 940 124 904 b 271 321 188 689 271 494 b 264 250 271 297 269 274 b 175 272 236 264 206 272 b 74 160 122 272 74 235 b 224 -14 74 81 125 -14 z m 482 1151 b 582 1258 542 1151 582 1193 b 444 1382 582 1342 511 1382 b 346 1288 383 1382 346 1351 b 482 1151 346 1203 414 1151 z "},"È":{"ha":967,"x_min":0,"x_max":0,"o":"m 224 -14 b 368 67 286 -14 333 15 b 694 -24 468 13 589 -24 b 935 139 828 -24 935 18 b 753 317 935 243 888 347 b 426 208 644 292 607 200 b 458 475 444 285 454 375 b 731 442 572 460 656 435 b 867 565 844 451 872 510 b 725 667 860 649 794 667 b 461 624 649 667 589 632 l 458 768 b 835 788 600 743 744 747 b 918 1051 961 844 965 965 b 779 1133 890 1101 842 1133 b 160 1082 593 1133 622 913 b 63 1082 138 1090 86 1111 b 64 982 43 1057 46 1017 b 172 872 86 940 124 904 b 271 321 188 689 271 494 b 264 250 271 297 269 274 b 175 272 236 264 206 272 b 74 160 122 272 74 235 b 224 -14 74 81 125 -14 z m 489 1164 b 567 1203 532 1160 558 1178 b 518 1289 575 1231 561 1267 b 333 1439 435 1331 382 1363 b 260 1489 307 1476 283 1492 b 219 1428 235 1485 215 1461 b 489 1164 229 1336 365 1175 z "},"Ē":{"ha":967,"x_min":0,"x_max":0,"o":"m 224 -14 b 368 67 286 -14 333 15 b 694 -24 468 13 589 -24 b 935 139 828 -24 935 18 b 753 317 935 243 888 347 b 426 208 644 292 607 200 b 458 475 444 285 454 375 b 731 442 572 460 656 435 b 867 565 844 451 872 510 b 725 667 860 649 794 667 b 461 624 649 667 589 632 l 458 768 b 835 788 600 743 744 747 b 918 1051 961 844 965 965 b 779 1133 890 1101 842 1133 b 160 1082 593 1133 622 913 b 63 1082 138 1090 86 1111 b 64 982 43 1057 46 1017 b 172 872 86 940 124 904 b 271 321 188 689 271 494 b 264 250 271 297 269 274 b 175 272 236 264 206 272 b 74 160 122 272 74 235 b 224 -14 74 81 125 -14 z m 286 1190 b 663 1219 389 1119 596 1156 b 671 1293 688 1243 688 1274 b 582 1301 654 1310 626 1314 b 344 1306 496 1275 435 1283 b 251 1271 297 1317 264 1297 b 286 1190 242 1246 251 1215 z "},"Ę":{"ha":967,"x_min":0,"x_max":0,"o":"m 224 -14 b 368 67 286 -14 333 15 b 694 -24 468 13 589 -24 l 728 -22 b 703 -106 711 -51 703 -81 b 839 -225 703 -175 761 -225 b 924 -207 868 -225 899 -218 b 968 -147 954 -193 968 -169 b 915 -90 968 -118 949 -90 b 843 -107 889 -90 869 -107 b 808 -71 824 -107 808 -99 b 876 17 808 -43 856 -3 l 888 29 b 935 139 918 54 935 90 b 753 317 935 243 888 347 b 426 208 644 292 607 200 b 458 475 444 285 454 375 b 731 442 572 460 656 435 b 867 565 844 451 872 510 b 725 667 860 649 794 667 b 461 624 649 667 589 632 l 458 768 b 835 788 600 743 744 747 b 918 1051 961 844 965 965 b 779 1133 890 1101 842 1133 b 160 1082 593 1133 622 913 b 63 1082 138 1090 86 1111 b 64 982 43 1057 46 1017 b 172 872 86 940 124 904 b 271 321 188 689 271 494 b 264 250 271 297 269 274 b 175 272 236 264 206 272 b 74 160 122 272 74 235 b 224 -14 74 81 125 -14 z "},"Ẽ":{"ha":967,"x_min":0,"x_max":0,"o":"m 224 -14 b 368 67 286 -14 333 15 b 694 -24 468 13 589 -24 b 935 139 828 -24 935 18 b 753 317 935 243 888 347 b 426 208 644 292 607 200 b 458 475 444 285 454 375 b 731 442 572 460 656 435 b 867 565 844 451 872 510 b 725 667 860 649 794 667 b 461 624 649 667 589 632 l 458 768 b 835 788 600 743 744 747 b 918 1051 961 844 965 965 b 779 1133 890 1101 842 1133 b 160 1082 593 1133 622 913 b 63 1082 138 1090 86 1111 b 64 982 43 1057 46 1017 b 172 872 86 940 124 904 b 271 321 188 689 271 494 b 264 250 271 297 269 274 b 175 272 236 264 206 272 b 74 160 122 272 74 235 b 224 -14 74 81 125 -14 z m 560 1133 b 694 1263 640 1133 688 1200 b 653 1324 699 1296 679 1324 b 600 1299 626 1324 613 1313 b 535 1243 582 1275 572 1243 b 371 1325 492 1243 451 1325 b 232 1190 289 1325 239 1253 b 278 1129 228 1154 249 1129 b 329 1153 301 1129 317 1139 b 394 1211 351 1176 363 1211 b 560 1133 435 1211 492 1133 z "},"F":{"ha":965,"x_min":0,"x_max":0,"o":"m 306 -1 b 489 132 379 -1 456 39 b 489 472 518 214 514 340 b 731 442 586 460 663 442 b 867 565 844 442 872 510 b 725 667 860 649 794 667 b 451 624 646 667 586 631 b 396 781 435 678 417 732 b 539 756 444 768 493 758 b 864 803 692 743 799 763 b 944 939 918 836 944 883 b 779 1133 944 1047 882 1133 b 113 1100 588 1133 625 897 b 49 1042 86 1111 49 1082 b 85 951 49 1010 61 979 b 128 907 97 936 111 921 b 226 681 158 842 211 764 b 143 131 267 456 113 300 b 306 -1 157 47 229 -1 z "},"G":{"ha":986,"x_min":0,"x_max":0,"o":"m 581 -40 b 951 251 824 -40 944 106 b 633 547 958 399 849 547 b 368 460 535 547 431 517 b 339 242 301 396 299 306 b 532 189 386 169 461 161 b 726 269 601 215 657 269 b 796 213 767 269 796 247 b 572 106 796 147 690 106 b 247 346 421 106 247 174 b 661 696 247 547 401 668 b 860 864 794 710 860 761 b 622 1061 860 1010 744 1067 b 42 454 263 1057 42 754 b 581 -40 42 121 329 -40 z "},"Ğ":{"ha":986,"x_min":0,"x_max":0,"o":"m 581 -40 b 951 251 824 -40 944 106 b 633 547 958 399 849 547 b 368 460 535 547 431 517 b 339 242 301 396 299 306 b 532 189 386 169 461 161 b 726 269 601 215 657 269 b 796 213 767 269 796 247 b 572 106 796 147 690 106 b 247 346 421 106 247 174 b 661 696 247 547 401 668 b 860 864 794 710 860 761 b 622 1061 860 1010 744 1067 b 42 454 263 1057 42 754 b 581 -40 42 121 329 -40 z m 617 1139 b 794 1290 747 1139 794 1217 b 726 1401 794 1335 775 1401 b 674 1314 686 1401 671 1357 b 618 1238 676 1279 668 1238 b 564 1314 569 1238 564 1279 b 511 1401 564 1374 546 1401 b 443 1290 464 1401 443 1336 b 617 1139 443 1219 490 1146 z "},"Ģ":{"ha":986,"x_min":0,"x_max":0,"o":"m 581 -40 b 951 251 824 -40 944 106 b 633 547 958 399 849 547 b 368 460 535 547 431 517 b 339 242 301 396 299 306 b 532 189 386 169 461 161 b 726 269 601 215 657 269 b 796 213 767 269 796 247 b 572 106 796 147 690 106 b 247 346 421 106 247 174 b 661 696 247 547 401 668 b 860 864 794 710 860 761 b 622 1061 860 1010 744 1067 b 42 454 263 1057 42 754 b 581 -40 42 121 329 -40 z m 521 -85 b 397 -208 460 -85 397 -131 b 488 -287 397 -257 433 -296 b 463 -342 482 -304 474 -322 b 443 -414 450 -364 425 -396 b 510 -418 458 -432 486 -435 b 614 -192 564 -383 614 -281 b 521 -85 614 -122 575 -85 z "},"Ġ":{"ha":986,"x_min":0,"x_max":0,"o":"m 581 -40 b 951 251 824 -40 944 106 b 633 547 958 399 849 547 b 368 460 535 547 431 517 b 339 242 301 396 299 306 b 532 189 386 169 461 161 b 726 269 601 215 657 269 b 796 213 767 269 796 247 b 572 106 796 147 690 106 b 247 346 421 106 247 174 b 661 696 247 547 401 668 b 860 864 794 710 860 761 b 622 1061 860 1010 744 1067 b 42 454 263 1057 42 754 b 581 -40 42 121 329 -40 z m 638 1138 b 738 1244 697 1138 738 1179 b 600 1368 738 1328 667 1368 b 501 1274 539 1368 501 1338 b 638 1138 501 1189 569 1138 z "},"H":{"ha":1097,"x_min":0,"x_max":0,"o":"m 182 -28 b 421 336 311 -31 385 133 b 650 436 490 379 568 411 l 650 385 b 871 -4 650 100 757 -4 b 1049 157 976 -4 1049 65 b 871 683 1049 329 871 456 b 936 982 871 794 936 903 b 874 1033 936 1011 913 1033 b 771 968 835 1033 800 1010 b 661 590 715 890 678 749 b 443 540 593 575 517 561 b 447 676 446 586 447 632 b 226 1065 447 961 333 1065 b 49 869 121 1065 49 989 b 222 439 49 679 176 581 b 64 178 146 382 88 301 b 182 -28 40 54 104 -26 z "},"Ħ":{"ha":1097,"x_min":0,"x_max":0,"o":"m 182 -28 b 421 336 311 -31 385 133 b 650 436 490 379 568 411 l 650 385 b 871 -4 650 100 757 -4 b 1049 157 976 -4 1049 65 b 871 683 1049 329 871 456 b 894 815 871 728 882 772 b 992 850 938 826 971 839 b 1018 904 1013 861 1022 885 b 929 931 1013 926 986 944 b 936 982 933 949 936 967 b 874 1033 936 1011 913 1033 b 771 968 835 1033 800 1010 b 735 901 757 950 746 928 b 421 882 640 893 532 886 b 226 1065 381 1013 301 1065 b 49 885 125 1065 54 996 l 42 885 b -26 833 1 888 -24 863 b 35 761 -29 806 -11 774 l 65 754 b 222 439 101 632 186 549 b 64 178 146 382 88 301 b 182 -28 40 54 104 -26 z m 443 540 b 447 676 446 586 447 632 l 444 746 b 692 775 529 753 614 763 b 661 590 678 718 668 656 b 443 540 593 575 517 561 z "},"I":{"ha":465,"x_min":0,"x_max":0,"o":"m 328 -15 b 386 42 367 -12 389 13 b 292 361 379 119 301 222 b 417 919 274 601 417 754 b 251 1060 417 1008 347 1060 b 49 667 124 1060 49 942 b 226 43 49 428 136 160 b 328 -15 257 4 290 -18 z "},"Ĳ":{"ha":1278,"x_min":0,"x_max":0,"o":"m 328 -15 b 386 42 367 -12 389 13 b 292 361 379 119 301 222 b 417 919 274 601 417 754 b 251 1060 417 1008 347 1060 b 49 667 124 1060 49 942 b 226 43 49 428 136 160 b 328 -15 257 4 290 -18 z m 707 -44 b 1128 171 890 -43 1053 24 b 1229 822 1200 311 1229 525 b 1047 1046 1229 985 1140 1046 b 882 885 968 1046 882 1006 b 992 289 882 750 992 457 b 907 164 992 214 971 164 b 600 317 807 164 749 317 b 431 156 497 317 431 238 b 707 -44 431 26 561 -44 z "},"Í":{"ha":465,"x_min":0,"x_max":0,"o":"m 328 -15 b 386 42 367 -12 389 13 b 292 361 379 119 301 222 b 417 919 274 601 417 754 b 251 1060 417 1008 347 1060 b 49 667 124 1060 49 942 b 226 43 49 428 136 160 b 328 -15 257 4 290 -18 z m 253 1150 b 522 1414 376 1161 513 1322 b 482 1475 526 1447 507 1471 b 408 1425 458 1478 435 1463 b 224 1275 360 1349 307 1317 b 175 1189 181 1253 167 1217 b 253 1150 183 1164 210 1146 z "},"Î":{"ha":465,"x_min":0,"x_max":0,"o":"m 328 -15 b 386 42 367 -12 389 13 b 292 361 379 119 301 222 b 417 919 274 601 417 754 b 251 1060 417 1008 347 1060 b 49 667 124 1060 49 942 b 226 43 49 428 136 160 b 328 -15 257 4 290 -18 z m 82 1132 b 253 1267 132 1135 203 1178 b 422 1132 301 1178 372 1135 b 482 1175 453 1132 476 1151 b 440 1240 486 1196 474 1218 b 311 1404 372 1281 344 1328 b 251 1446 297 1433 274 1446 b 193 1404 228 1446 206 1431 b 64 1240 160 1328 132 1281 b 22 1175 31 1218 18 1196 b 82 1132 28 1151 51 1132 z "},"Ï":{"ha":465,"x_min":0,"x_max":0,"o":"m 328 -15 b 386 42 367 -12 389 13 b 292 361 379 119 301 222 b 417 919 274 601 417 754 b 251 1060 417 1008 347 1060 b 49 667 124 1060 49 942 b 226 43 49 428 136 160 b 328 -15 257 4 290 -18 z m 388 1131 b 474 1222 439 1131 474 1167 b 357 1328 474 1293 413 1328 b 272 1247 304 1328 272 1301 b 388 1131 272 1175 331 1131 z m 144 1131 b 231 1222 196 1131 231 1167 b 114 1328 231 1293 169 1328 b 29 1247 63 1328 29 1301 b 144 1131 29 1175 88 1131 z "},"İ":{"ha":465,"x_min":0,"x_max":0,"o":"m 328 -15 b 386 42 367 -12 389 13 b 292 361 379 119 301 222 b 417 919 274 601 417 754 b 251 1060 417 1008 347 1060 b 49 667 124 1060 49 942 b 226 43 49 428 136 160 b 328 -15 257 4 290 -18 z m 269 1138 b 369 1244 329 1138 369 1179 b 232 1368 369 1328 299 1368 b 133 1274 171 1368 133 1338 b 269 1138 133 1189 201 1138 z "},"Ì":{"ha":465,"x_min":0,"x_max":0,"o":"m 328 -15 b 386 42 367 -12 389 13 b 292 361 379 119 301 222 b 417 919 274 601 417 754 b 251 1060 417 1008 347 1060 b 49 667 124 1060 49 942 b 226 43 49 428 136 160 b 328 -15 257 4 290 -18 z m 276 1150 b 354 1189 319 1146 346 1164 b 306 1275 363 1217 349 1253 b 121 1425 222 1317 169 1349 b 47 1475 94 1463 71 1478 b 7 1414 22 1471 3 1447 b 276 1150 17 1322 153 1161 z "},"Ī":{"ha":465,"x_min":0,"x_max":0,"o":"m 328 -15 b 386 42 367 -12 389 13 b 292 361 379 119 301 222 b 417 919 274 601 417 754 b 251 1060 417 1008 347 1060 b 49 667 124 1060 49 942 b 226 43 49 428 136 160 b 328 -15 257 4 290 -18 z m 74 1176 b 450 1206 176 1106 383 1142 b 458 1279 475 1229 475 1260 b 369 1288 442 1296 414 1300 b 132 1292 283 1261 222 1269 b 39 1257 85 1303 51 1283 b 74 1176 29 1232 39 1201 z "},"Į":{"ha":465,"x_min":0,"x_max":0,"o":"m 317 -262 b 401 -244 346 -262 376 -256 b 446 -185 432 -231 446 -207 b 393 -128 446 -156 426 -128 b 321 -144 367 -128 347 -144 b 286 -108 301 -144 286 -136 b 354 -21 286 -81 333 -40 b 378 10 364 -12 372 -1 b 386 42 385 18 388 29 b 292 361 379 119 301 222 b 417 919 274 601 417 754 b 251 1060 417 1008 347 1060 b 49 667 124 1060 49 942 b 226 43 49 428 136 160 b 261 8 238 29 249 17 b 181 -143 206 -44 181 -99 b 317 -262 181 -212 239 -262 z "},"Ĩ":{"ha":465,"x_min":0,"x_max":0,"o":"m 328 -15 b 386 42 367 -12 389 13 b 292 361 379 119 301 222 b 417 919 274 601 417 754 b 251 1060 417 1008 347 1060 b 49 667 124 1060 49 942 b 226 43 49 428 136 160 b 328 -15 257 4 290 -18 z m 347 1119 b 482 1249 428 1119 475 1186 b 440 1310 486 1282 467 1310 b 388 1285 414 1310 400 1299 b 322 1229 369 1261 360 1229 b 158 1311 279 1229 239 1311 b 19 1176 76 1311 26 1239 b 65 1115 15 1140 36 1115 b 117 1139 89 1115 104 1125 b 182 1197 139 1163 150 1197 b 347 1119 222 1197 279 1119 z "},"J":{"ha":868,"x_min":0,"x_max":0,"o":"m 297 -44 b 718 171 481 -43 643 24 b 819 822 790 311 819 525 b 638 1046 819 985 731 1046 b 472 885 558 1046 472 1006 b 582 289 472 750 582 457 b 497 164 582 214 561 164 b 190 317 397 164 339 317 b 21 156 88 317 21 238 b 297 -44 21 26 151 -44 z "},"K":{"ha":1069,"x_min":0,"x_max":0,"o":"m 182 -28 b 367 140 265 -29 325 38 b 428 382 394 208 414 292 l 479 468 b 658 118 572 421 639 264 b 825 -10 669 38 732 -17 b 986 182 900 -3 986 42 b 578 588 986 383 772 544 b 1013 794 722 714 906 688 b 1003 1014 1072 854 1069 946 b 608 906 929 1088 778 1075 b 446 715 546 843 493 779 b 386 964 442 826 418 907 b 226 1065 343 1035 283 1065 b 49 869 121 1065 49 989 b 222 439 49 679 176 581 b 64 178 146 382 88 301 b 182 -28 40 54 104 -26 z "},"Ķ":{"ha":1069,"x_min":0,"x_max":0,"o":"m 182 -28 b 367 140 265 -29 325 38 b 428 382 394 208 414 292 l 479 468 b 658 118 572 421 639 264 b 825 -10 669 38 732 -17 b 986 182 900 -3 986 42 b 578 588 986 383 772 544 b 1013 794 722 714 906 688 b 1003 1014 1072 854 1069 946 b 608 906 929 1088 778 1075 b 446 715 546 843 493 779 b 386 964 442 826 418 907 b 226 1065 343 1035 283 1065 b 49 869 121 1065 49 989 b 222 439 49 679 176 581 b 64 178 146 382 88 301 b 182 -28 40 54 104 -26 z m 535 -22 b 411 -146 474 -22 411 -68 b 501 -225 411 -194 447 -233 b 476 -279 496 -242 488 -260 b 457 -351 464 -301 439 -333 b 524 -356 472 -369 500 -372 b 628 -129 578 -321 628 -218 b 535 -22 628 -60 589 -22 z "},"L":{"ha":917,"x_min":0,"x_max":0,"o":"m 224 -14 b 342 78 269 -14 310 21 b 656 -24 436 17 550 -24 b 882 139 782 -24 882 18 b 711 317 882 243 838 347 b 394 210 604 292 582 192 b 447 649 429 333 447 493 b 424 849 447 729 439 794 b 226 1038 386 983 308 1038 b 49 876 121 1038 49 968 b 244 268 49 618 247 506 b 189 274 226 274 210 274 b 74 157 119 274 72 219 b 224 -14 75 78 126 -14 z "},"Ĺ":{"ha":917,"x_min":0,"x_max":0,"o":"m 224 -14 b 342 78 269 -14 310 21 b 656 -24 436 17 550 -24 b 882 139 782 -24 882 18 b 711 317 882 243 838 347 b 394 210 604 292 582 192 b 447 649 429 333 447 493 b 424 849 447 729 439 794 b 226 1038 386 983 308 1038 b 49 876 121 1038 49 968 b 244 268 49 618 247 506 b 189 274 226 274 210 274 b 74 157 119 274 72 219 b 224 -14 75 78 126 -14 z m 228 1150 b 497 1414 351 1161 488 1322 b 457 1475 501 1447 482 1471 b 383 1425 433 1478 410 1463 b 199 1275 335 1349 282 1317 b 150 1189 156 1253 142 1217 b 228 1150 158 1164 185 1146 z "},"Ľ":{"ha":917,"x_min":0,"x_max":0,"o":"m 224 -14 b 342 78 269 -14 310 21 b 656 -24 436 17 550 -24 b 882 139 782 -24 882 18 b 711 317 882 243 838 347 b 394 210 604 292 582 192 b 447 649 429 333 447 493 b 424 849 447 729 439 794 b 226 1038 386 983 308 1038 b 49 876 121 1038 49 968 b 244 268 49 618 247 506 b 189 274 226 274 210 274 b 74 157 119 274 72 219 b 224 -14 75 78 126 -14 z m 533 713 b 606 724 554 699 585 701 b 601 1053 663 788 681 969 b 519 1076 574 1082 543 1088 b 492 994 493 1065 478 1033 b 517 788 522 917 536 864 b 533 713 508 749 515 724 z "},"Ļ":{"ha":917,"x_min":0,"x_max":0,"o":"m 224 -14 b 342 78 269 -14 310 21 b 656 -24 436 17 550 -24 b 882 139 782 -24 882 18 b 711 317 882 243 838 347 b 394 210 604 292 582 192 b 447 649 429 333 447 493 b 424 849 447 729 439 794 b 226 1038 386 983 308 1038 b 49 876 121 1038 49 968 b 244 268 49 618 247 506 b 189 274 226 274 210 274 b 74 157 119 274 72 219 b 224 -14 75 78 126 -14 z m 485 -64 b 361 -187 424 -64 361 -110 b 451 -267 361 -236 397 -275 b 426 -321 446 -283 438 -301 b 407 -393 414 -343 389 -375 b 474 -397 422 -411 450 -414 b 578 -171 528 -362 578 -260 b 485 -64 578 -101 539 -64 z "},"Ł":{"ha":917,"x_min":0,"x_max":0,"o":"m 224 -14 b 342 78 269 -14 310 21 b 656 -24 436 17 550 -24 b 882 139 782 -24 882 18 b 711 317 882 243 838 347 b 394 210 604 292 582 192 b 435 428 413 275 426 350 b 575 582 506 481 564 542 b 546 650 586 615 571 642 b 465 613 524 656 497 646 l 446 594 l 447 649 b 424 849 447 729 439 794 b 226 1038 386 983 308 1038 b 49 876 121 1038 49 968 b 203 458 49 697 144 588 l 174 449 b 110 372 126 435 107 401 b 181 321 114 346 138 325 b 242 328 199 319 219 322 b 244 268 243 308 244 289 b 189 274 226 274 210 274 b 74 157 119 274 72 219 b 224 -14 75 78 126 -14 z "},"M":{"ha":1444,"x_min":0,"x_max":0,"o":"m 733 42 b 883 243 813 42 883 124 b 815 490 883 319 858 406 b 1032 746 874 590 950 672 b 997 385 1010 638 997 511 b 1218 -4 997 100 1104 -4 b 1396 157 1324 -4 1396 65 b 1218 683 1396 329 1218 456 b 1283 979 1218 793 1282 900 b 1260 1033 1286 1000 1279 1022 b 1144 1033 1229 1051 1190 1050 b 714 658 1031 990 874 847 b 306 1015 594 821 435 963 b 247 1032 286 1024 268 1029 b 189 1031 228 1035 207 1035 b 49 872 104 1015 49 953 b 226 346 49 700 226 574 b 161 47 226 235 161 126 b 224 -4 161 18 185 -4 b 340 83 269 -4 308 28 b 447 644 411 201 447 425 l 444 718 b 599 503 506 664 561 594 b 557 324 574 447 557 389 b 733 42 557 206 611 42 z "},"N":{"ha":1097,"x_min":0,"x_max":0,"o":"m 915 -28 b 1033 178 993 -26 1057 54 b 875 439 1010 301 951 382 b 1049 869 921 581 1049 679 b 871 1065 1049 989 976 1065 b 650 676 764 1065 650 961 l 651 582 b 407 893 560 672 482 771 b 226 1033 365 993 297 1033 b 49 872 121 1033 49 964 b 226 346 49 700 226 574 b 161 47 226 235 161 126 b 224 -4 161 18 185 -4 b 340 83 269 -4 308 28 b 446 564 403 188 438 372 b 668 393 528 492 613 428 b 915 -28 699 165 774 -31 z "},"Ń":{"ha":1097,"x_min":0,"x_max":0,"o":"m 915 -28 b 1033 178 993 -26 1057 54 b 875 439 1010 301 951 382 b 1049 869 921 581 1049 679 b 871 1065 1049 989 976 1065 b 650 676 764 1065 650 961 l 651 582 b 407 893 560 672 482 771 b 226 1033 365 993 297 1033 b 49 872 121 1033 49 964 b 226 346 49 700 226 574 b 161 47 226 235 161 126 b 224 -4 161 18 185 -4 b 340 83 269 -4 308 28 b 446 564 403 188 438 372 b 668 393 528 492 613 428 b 915 -28 699 165 774 -31 z m 525 1150 b 794 1414 649 1161 785 1322 b 754 1475 799 1447 779 1471 b 681 1425 731 1478 707 1463 b 496 1275 632 1349 579 1317 b 447 1189 453 1253 439 1217 b 525 1150 456 1164 482 1146 z "},"Ň":{"ha":1097,"x_min":0,"x_max":0,"o":"m 915 -28 b 1033 178 993 -26 1057 54 b 875 439 1010 301 951 382 b 1049 869 921 581 1049 679 b 871 1065 1049 989 976 1065 b 650 676 764 1065 650 961 l 651 582 b 407 893 560 672 482 771 b 226 1033 365 993 297 1033 b 49 872 121 1033 49 964 b 226 346 49 700 226 574 b 161 47 226 235 161 126 b 224 -4 161 18 185 -4 b 340 83 269 -4 308 28 b 446 564 403 188 438 372 b 668 393 528 492 613 428 b 915 -28 699 165 774 -31 z m 694 1446 b 524 1311 644 1443 574 1400 b 354 1446 475 1400 404 1443 b 294 1403 324 1446 300 1426 b 336 1338 290 1382 303 1360 b 465 1174 404 1297 432 1250 b 525 1132 479 1144 503 1132 b 583 1174 549 1132 571 1147 b 713 1338 617 1250 644 1297 b 754 1403 746 1360 758 1382 b 694 1446 749 1426 725 1446 z "},"Ņ":{"ha":1097,"x_min":0,"x_max":0,"o":"m 915 -28 b 1033 178 993 -26 1057 54 b 875 439 1010 301 951 382 b 1049 869 921 581 1049 679 b 871 1065 1049 989 976 1065 b 650 676 764 1065 650 961 l 651 582 b 407 893 560 672 482 771 b 226 1033 365 993 297 1033 b 49 872 121 1033 49 964 b 226 346 49 700 226 574 b 161 47 226 235 161 126 b 224 -4 161 18 185 -4 b 340 83 269 -4 308 28 b 446 564 403 188 438 372 b 668 393 528 492 613 428 b 915 -28 699 165 774 -31 z m 542 -36 b 418 -160 481 -36 418 -82 b 508 -239 418 -208 454 -247 b 483 -293 503 -256 494 -274 b 464 -365 471 -315 446 -347 b 531 -369 479 -383 507 -386 b 635 -143 585 -335 635 -232 b 542 -36 635 -74 596 -36 z "},"Ñ":{"ha":1097,"x_min":0,"x_max":0,"o":"m 915 -28 b 1033 178 993 -26 1057 54 b 875 439 1010 301 951 382 b 1049 869 921 581 1049 679 b 871 1065 1049 989 976 1065 b 650 676 764 1065 650 961 l 651 582 b 407 893 560 672 482 771 b 226 1033 365 993 297 1033 b 49 872 121 1033 49 964 b 226 346 49 700 226 574 b 161 47 226 235 161 126 b 224 -4 161 18 185 -4 b 340 83 269 -4 308 28 b 446 564 403 188 438 372 b 668 393 528 492 613 428 b 915 -28 699 165 774 -31 z m 619 1119 b 754 1249 700 1119 747 1186 b 713 1310 758 1282 739 1310 b 660 1285 686 1310 672 1299 b 594 1229 642 1261 632 1229 b 431 1311 551 1229 511 1311 b 292 1176 349 1311 299 1239 b 338 1115 288 1140 308 1115 b 389 1139 361 1115 376 1125 b 454 1197 411 1163 422 1197 b 619 1119 494 1197 551 1119 z "},"Ŋ":{"ha":1097,"x_min":0,"x_max":0,"o":"m 525 -481 b 850 -342 635 -544 776 -467 b 928 424 1008 -75 928 251 b 1049 869 928 608 1049 700 b 871 1065 1049 989 976 1065 b 650 676 764 1065 650 961 l 650 635 b 404 899 547 714 474 792 b 226 1033 364 994 296 1033 b 49 872 121 1033 49 964 b 226 346 49 700 226 574 b 161 47 226 235 161 126 b 224 -4 161 18 185 -4 b 340 83 269 -4 308 28 b 446 582 404 190 440 383 b 672 436 522 524 603 471 b 765 -60 714 208 800 81 b 467 -253 728 -215 540 -125 b 525 -481 411 -343 449 -440 z "},"O":{"ha":1063,"x_min":0,"x_max":0,"o":"m 579 -29 b 1021 515 863 -29 1021 253 b 863 881 1021 719 944 828 b 660 926 803 921 725 943 b 632 1026 669 961 661 994 b 354 1046 568 1093 435 1078 b 42 546 192 981 42 803 b 579 -29 42 257 204 -29 z m 379 436 b 542 776 379 606 465 701 b 568 689 542 749 550 719 b 768 335 628 589 768 508 b 589 113 768 214 707 113 b 379 436 457 113 379 281 z "},"Ó":{"ha":1063,"x_min":0,"x_max":0,"o":"m 579 -29 b 1021 515 863 -29 1021 253 b 863 881 1021 719 944 828 b 660 926 803 921 725 943 b 632 1026 669 961 661 994 b 354 1046 568 1093 435 1078 b 42 546 192 981 42 803 b 579 -29 42 257 204 -29 z m 531 1150 b 800 1414 654 1161 790 1322 b 760 1475 804 1447 785 1471 b 686 1425 736 1478 713 1463 b 501 1275 638 1349 585 1317 b 453 1189 458 1253 444 1217 b 531 1150 461 1164 488 1146 z m 379 436 b 542 776 379 606 465 701 b 568 689 542 749 550 719 b 768 335 628 589 768 508 b 589 113 768 214 707 113 b 379 436 457 113 379 281 z "},"Ô":{"ha":1063,"x_min":0,"x_max":0,"o":"m 579 -29 b 1021 515 863 -29 1021 253 b 863 881 1021 719 944 828 b 660 926 803 921 725 943 b 632 1026 669 961 661 994 b 354 1046 568 1093 435 1078 b 42 546 192 981 42 803 b 579 -29 42 257 204 -29 z m 360 1132 b 531 1267 410 1135 481 1178 b 700 1132 579 1178 650 1135 b 760 1175 731 1132 754 1151 b 718 1240 764 1196 751 1218 b 589 1404 650 1281 622 1328 b 529 1446 575 1433 551 1446 b 471 1404 506 1446 483 1431 b 342 1240 438 1328 410 1281 b 300 1175 308 1218 296 1196 b 360 1132 306 1151 329 1132 z m 379 436 b 542 776 379 606 465 701 b 568 689 542 749 550 719 b 768 335 628 589 768 508 b 589 113 768 214 707 113 b 379 436 457 113 379 281 z "},"Ö":{"ha":1063,"x_min":0,"x_max":0,"o":"m 579 -29 b 1021 515 863 -29 1021 253 b 863 881 1021 719 944 828 b 660 926 803 921 725 943 b 632 1026 669 961 661 994 b 354 1046 568 1093 435 1078 b 42 546 192 981 42 803 b 579 -29 42 257 204 -29 z m 665 1131 b 751 1222 717 1131 751 1167 b 635 1328 751 1293 690 1328 b 550 1247 582 1328 550 1301 b 665 1131 550 1175 608 1131 z m 422 1131 b 508 1222 474 1131 508 1167 b 392 1328 508 1293 447 1328 b 307 1247 340 1328 307 1301 b 422 1131 307 1175 365 1131 z m 379 436 b 542 776 379 606 465 701 b 568 689 542 749 550 719 b 768 335 628 589 768 508 b 589 113 768 214 707 113 b 379 436 457 113 379 281 z "},"Ò":{"ha":1063,"x_min":0,"x_max":0,"o":"m 579 -29 b 1021 515 863 -29 1021 253 b 863 881 1021 719 944 828 b 660 926 803 921 725 943 b 632 1026 669 961 661 994 b 354 1046 568 1093 435 1078 b 42 546 192 981 42 803 b 579 -29 42 257 204 -29 z m 554 1150 b 632 1189 597 1146 624 1164 b 583 1275 640 1217 626 1253 b 399 1425 500 1317 447 1349 b 325 1475 372 1463 349 1478 b 285 1414 300 1471 281 1447 b 554 1150 294 1322 431 1161 z m 379 436 b 542 776 379 606 465 701 b 568 689 542 749 550 719 b 768 335 628 589 768 508 b 589 113 768 214 707 113 b 379 436 457 113 379 281 z "},"Ő":{"ha":1063,"x_min":0,"x_max":0,"o":"m 579 -29 b 1021 515 863 -29 1021 253 b 863 881 1021 719 944 828 b 660 926 803 921 725 943 b 632 1026 669 961 661 994 b 354 1046 568 1093 435 1078 b 42 546 192 981 42 803 b 579 -29 42 257 204 -29 z m 404 1136 b 624 1443 524 1168 629 1350 b 572 1496 621 1476 599 1496 b 508 1433 549 1494 528 1475 b 353 1254 475 1350 428 1310 b 321 1161 314 1225 307 1186 b 404 1136 333 1138 363 1125 z m 656 1135 b 875 1442 775 1167 881 1349 b 824 1494 872 1475 850 1494 b 760 1432 800 1493 779 1474 b 604 1253 726 1349 679 1308 b 572 1160 565 1224 558 1185 b 656 1135 585 1136 614 1124 z m 379 436 b 542 776 379 606 465 701 b 568 689 542 749 550 719 b 768 335 628 589 768 508 b 589 113 768 214 707 113 b 379 436 457 113 379 281 z "},"Ō":{"ha":1063,"x_min":0,"x_max":0,"o":"m 579 -29 b 1021 515 863 -29 1021 253 b 863 881 1021 719 944 828 b 660 926 803 921 725 943 b 632 1026 669 961 661 994 b 354 1046 568 1093 435 1078 b 42 546 192 981 42 803 b 579 -29 42 257 204 -29 z m 351 1176 b 728 1206 454 1106 661 1142 b 736 1279 753 1229 753 1260 b 647 1288 719 1296 692 1300 b 410 1292 561 1261 500 1269 b 317 1257 363 1303 329 1283 b 351 1176 307 1232 317 1201 z m 379 436 b 542 776 379 606 465 701 b 568 689 542 749 550 719 b 768 335 628 589 768 508 b 589 113 768 214 707 113 b 379 436 457 113 379 281 z "},"Ø":{"ha":1063,"x_min":0,"x_max":0,"o":"m 579 -29 b 1021 515 863 -29 1021 253 b 863 881 1021 719 944 828 l 831 900 b 861 1038 850 963 861 1011 b 828 1088 863 1061 847 1081 b 760 1021 806 1093 776 1078 b 726 931 753 997 742 967 b 660 926 704 933 681 932 b 632 1026 669 961 661 994 b 354 1046 568 1093 435 1078 b 42 546 192 981 42 803 b 281 51 42 350 117 156 l 263 22 b 272 -62 239 -11 249 -46 b 365 -46 296 -79 332 -79 b 401 -4 376 -35 389 -21 b 579 -29 454 -21 514 -29 z m 379 436 b 542 776 379 606 465 701 b 568 689 542 749 550 719 b 599 646 576 675 588 660 b 408 272 539 524 472 390 b 379 436 389 322 379 381 z m 497 144 b 690 539 561 257 631 400 b 768 335 733 485 768 421 b 589 113 768 214 707 113 b 497 144 554 113 524 124 z "},"Õ":{"ha":1063,"x_min":0,"x_max":0,"o":"m 579 -29 b 1021 515 863 -29 1021 253 b 863 881 1021 719 944 828 b 660 926 803 921 725 943 b 632 1026 669 961 661 994 b 354 1046 568 1093 435 1078 b 42 546 192 981 42 803 b 579 -29 42 257 204 -29 z m 625 1119 b 760 1249 706 1119 753 1186 b 718 1310 764 1282 744 1310 b 665 1285 692 1310 678 1299 b 600 1229 647 1261 638 1229 b 436 1311 557 1229 517 1311 b 297 1176 354 1311 304 1239 b 343 1115 293 1140 314 1115 b 394 1139 367 1115 382 1125 b 460 1197 417 1163 428 1197 b 625 1119 500 1197 557 1119 z m 379 436 b 542 776 379 606 465 701 b 568 689 542 749 550 719 b 768 335 628 589 768 508 b 589 113 768 214 707 113 b 379 436 457 113 379 281 z "},"Œ":{"ha":1460,"x_min":0,"x_max":0,"o":"m 589 113 b 379 436 457 113 379 281 b 589 822 379 642 506 739 b 643 888 611 844 631 867 l 661 875 b 728 321 667 692 728 494 b 589 113 728 285 724 113 z m 1188 -24 b 1428 139 1321 -24 1428 18 b 1246 317 1428 243 1381 347 b 908 208 1135 292 1099 196 b 951 475 935 285 946 375 b 1224 442 1065 460 1149 435 b 1360 565 1338 451 1365 510 b 1218 667 1353 649 1288 667 b 954 624 1142 667 1082 632 l 951 768 b 1328 788 1093 743 1238 747 b 1411 1051 1454 844 1458 965 b 1272 1133 1383 1101 1335 1133 b 653 1082 1086 1133 1115 913 b 556 1082 631 1090 579 1111 b 547 1068 553 1078 550 1074 b 351 1046 483 1081 407 1067 b 42 551 190 982 42 806 b 592 -15 42 265 203 -17 b 836 81 704 -15 782 21 b 1188 -24 940 18 1074 -24 z "},"P":{"ha":1063,"x_min":0,"x_max":0,"o":"m 611 344 b 1028 749 772 344 1028 500 b 742 1072 1028 914 932 1072 b 421 878 631 1072 508 1007 b 396 946 414 903 406 926 b 226 1065 353 1031 289 1065 b 49 869 121 1065 49 989 b 225 429 49 674 183 575 b 85 97 138 326 85 193 b 186 -28 85 24 117 -28 b 342 86 251 -28 303 17 b 438 451 385 163 419 303 b 611 344 460 392 521 344 z m 447 711 b 722 939 510 869 619 939 b 853 796 803 939 853 882 b 583 657 853 581 671 657 b 447 581 528 657 475 626 b 447 711 449 625 449 669 z "},"Þ":{"ha":1063,"x_min":0,"x_max":0,"o":"m 597 206 b 1014 610 758 206 1014 361 b 728 933 1014 775 918 933 b 440 783 631 933 524 883 b 396 946 432 846 418 903 b 226 1065 353 1031 289 1065 b 49 869 121 1065 49 989 b 225 429 49 674 183 575 b 85 97 138 326 85 193 b 186 -28 85 24 117 -28 b 342 86 251 -28 303 17 b 418 326 372 140 399 228 b 597 206 436 261 500 206 z m 436 446 l 440 482 b 449 608 444 524 447 567 b 708 800 513 740 614 800 b 839 657 789 800 839 743 b 569 518 839 442 657 518 b 436 446 517 518 465 490 z "},"Q":{"ha":1063,"x_min":0,"x_max":0,"o":"m 579 -29 l 608 -28 b 719 -160 640 -78 676 -122 b 897 -204 774 -208 850 -243 b 886 -72 938 -169 917 -115 b 808 44 856 -28 829 10 b 1021 515 946 146 1021 335 b 771 872 1021 707 914 872 b 490 388 557 872 490 625 b 540 110 490 292 508 197 l 533 110 b 310 422 433 110 310 210 b 603 817 310 665 506 724 b 621 1017 671 882 663 963 b 476 1082 590 1057 539 1082 b 42 546 274 1082 42 846 b 579 -29 42 257 204 -29 z m 719 401 b 782 681 719 451 721 681 b 847 456 815 681 847 575 b 742 188 847 335 806 246 b 719 401 725 246 719 311 z "},"R":{"ha":1049,"x_min":0,"x_max":0,"o":"m 186 -28 b 342 86 251 -28 303 17 b 432 414 381 157 414 279 b 522 375 451 390 489 375 b 571 378 539 375 556 376 b 674 132 628 304 656 211 b 869 -22 700 18 788 -28 b 1035 160 958 -15 1042 51 b 767 461 1026 268 908 379 b 929 807 872 547 929 685 b 685 1072 929 949 853 1072 b 404 929 590 1072 486 1024 l 396 946 b 226 1065 353 1031 289 1065 b 49 869 121 1065 49 989 b 225 429 49 674 183 575 b 85 97 138 326 85 193 b 186 -28 85 24 117 -28 z m 439 794 b 674 939 510 893 604 939 b 731 889 713 939 731 919 b 500 596 731 822 649 701 b 446 542 479 581 460 563 b 439 794 451 631 450 718 z "},"Ŕ":{"ha":1049,"x_min":0,"x_max":0,"o":"m 186 -28 b 342 86 251 -28 303 17 b 432 414 381 157 414 279 b 522 375 451 390 489 375 b 571 378 539 375 556 376 b 674 132 628 304 656 211 b 869 -22 700 18 788 -28 b 1035 160 958 -15 1042 51 b 767 461 1026 268 908 379 b 929 807 872 547 929 685 b 685 1072 929 949 853 1072 b 404 929 590 1072 486 1024 l 396 946 b 226 1065 353 1031 289 1065 b 49 869 121 1065 49 989 b 225 429 49 674 183 575 b 85 97 138 326 85 193 b 186 -28 85 24 117 -28 z m 501 1150 b 771 1414 625 1161 761 1322 b 731 1475 775 1447 756 1471 b 657 1425 707 1478 683 1463 b 472 1275 608 1349 556 1317 b 424 1189 429 1253 415 1217 b 501 1150 432 1164 458 1146 z m 439 794 b 674 939 510 893 604 939 b 731 889 713 939 731 919 b 500 596 731 822 649 701 b 446 542 479 581 460 563 b 439 794 451 631 450 718 z "},"Ř":{"ha":1049,"x_min":0,"x_max":0,"o":"m 186 -28 b 342 86 251 -28 303 17 b 432 414 381 157 414 279 b 522 375 451 390 489 375 b 571 378 539 375 556 376 b 674 132 628 304 656 211 b 869 -22 700 18 788 -28 b 1035 160 958 -15 1042 51 b 767 461 1026 268 908 379 b 929 807 872 547 929 685 b 685 1072 929 949 853 1072 b 404 929 590 1072 486 1024 l 396 946 b 226 1065 353 1031 289 1065 b 49 869 121 1065 49 989 b 225 429 49 674 183 575 b 85 97 138 326 85 193 b 186 -28 85 24 117 -28 z m 671 1446 b 500 1311 621 1443 550 1400 b 331 1446 451 1400 381 1443 b 271 1403 300 1446 276 1426 b 313 1338 267 1382 279 1360 b 442 1174 381 1297 408 1250 b 501 1132 456 1144 479 1132 b 560 1174 525 1132 547 1147 b 689 1338 593 1250 621 1297 b 731 1403 722 1360 735 1382 b 671 1446 725 1426 701 1446 z m 439 794 b 674 939 510 893 604 939 b 731 889 713 939 731 919 b 500 596 731 822 649 701 b 446 542 479 581 460 563 b 439 794 451 631 450 718 z "},"Ŗ":{"ha":1049,"x_min":0,"x_max":0,"o":"m 186 -28 b 342 86 251 -28 303 17 b 432 414 381 157 414 279 b 522 375 451 390 489 375 b 571 378 539 375 556 376 b 674 132 628 304 656 211 b 869 -22 700 18 788 -28 b 1035 160 958 -15 1042 51 b 767 461 1026 268 908 379 b 929 807 872 547 929 685 b 685 1072 929 949 853 1072 b 404 929 590 1072 486 1024 l 396 946 b 226 1065 353 1031 289 1065 b 49 869 121 1065 49 989 b 225 429 49 674 183 575 b 85 97 138 326 85 193 b 186 -28 85 24 117 -28 z m 518 -22 b 394 -146 457 -22 394 -68 b 485 -225 394 -194 431 -233 b 460 -279 479 -242 471 -260 b 440 -351 447 -301 422 -333 b 507 -356 456 -369 483 -372 b 611 -129 561 -321 611 -218 b 518 -22 611 -60 572 -22 z m 439 794 b 674 939 510 893 604 939 b 731 889 713 939 731 919 b 500 596 731 822 649 701 b 446 542 479 581 460 563 b 439 794 451 631 450 718 z "},"S":{"ha":917,"x_min":0,"x_max":0,"o":"m 456 -24 b 875 279 693 -24 875 86 b 396 765 875 615 396 560 b 496 879 396 831 425 879 b 672 779 571 879 621 810 b 814 797 717 756 778 763 b 794 957 861 843 844 913 b 468 1068 719 1031 593 1068 b 96 819 274 1068 96 992 b 536 343 96 543 536 496 b 474 289 536 303 510 289 b 185 349 386 289 258 349 b 54 249 121 349 76 310 b 192 17 18 149 64 56 b 456 -24 282 -11 372 -24 z "},"Ś":{"ha":917,"x_min":0,"x_max":0,"o":"m 456 -24 b 875 279 693 -24 875 86 b 396 765 875 615 396 560 b 496 879 396 831 425 879 b 672 779 571 879 621 810 b 814 797 717 756 778 763 b 794 957 861 843 844 913 b 468 1068 719 1031 593 1068 b 96 819 274 1068 96 992 b 536 343 96 543 536 496 b 474 289 536 303 510 289 b 185 349 386 289 258 349 b 54 249 121 349 76 310 b 192 17 18 149 64 56 b 456 -24 282 -11 372 -24 z m 469 1150 b 739 1414 593 1161 729 1322 b 699 1475 743 1447 724 1471 b 625 1425 675 1478 651 1463 b 440 1275 576 1349 524 1317 b 392 1189 397 1253 383 1217 b 469 1150 400 1164 426 1146 z "},"Š":{"ha":917,"x_min":0,"x_max":0,"o":"m 456 -24 b 875 279 693 -24 875 86 b 396 765 875 615 396 560 b 496 879 396 831 425 879 b 672 779 571 879 621 810 b 814 797 717 756 778 763 b 794 957 861 843 844 913 b 468 1068 719 1031 593 1068 b 96 819 274 1068 96 992 b 536 343 96 543 536 496 b 474 289 536 303 510 289 b 185 349 386 289 258 349 b 54 249 121 349 76 310 b 192 17 18 149 64 56 b 456 -24 282 -11 372 -24 z m 639 1446 b 468 1311 589 1443 518 1400 b 299 1446 419 1400 349 1443 b 239 1403 268 1446 244 1426 b 281 1338 235 1382 247 1360 b 410 1174 349 1297 376 1250 b 469 1132 424 1144 447 1132 b 528 1174 493 1132 515 1147 b 657 1338 561 1250 589 1297 b 699 1403 690 1360 703 1382 b 639 1446 693 1426 669 1446 z "},"Ş":{"ha":917,"x_min":0,"x_max":0,"o":"m 453 -335 b 603 -187 556 -335 603 -261 b 494 -65 603 -132 560 -74 b 503 -22 500 -50 503 -35 b 875 279 717 -8 875 99 b 396 765 875 615 396 560 b 496 879 396 831 425 879 b 672 779 571 879 621 810 b 814 797 717 756 778 763 b 794 957 861 843 844 913 b 468 1068 719 1031 593 1068 b 96 819 274 1068 96 992 b 536 343 96 543 536 496 b 474 289 536 303 510 289 b 185 349 386 289 258 349 b 54 249 121 349 76 310 b 192 17 18 149 64 56 b 411 -22 267 -6 340 -19 b 356 -99 403 -49 392 -62 b 347 -153 338 -114 331 -137 b 415 -156 365 -165 390 -165 b 443 -139 425 -151 435 -146 b 467 -136 451 -137 460 -136 b 526 -181 506 -136 526 -160 b 475 -215 526 -207 503 -215 b 382 -201 447 -215 404 -201 b 322 -258 344 -201 322 -229 b 367 -318 322 -281 336 -304 b 453 -335 392 -329 421 -335 z "},"Ș":{"ha":917,"x_min":0,"x_max":0,"o":"m 456 -24 b 875 279 693 -24 875 86 b 396 765 875 615 396 560 b 496 879 396 831 425 879 b 672 779 571 879 621 810 b 814 797 717 756 778 763 b 794 957 861 843 844 913 b 468 1068 719 1031 593 1068 b 96 819 274 1068 96 992 b 536 343 96 543 536 496 b 474 289 536 303 510 289 b 185 349 386 289 258 349 b 54 249 121 349 76 310 b 192 17 18 149 64 56 b 456 -24 282 -11 372 -24 z m 474 -79 b 350 -203 413 -79 350 -125 b 440 -282 350 -251 386 -290 b 415 -336 435 -299 426 -317 b 396 -408 403 -358 378 -390 b 463 -412 411 -426 439 -429 b 567 -186 517 -378 567 -275 b 474 -79 567 -117 528 -79 z "},"ẞ":{"ha":1074,"x_min":0,"x_max":0,"o":"m 669 -19 b 1039 279 861 -19 1039 100 b 771 581 1039 425 922 539 b 863 801 829 646 863 726 b 918 1051 961 863 961 972 b 779 1133 890 1101 842 1133 b 160 1082 593 1133 622 913 b 63 1082 138 1090 86 1111 b 64 982 43 1057 46 1017 b 106 926 74 963 88 943 b 175 46 7 703 46 246 b 271 -21 201 4 233 -21 b 333 31 310 -22 335 1 b 268 357 333 108 265 218 b 407 779 269 538 357 660 b 621 753 478 763 551 754 b 465 619 586 701 532 651 b 422 474 408 593 390 517 b 519 443 440 450 483 440 b 657 490 569 450 615 467 b 892 315 757 474 892 406 b 731 210 892 260 832 210 b 543 256 678 210 614 224 b 367 246 472 288 406 278 b 349 113 331 215 318 165 b 669 -19 421 -11 588 -19 z "},"T":{"ha":1083,"x_min":0,"x_max":0,"o":"m 632 -14 b 810 147 738 -14 810 56 b 632 674 810 319 632 446 b 660 819 632 724 646 774 b 1013 967 804 853 940 904 b 1069 1069 1049 999 1069 1033 b 1006 1128 1069 1110 1035 1129 b 676 1033 919 1121 800 1044 b 179 1161 436 1006 369 1178 b 14 967 76 1151 14 1075 b 200 790 14 885 72 817 b 458 786 267 776 358 776 b 411 375 426 669 411 521 b 632 -14 411 90 518 -14 z "},"Ť":{"ha":1083,"x_min":0,"x_max":0,"o":"m 632 -14 b 810 147 738 -14 810 56 b 632 674 810 319 632 446 b 660 819 632 724 646 774 b 1013 967 804 853 940 904 b 1069 1069 1049 999 1069 1033 b 1006 1128 1069 1110 1035 1129 b 676 1033 919 1121 800 1044 b 179 1161 436 1006 369 1178 b 14 967 76 1151 14 1075 b 200 790 14 885 72 817 b 458 786 267 776 358 776 b 411 375 426 669 411 521 b 632 -14 411 90 518 -14 z m 778 1446 b 607 1311 728 1443 657 1400 b 438 1446 558 1400 488 1443 b 378 1403 407 1446 383 1426 b 419 1338 374 1382 386 1360 b 549 1174 488 1297 515 1250 b 608 1132 563 1144 586 1132 b 667 1174 632 1132 654 1147 b 796 1338 700 1250 728 1297 b 838 1403 829 1360 842 1382 b 778 1446 832 1426 808 1446 z "},"Ţ":{"ha":1083,"x_min":0,"x_max":0,"o":"m 200 790 b 458 786 267 776 358 776 b 411 375 426 669 411 521 b 592 -10 411 125 493 14 b 532 -97 582 -43 572 -57 b 524 -151 514 -112 507 -136 b 592 -154 542 -164 567 -164 b 619 -137 601 -150 611 -144 b 643 -135 628 -136 636 -135 b 703 -179 682 -135 703 -158 b 651 -214 703 -206 679 -214 b 558 -200 624 -214 581 -200 b 499 -257 521 -200 499 -228 b 543 -317 499 -279 513 -303 b 629 -333 568 -328 597 -333 b 779 -186 732 -333 779 -260 b 671 -64 779 -131 736 -72 b 679 -18 676 -47 679 -31 l 679 -8 b 810 147 758 8 810 69 b 632 674 810 319 632 446 b 660 819 632 724 646 774 b 1013 967 804 853 940 904 b 1069 1069 1049 999 1069 1033 b 1006 1128 1069 1110 1035 1129 b 676 1033 919 1121 800 1044 b 179 1161 436 1006 369 1178 b 14 967 76 1151 14 1075 b 200 790 14 885 72 817 z "},"Ț":{"ha":1083,"x_min":0,"x_max":0,"o":"m 632 -14 b 810 147 738 -14 810 56 b 632 674 810 319 632 446 b 660 819 632 724 646 774 b 1013 967 804 853 940 904 b 1069 1069 1049 999 1069 1033 b 1006 1128 1069 1110 1035 1129 b 676 1033 919 1121 800 1044 b 179 1161 436 1006 369 1178 b 14 967 76 1151 14 1075 b 200 790 14 885 72 817 b 458 786 267 776 358 776 b 411 375 426 669 411 521 b 632 -14 411 90 518 -14 z m 650 -36 b 526 -160 589 -36 526 -82 b 617 -239 526 -208 563 -247 b 592 -293 611 -256 603 -274 b 572 -365 579 -315 554 -347 b 639 -369 588 -383 615 -386 b 743 -143 693 -335 743 -232 b 650 -36 743 -74 704 -36 z "},"U":{"ha":1104,"x_min":0,"x_max":0,"o":"m 440 -22 b 757 153 571 -22 675 49 b 924 -11 800 68 857 7 b 1046 15 971 -24 1024 -21 b 1003 144 1064 44 1058 85 b 889 396 947 204 911 294 b 993 882 963 583 993 783 b 875 1032 993 963 953 1032 b 651 636 722 1032 651 850 b 694 315 651 531 667 417 b 465 124 635 204 558 124 b 310 326 346 124 310 210 b 410 878 310 517 410 786 b 238 1046 410 1004 321 1046 b 49 799 142 1046 49 982 b 440 -22 49 446 57 -22 z "},"Ú":{"ha":1104,"x_min":0,"x_max":0,"o":"m 440 -22 b 757 153 571 -22 675 49 b 924 -11 800 68 857 7 b 1046 15 971 -24 1024 -21 b 1003 144 1064 44 1058 85 b 889 396 947 204 911 294 b 993 882 963 583 993 783 b 875 1032 993 963 953 1032 b 651 636 722 1032 651 850 b 694 315 651 531 667 417 b 465 124 635 204 558 124 b 310 326 346 124 310 210 b 410 878 310 517 410 786 b 238 1046 410 1004 321 1046 b 49 799 142 1046 49 982 b 440 -22 49 446 57 -22 z m 571 1150 b 840 1414 694 1161 831 1322 b 800 1475 844 1447 825 1471 b 726 1425 776 1478 753 1463 b 542 1275 678 1349 625 1317 b 493 1189 499 1253 485 1217 b 571 1150 501 1164 528 1146 z "},"Ŭ":{"ha":1104,"x_min":0,"x_max":0,"o":"m 440 -22 b 757 153 571 -22 675 49 b 924 -11 800 68 857 7 b 1046 15 971 -24 1024 -21 b 1003 144 1064 44 1058 85 b 889 396 947 204 911 294 b 993 882 963 583 993 783 b 875 1032 993 963 953 1032 b 651 636 722 1032 651 850 b 694 315 651 531 667 417 b 465 124 635 204 558 124 b 310 326 346 124 310 210 b 410 878 310 517 410 786 b 238 1046 410 1004 321 1046 b 49 799 142 1046 49 982 b 440 -22 49 446 57 -22 z m 567 1139 b 744 1290 697 1139 744 1217 b 676 1401 744 1335 725 1401 b 624 1314 636 1401 621 1357 b 568 1238 626 1279 618 1238 b 514 1314 519 1238 514 1279 b 461 1401 514 1374 496 1401 b 393 1290 414 1401 393 1336 b 567 1139 393 1219 440 1146 z "},"Û":{"ha":1104,"x_min":0,"x_max":0,"o":"m 440 -22 b 757 153 571 -22 675 49 b 924 -11 800 68 857 7 b 1046 15 971 -24 1024 -21 b 1003 144 1064 44 1058 85 b 889 396 947 204 911 294 b 993 882 963 583 993 783 b 875 1032 993 963 953 1032 b 651 636 722 1032 651 850 b 694 315 651 531 667 417 b 465 124 635 204 558 124 b 310 326 346 124 310 210 b 410 878 310 517 410 786 b 238 1046 410 1004 321 1046 b 49 799 142 1046 49 982 b 440 -22 49 446 57 -22 z m 400 1132 b 571 1267 450 1135 521 1178 b 740 1132 619 1178 690 1135 b 800 1175 771 1132 794 1151 b 758 1240 804 1196 792 1218 b 629 1404 690 1281 663 1328 b 569 1446 615 1433 592 1446 b 511 1404 546 1446 524 1431 b 382 1240 478 1328 450 1281 b 340 1175 349 1218 336 1196 b 400 1132 346 1151 369 1132 z "},"Ü":{"ha":1104,"x_min":0,"x_max":0,"o":"m 440 -22 b 757 153 571 -22 675 49 b 924 -11 800 68 857 7 b 1046 15 971 -24 1024 -21 b 1003 144 1064 44 1058 85 b 889 396 947 204 911 294 b 993 882 963 583 993 783 b 875 1032 993 963 953 1032 b 651 636 722 1032 651 850 b 694 315 651 531 667 417 b 465 124 635 204 558 124 b 310 326 346 124 310 210 b 410 878 310 517 410 786 b 238 1046 410 1004 321 1046 b 49 799 142 1046 49 982 b 440 -22 49 446 57 -22 z m 706 1131 b 792 1222 757 1131 792 1167 b 675 1328 792 1293 731 1328 b 590 1247 622 1328 590 1301 b 706 1131 590 1175 649 1131 z m 463 1131 b 549 1222 514 1131 549 1167 b 432 1328 549 1293 488 1328 b 347 1247 381 1328 347 1301 b 463 1131 347 1175 406 1131 z "},"Ù":{"ha":1104,"x_min":0,"x_max":0,"o":"m 440 -22 b 757 153 571 -22 675 49 b 924 -11 800 68 857 7 b 1046 15 971 -24 1024 -21 b 1003 144 1064 44 1058 85 b 889 396 947 204 911 294 b 993 882 963 583 993 783 b 875 1032 993 963 953 1032 b 651 636 722 1032 651 850 b 694 315 651 531 667 417 b 465 124 635 204 558 124 b 310 326 346 124 310 210 b 410 878 310 517 410 786 b 238 1046 410 1004 321 1046 b 49 799 142 1046 49 982 b 440 -22 49 446 57 -22 z m 594 1150 b 672 1189 638 1146 664 1164 b 624 1275 681 1217 667 1253 b 439 1425 540 1317 488 1349 b 365 1475 413 1463 389 1478 b 325 1414 340 1471 321 1447 b 594 1150 335 1322 471 1161 z "},"Ű":{"ha":1104,"x_min":0,"x_max":0,"o":"m 440 -22 b 757 153 571 -22 675 49 b 924 -11 800 68 857 7 b 1046 15 971 -24 1024 -21 b 1003 144 1064 44 1058 85 b 889 396 947 204 911 294 b 993 882 963 583 993 783 b 875 1032 993 963 953 1032 b 651 636 722 1032 651 850 b 694 315 651 531 667 417 b 465 124 635 204 558 124 b 310 326 346 124 310 210 b 410 878 310 517 410 786 b 238 1046 410 1004 321 1046 b 49 799 142 1046 49 982 b 440 -22 49 446 57 -22 z m 444 1136 b 664 1443 564 1168 669 1350 b 613 1496 661 1476 639 1496 b 549 1433 589 1494 568 1475 b 393 1254 515 1350 468 1310 b 361 1161 354 1225 347 1186 b 444 1136 374 1138 403 1125 z m 696 1135 b 915 1442 815 1167 921 1349 b 864 1494 913 1475 890 1494 b 800 1432 840 1493 819 1474 b 644 1253 767 1349 719 1308 b 613 1160 606 1224 599 1185 b 696 1135 625 1136 654 1124 z "},"Ū":{"ha":1104,"x_min":0,"x_max":0,"o":"m 440 -22 b 757 153 571 -22 675 49 b 924 -11 800 68 857 7 b 1046 15 971 -24 1024 -21 b 1003 144 1064 44 1058 85 b 889 396 947 204 911 294 b 993 882 963 583 993 783 b 875 1032 993 963 953 1032 b 651 636 722 1032 651 850 b 694 315 651 531 667 417 b 465 124 635 204 558 124 b 310 326 346 124 310 210 b 410 878 310 517 410 786 b 238 1046 410 1004 321 1046 b 49 799 142 1046 49 982 b 440 -22 49 446 57 -22 z m 392 1176 b 768 1206 494 1106 701 1142 b 776 1279 793 1229 793 1260 b 688 1288 760 1296 732 1300 b 450 1292 601 1261 540 1269 b 357 1257 403 1303 369 1283 b 392 1176 347 1232 357 1201 z "},"Ų":{"ha":1104,"x_min":0,"x_max":0,"o":"m 440 -22 b 757 153 571 -22 675 49 b 908 -6 797 75 847 17 b 847 -137 865 -53 847 -99 b 983 -257 847 -207 906 -257 b 1068 -239 1013 -257 1043 -250 b 1113 -179 1099 -225 1113 -201 b 1060 -122 1113 -150 1093 -122 b 988 -139 1033 -122 1014 -139 b 953 -103 968 -139 953 -131 b 1021 -15 953 -75 1000 -35 b 1040 7 1028 -8 1035 -1 l 1046 15 b 1003 144 1064 44 1058 85 b 889 396 947 204 911 294 b 993 882 963 583 993 783 b 875 1032 993 963 953 1032 b 651 636 722 1032 651 850 b 694 315 651 531 667 417 b 465 124 635 204 558 124 b 310 326 346 124 310 210 b 410 878 310 517 410 786 b 238 1046 410 1004 321 1046 b 49 799 142 1046 49 982 b 440 -22 49 446 57 -22 z "},"Ů":{"ha":1104,"x_min":0,"x_max":0,"o":"m 440 -22 b 757 153 571 -22 675 49 b 924 -11 800 68 857 7 b 1046 15 971 -24 1024 -21 b 1003 144 1064 44 1058 85 b 889 396 947 204 911 294 b 993 882 963 583 993 783 b 875 1032 993 963 953 1032 b 651 636 722 1032 651 850 b 694 315 651 531 667 417 b 465 124 635 204 558 124 b 310 326 346 124 310 210 b 410 878 310 517 410 786 b 238 1046 410 1004 321 1046 b 49 799 142 1046 49 982 b 440 -22 49 446 57 -22 z m 567 1001 b 738 1163 685 1001 738 1079 b 567 1338 738 1250 678 1338 b 403 1175 456 1338 403 1258 b 567 1001 403 1090 463 1001 z m 569 1131 b 492 1171 518 1131 492 1151 b 569 1208 492 1189 515 1208 b 649 1168 621 1208 649 1188 b 569 1131 649 1149 625 1131 z "},"Ũ":{"ha":1104,"x_min":0,"x_max":0,"o":"m 440 -22 b 757 153 571 -22 675 49 b 924 -11 800 68 857 7 b 1046 15 971 -24 1024 -21 b 1003 144 1064 44 1058 85 b 889 396 947 204 911 294 b 993 882 963 583 993 783 b 875 1032 993 963 953 1032 b 651 636 722 1032 651 850 b 694 315 651 531 667 417 b 465 124 635 204 558 124 b 310 326 346 124 310 210 b 410 878 310 517 410 786 b 238 1046 410 1004 321 1046 b 49 799 142 1046 49 982 b 440 -22 49 446 57 -22 z m 665 1119 b 800 1249 746 1119 793 1186 b 758 1310 804 1282 785 1310 b 706 1285 732 1310 718 1299 b 640 1229 688 1261 678 1229 b 476 1311 597 1229 557 1311 b 338 1176 394 1311 344 1239 b 383 1115 333 1140 354 1115 b 435 1139 407 1115 422 1125 b 500 1197 457 1163 468 1197 b 665 1119 540 1197 597 1119 z "},"V":{"ha":1049,"x_min":0,"x_max":0,"o":"m 436 1 b 1035 950 658 0 1035 710 b 871 1107 1035 1036 968 1107 b 683 924 769 1107 683 1035 b 575 326 683 733 646 506 b 471 757 563 461 521 619 b 186 1057 390 978 279 1057 b 14 886 113 1057 14 1000 b 363 375 14 733 246 554 b 407 292 381 347 396 319 b 315 138 340 243 315 186 b 436 1 315 63 375 1 z "},"W":{"ha":1500,"x_min":0,"x_max":0,"o":"m 1069 -21 b 1451 799 1282 -21 1451 194 b 1263 1046 1451 982 1358 1046 b 1090 878 1179 1046 1090 1004 b 1190 326 1090 788 1190 518 b 1072 119 1190 196 1142 119 b 835 397 944 119 867 278 b 939 882 908 582 939 771 b 806 1044 939 983 876 1044 b 597 651 710 1044 597 932 b 644 325 597 551 610 433 b 428 119 569 182 490 119 b 310 326 358 119 310 196 b 410 878 310 518 410 788 b 238 1046 410 1004 321 1046 b 49 799 142 1046 49 982 b 403 -21 49 194 218 -21 b 715 172 513 -21 628 56 b 1069 -21 788 60 900 -21 z "},"Ẃ":{"ha":1500,"x_min":0,"x_max":0,"o":"m 1069 -21 b 1451 799 1282 -21 1451 194 b 1263 1046 1451 982 1358 1046 b 1090 878 1179 1046 1090 1004 b 1190 326 1090 788 1190 518 b 1072 119 1190 196 1142 119 b 835 397 944 119 867 278 b 939 882 908 582 939 771 b 806 1044 939 983 876 1044 b 597 651 710 1044 597 932 b 644 325 597 551 610 433 b 428 119 569 182 490 119 b 310 326 358 119 310 196 b 410 878 310 518 410 788 b 238 1046 410 1004 321 1046 b 49 799 142 1046 49 982 b 403 -21 49 194 218 -21 b 715 172 513 -21 628 56 b 1069 -21 788 60 900 -21 z m 790 1150 b 1060 1414 914 1161 1050 1322 b 1019 1475 1064 1447 1044 1471 b 946 1425 996 1478 972 1463 b 761 1275 897 1349 844 1317 b 713 1189 718 1253 704 1217 b 790 1150 721 1164 747 1146 z "},"Ŵ":{"ha":1500,"x_min":0,"x_max":0,"o":"m 1069 -21 b 1451 799 1282 -21 1451 194 b 1263 1046 1451 982 1358 1046 b 1090 878 1179 1046 1090 1004 b 1190 326 1090 788 1190 518 b 1072 119 1190 196 1142 119 b 835 397 944 119 867 278 b 939 882 908 582 939 771 b 806 1044 939 983 876 1044 b 597 651 710 1044 597 932 b 644 325 597 551 610 433 b 428 119 569 182 490 119 b 310 326 358 119 310 196 b 410 878 310 518 410 788 b 238 1046 410 1004 321 1046 b 49 799 142 1046 49 982 b 403 -21 49 194 218 -21 b 715 172 513 -21 628 56 b 1069 -21 788 60 900 -21 z m 619 1132 b 790 1267 669 1135 740 1178 b 960 1132 839 1178 910 1135 b 1019 1175 990 1132 1014 1151 b 978 1240 1024 1196 1011 1218 b 849 1404 910 1281 882 1328 b 789 1446 835 1433 811 1446 b 731 1404 765 1446 743 1431 b 601 1240 697 1328 669 1281 b 560 1175 568 1218 556 1196 b 619 1132 565 1151 589 1132 z "},"Ẅ":{"ha":1500,"x_min":0,"x_max":0,"o":"m 1069 -21 b 1451 799 1282 -21 1451 194 b 1263 1046 1451 982 1358 1046 b 1090 878 1179 1046 1090 1004 b 1190 326 1090 788 1190 518 b 1072 119 1190 196 1142 119 b 835 397 944 119 867 278 b 939 882 908 582 939 771 b 806 1044 939 983 876 1044 b 597 651 710 1044 597 932 b 644 325 597 551 610 433 b 428 119 569 182 490 119 b 310 326 358 119 310 196 b 410 878 310 518 410 788 b 238 1046 410 1004 321 1046 b 49 799 142 1046 49 982 b 403 -21 49 194 218 -21 b 715 172 513 -21 628 56 b 1069 -21 788 60 900 -21 z m 925 1131 b 1011 1222 976 1131 1011 1167 b 894 1328 1011 1293 950 1328 b 810 1247 842 1328 810 1301 b 925 1131 810 1175 868 1131 z m 682 1131 b 768 1222 733 1131 768 1167 b 651 1328 768 1293 707 1328 b 567 1247 600 1328 567 1301 b 682 1131 567 1175 625 1131 z "},"Ẁ":{"ha":1500,"x_min":0,"x_max":0,"o":"m 1069 -21 b 1451 799 1282 -21 1451 194 b 1263 1046 1451 982 1358 1046 b 1090 878 1179 1046 1090 1004 b 1190 326 1090 788 1190 518 b 1072 119 1190 196 1142 119 b 835 397 944 119 867 278 b 939 882 908 582 939 771 b 806 1044 939 983 876 1044 b 597 651 710 1044 597 932 b 644 325 597 551 610 433 b 428 119 569 182 490 119 b 310 326 358 119 310 196 b 410 878 310 518 410 788 b 238 1046 410 1004 321 1046 b 49 799 142 1046 49 982 b 403 -21 49 194 218 -21 b 715 172 513 -21 628 56 b 1069 -21 788 60 900 -21 z m 814 1150 b 892 1189 857 1146 883 1164 b 843 1275 900 1217 886 1253 b 658 1425 760 1317 707 1349 b 585 1475 632 1463 608 1478 b 544 1414 560 1471 540 1447 b 814 1150 554 1322 690 1161 z "},"X":{"ha":1067,"x_min":0,"x_max":0,"o":"m 982 35 b 1000 140 1014 63 1019 114 b 656 425 946 204 839 238 l 615 472 b 1024 838 742 658 958 746 b 1017 993 1056 883 1051 950 b 835 992 983 1038 918 1054 b 521 625 772 943 650 808 b 361 1007 451 774 443 908 b 138 1058 308 1071 211 1089 b 69 796 60 1025 11 939 b 363 418 111 697 211 597 b 50 196 247 304 114 272 b 43 40 14 153 13 86 b 225 26 72 -7 136 -29 b 476 286 290 68 374 151 b 731 58 569 183 654 107 b 982 35 833 -7 918 -18 z "},"Y":{"ha":1024,"x_min":0,"x_max":0,"o":"m 285 -203 b 501 -87 343 -203 418 -172 b 986 726 607 17 906 521 b 831 1064 1047 882 992 1064 b 657 939 767 1064 699 1025 b 565 507 611 846 594 681 b 286 1013 483 725 372 940 b 60 986 219 1068 121 1060 b 81 724 -7 904 -1 794 b 488 203 235 594 397 386 b 417 60 468 151 444 103 b 167 -97 293 51 167 13 b 285 -203 167 -153 213 -203 z "},"Ý":{"ha":1024,"x_min":0,"x_max":0,"o":"m 285 -203 b 501 -87 343 -203 418 -172 b 986 726 607 17 906 521 b 831 1064 1047 882 992 1064 b 657 939 767 1064 699 1025 b 565 507 611 846 594 681 b 286 1013 483 725 372 940 b 60 986 219 1068 121 1060 b 81 724 -7 904 -1 794 b 488 203 235 594 397 386 b 417 60 468 151 444 103 b 167 -97 293 51 167 13 b 285 -203 167 -153 213 -203 z m 507 1150 b 776 1414 631 1161 767 1322 b 736 1475 781 1447 761 1471 b 663 1425 713 1478 689 1463 b 478 1275 614 1349 561 1317 b 429 1189 435 1253 421 1217 b 507 1150 438 1164 464 1146 z "},"Ŷ":{"ha":1024,"x_min":0,"x_max":0,"o":"m 285 -203 b 501 -87 343 -203 418 -172 b 986 726 607 17 906 521 b 831 1064 1047 882 992 1064 b 657 939 767 1064 699 1025 b 565 507 611 846 594 681 b 286 1013 483 725 372 940 b 60 986 219 1068 121 1060 b 81 724 -7 904 -1 794 b 488 203 235 594 397 386 b 417 60 468 151 444 103 b 167 -97 293 51 167 13 b 285 -203 167 -153 213 -203 z m 336 1132 b 507 1267 386 1135 457 1178 b 676 1132 556 1178 626 1135 b 736 1175 707 1132 731 1151 b 694 1240 740 1196 728 1218 b 565 1404 626 1281 599 1328 b 506 1446 551 1433 528 1446 b 447 1404 482 1446 460 1431 b 318 1240 414 1328 386 1281 b 276 1175 285 1218 272 1196 b 336 1132 282 1151 306 1132 z "},"Ÿ":{"ha":1024,"x_min":0,"x_max":0,"o":"m 285 -203 b 501 -87 343 -203 418 -172 b 986 726 607 17 906 521 b 831 1064 1047 882 992 1064 b 657 939 767 1064 699 1025 b 565 507 611 846 594 681 b 286 1013 483 725 372 940 b 60 986 219 1068 121 1060 b 81 724 -7 904 -1 794 b 488 203 235 594 397 386 b 417 60 468 151 444 103 b 167 -97 293 51 167 13 b 285 -203 167 -153 213 -203 z m 642 1131 b 728 1222 693 1131 728 1167 b 611 1328 728 1293 667 1328 b 526 1247 558 1328 526 1301 b 642 1131 526 1175 585 1131 z m 399 1131 b 485 1222 450 1131 485 1167 b 368 1328 485 1293 424 1328 b 283 1247 317 1328 283 1301 b 399 1131 283 1175 342 1131 z "},"Ỳ":{"ha":1024,"x_min":0,"x_max":0,"o":"m 285 -203 b 501 -87 343 -203 418 -172 b 986 726 607 17 906 521 b 831 1064 1047 882 992 1064 b 657 939 767 1064 699 1025 b 565 507 611 846 594 681 b 286 1013 483 725 372 940 b 60 986 219 1068 121 1060 b 81 724 -7 904 -1 794 b 488 203 235 594 397 386 b 417 60 468 151 444 103 b 167 -97 293 51 167 13 b 285 -203 167 -153 213 -203 z m 531 1150 b 608 1189 574 1146 600 1164 b 560 1275 617 1217 603 1253 b 375 1425 476 1317 424 1349 b 301 1475 349 1463 325 1478 b 261 1414 276 1471 257 1447 b 531 1150 271 1322 407 1161 z "},"Ỹ":{"ha":1024,"x_min":0,"x_max":0,"o":"m 285 -203 b 501 -87 343 -203 418 -172 b 986 726 607 17 906 521 b 831 1064 1047 882 992 1064 b 657 939 767 1064 699 1025 b 565 507 611 846 594 681 b 286 1013 483 725 372 940 b 60 986 219 1068 121 1060 b 81 724 -7 904 -1 794 b 488 203 235 594 397 386 b 417 60 468 151 444 103 b 167 -97 293 51 167 13 b 285 -203 167 -153 213 -203 z m 601 1119 b 736 1249 682 1119 729 1186 b 694 1310 740 1282 721 1310 b 642 1285 668 1310 654 1299 b 576 1229 624 1261 614 1229 b 413 1311 533 1229 493 1311 b 274 1176 331 1311 281 1239 b 319 1115 269 1140 290 1115 b 371 1139 343 1115 358 1125 b 436 1197 393 1163 404 1197 b 601 1119 476 1197 533 1119 z "},"Z":{"ha":1028,"x_min":0,"x_max":0,"o":"m 829 -25 b 1007 153 938 -25 1007 47 b 656 374 1007 260 913 374 l 546 371 b 858 783 618 518 725 692 b 974 938 922 828 979 863 b 876 985 969 996 935 1006 b 660 907 814 963 739 915 b 171 1043 456 890 326 1057 b 42 854 89 1036 32 958 b 157 696 47 790 82 732 b 411 664 215 668 299 654 b 550 682 458 668 504 674 b 383 353 478 567 414 439 b 21 108 185 321 18 246 b 206 -10 22 31 94 -33 b 442 149 318 14 390 72 b 829 -25 568 103 658 -25 z "},"Ź":{"ha":1028,"x_min":0,"x_max":0,"o":"m 829 -25 b 1007 153 938 -25 1007 47 b 656 374 1007 260 913 374 l 546 371 b 858 783 618 518 725 692 b 974 938 922 828 979 863 b 876 985 969 996 935 1006 b 660 907 814 963 739 915 b 171 1043 456 890 326 1057 b 42 854 89 1036 32 958 b 157 696 47 790 82 732 b 411 664 215 668 299 654 b 550 682 458 668 504 674 b 383 353 478 567 414 439 b 21 108 185 321 18 246 b 206 -10 22 31 94 -33 b 442 149 318 14 390 72 b 829 -25 568 103 658 -25 z m 576 1150 b 846 1414 700 1161 836 1322 b 806 1475 850 1447 831 1471 b 732 1425 782 1478 758 1463 b 547 1275 683 1349 631 1317 b 499 1189 504 1253 490 1217 b 576 1150 507 1164 533 1146 z "},"Ž":{"ha":1028,"x_min":0,"x_max":0,"o":"m 829 -25 b 1007 153 938 -25 1007 47 b 656 374 1007 260 913 374 l 546 371 b 858 783 618 518 725 692 b 974 938 922 828 979 863 b 876 985 969 996 935 1006 b 660 907 814 963 739 915 b 171 1043 456 890 326 1057 b 42 854 89 1036 32 958 b 157 696 47 790 82 732 b 411 664 215 668 299 654 b 550 682 458 668 504 674 b 383 353 478 567 414 439 b 21 108 185 321 18 246 b 206 -10 22 31 94 -33 b 442 149 318 14 390 72 b 829 -25 568 103 658 -25 z m 746 1446 b 575 1311 696 1443 625 1400 b 406 1446 526 1400 456 1443 b 346 1403 375 1446 351 1426 b 388 1338 342 1382 354 1360 b 517 1174 456 1297 483 1250 b 576 1132 531 1144 554 1132 b 635 1174 600 1132 622 1147 b 764 1338 668 1250 696 1297 b 806 1403 797 1360 810 1382 b 746 1446 800 1426 776 1446 z "}}}
